{"glyphs":{"0":{"ha":755,"x_min":35,"x_max":720,"o":"m 450 814 q 654 734 587 814 q 720 519 720 655 q 678 280 720 405 q 542 71 635 156 q 307 -14 448 -14 q 102 69 170 -14 q 35 288 35 151 q 77 524 35 403 q 214 730 120 646 q 450 814 307 814 m 313 118 q 461 184 403 118 q 545 343 519 250 q 571 524 571 436 q 539 637 571 595 q 439 679 507 679 q 295 616 352 679 q 211 464 238 554 q 184 290 184 375 q 313 118 184 118 z "},"1":{"ha":505,"x_min":17,"x_max":488,"o":"m 488 122 l 464 0 l 17 0 l 42 122 l 182 122 l 290 677 l 149 623 l 122 738 l 302 809 l 465 809 l 332 122 l 488 122 z "},"2":{"ha":688,"x_min":35,"x_max":642,"o":"m 116 747 q 254 803 188 781 q 403 825 321 825 q 575 771 507 825 q 642 622 642 717 q 606 490 642 556 q 484 341 569 425 q 240 130 398 257 l 580 130 l 554 0 l 35 0 l 35 127 l 83 163 q 315 345 234 278 q 446 480 396 413 q 497 608 497 547 q 469 666 497 642 q 384 689 441 689 q 284 673 330 689 q 203 640 238 656 q 155 616 168 623 l 116 747 z "},"3":{"ha":743,"x_min":49,"x_max":682,"o":"m 453 826 q 622 778 561 826 q 682 644 682 729 q 677 590 682 620 q 624 483 665 531 q 523 405 583 434 q 642 252 642 366 q 637 203 642 229 q 533 38 616 94 q 325 -17 450 -17 q 180 1 245 -17 q 49 52 115 19 l 115 181 q 222 136 177 151 q 316 122 267 122 q 495 233 472 122 q 497 257 497 241 q 451 320 497 302 q 299 339 405 339 l 280 339 l 300 470 q 467 507 415 470 q 531 606 519 543 q 533 623 533 613 q 507 671 533 658 q 443 684 481 684 q 224 625 365 684 l 188 762 q 453 826 339 826 z "},"4":{"ha":703,"x_min":26,"x_max":686,"o":"m 686 304 l 661 175 l 533 175 l 500 -2 l 359 -2 l 391 175 l 26 175 l 26 276 l 483 809 l 649 809 l 557 304 l 686 304 m 219 304 l 413 304 l 476 616 l 219 304 z "},"5":{"ha":740,"x_min":35,"x_max":705,"o":"m 328 396 q 232 388 286 396 q 165 378 177 380 l 139 396 l 219 809 l 705 809 l 681 684 l 333 684 l 300 526 q 378 530 337 530 q 567 472 503 530 q 630 314 630 415 q 623 243 630 276 q 501 45 597 106 q 274 -16 405 -16 q 35 30 160 -16 l 90 158 q 183 131 142 141 q 267 122 224 122 q 418 158 366 122 q 486 273 470 194 q 490 300 490 293 q 328 396 490 396 z "},"6":{"ha":675,"x_min":38,"x_max":632,"o":"m 52 378 q 238 707 90 589 q 632 826 385 825 l 630 696 q 222 465 309 698 q 385 498 293 498 q 553 445 488 498 q 618 295 618 392 q 611 234 618 276 q 504 52 590 122 q 286 -17 418 -17 q 99 51 160 -17 q 38 245 38 120 q 52 378 38 304 m 474 257 q 477 285 477 278 q 370 365 477 365 q 181 314 269 365 q 175 257 175 283 q 209 151 175 186 q 300 116 243 116 q 414 153 368 116 q 474 257 460 189 z "},"7":{"ha":651,"x_min":35,"x_max":616,"o":"m 193 0 l 35 0 l 438 679 l 87 679 l 113 809 l 616 809 l 616 707 l 193 0 z "},"8":{"ha":703,"x_min":50,"x_max":651,"o":"m 438 825 q 594 778 536 825 q 651 655 651 731 q 630 554 651 595 q 582 488 609 512 q 510 431 556 464 q 590 356 563 398 q 618 259 618 314 q 613 214 618 238 q 510 47 592 111 q 299 -17 429 -17 q 115 38 181 -17 q 50 181 50 94 q 56 227 50 205 q 113 347 69 299 q 233 443 156 396 q 180 508 200 476 q 160 594 160 540 q 165 637 160 615 q 255 770 181 715 q 438 825 330 825 m 431 698 q 334 666 377 698 q 292 585 292 634 q 370 479 292 528 q 468 543 431 510 q 516 625 505 575 q 498 679 523 660 q 431 698 474 698 m 302 108 q 425 146 377 108 q 486 243 474 184 q 488 264 488 250 q 455 334 488 309 q 368 378 422 359 q 246 315 297 359 q 182 214 194 271 q 181 193 181 207 q 210 131 181 155 q 302 108 240 108 z "},"9":{"ha":710,"x_min":38,"x_max":661,"o":"m 401 826 q 597 756 533 826 q 661 559 661 686 q 648 431 661 503 q 548 174 616 274 q 356 27 479 75 q 38 -17 233 -21 l 45 115 l 94 113 q 347 167 260 113 q 472 323 434 220 q 306 293 403 293 q 143 352 207 293 q 80 512 80 411 q 87 575 80 530 q 190 758 109 689 q 401 826 271 826 m 222 552 q 219 519 219 528 q 244 452 219 477 q 321 427 269 427 q 509 476 420 427 q 517 552 517 524 q 484 657 517 623 q 392 691 450 691 q 280 655 325 691 q 222 552 234 620 z "}," ":{"ha":382,"x_min":0,"x_max":0,"o":""},"A":{"ha":931,"x_min":-43,"x_max":844,"o":"m -43 0 l 134 0 l 273 252 l 630 252 l 679 0 l 844 0 l 663 955 l 497 955 l -43 0 m 361 405 l 550 762 l 608 405 l 361 405 z "},"Á":{"ha":931,"x_min":-43,"x_max":844,"o":"m 0 0 m -43 0 l 134 0 l 273 252 l 630 252 l 679 0 l 844 0 l 663 955 l 497 955 l -43 0 m 361 405 l 550 762 l 608 405 l 361 405 m 799 1151 l 401 1007 l 349 1113 l 740 1295 l 799 1151 z "},"Ă":{"ha":931,"x_min":-43,"x_max":863,"o":"m 0 0 m -43 0 l 134 0 l 273 252 l 630 252 l 679 0 l 844 0 l 663 955 l 497 955 l -43 0 m 361 405 l 550 762 l 608 405 l 361 405 m 589 1045 q 756 1093 693 1045 q 863 1222 819 1141 l 755 1278 q 712 1218 727 1238 q 668 1182 696 1198 q 599 1167 641 1167 q 483 1281 517 1167 l 373 1233 q 444 1101 392 1156 q 589 1045 497 1045 z "},"Â":{"ha":931,"x_min":-43,"x_max":873,"o":"m 0 0 m -43 0 l 134 0 l 273 252 l 630 252 l 679 0 l 844 0 l 663 955 l 497 955 l -43 0 m 361 405 l 550 762 l 608 405 l 361 405 m 333 1132 l 399 1033 l 623 1175 l 781 1031 l 873 1115 l 639 1330 l 333 1132 z "},"Ä":{"ha":931,"x_min":-43,"x_max":844,"o":"m 0 0 m -43 0 l 134 0 l 273 252 l 630 252 l 679 0 l 844 0 l 663 955 l 497 955 l -43 0 m 361 405 l 550 762 l 608 405 l 361 405 m 453 1064 q 397 1087 418 1064 q 375 1144 375 1109 q 404 1208 375 1181 q 470 1236 432 1236 q 525 1214 503 1236 q 547 1158 547 1193 q 519 1092 547 1120 q 453 1064 491 1064 m 726 1064 q 669 1087 691 1064 q 648 1144 648 1109 q 676 1208 648 1181 q 743 1236 705 1236 q 798 1214 776 1236 q 819 1158 819 1193 q 792 1092 819 1120 q 726 1064 764 1064 z "},"À":{"ha":931,"x_min":-43,"x_max":845,"o":"m 0 0 m -43 0 l 134 0 l 273 252 l 630 252 l 679 0 l 844 0 l 663 955 l 497 955 l -43 0 m 361 405 l 550 762 l 608 405 l 361 405 m 408 1160 l 491 1290 l 845 1104 l 776 1007 l 408 1160 z "},"Ā":{"ha":931,"x_min":-43,"x_max":852,"o":"m 0 0 m -43 0 l 134 0 l 273 252 l 630 252 l 679 0 l 844 0 l 663 955 l 497 955 l -43 0 m 361 405 l 550 762 l 608 405 l 361 405 m 377 1085 l 828 1085 l 852 1203 l 401 1203 l 377 1085 z "},"Ą":{"ha":931,"x_min":-43,"x_max":844,"o":"m 625 -238 q 702 -223 660 -238 q 752 -207 745 -208 l 771 -278 q 654 -329 708 -311 q 533 -347 599 -347 q 417 -312 457 -347 q 377 -219 377 -278 q 380 -184 377 -208 q 462 -62 396 -108 q 672 36 528 -17 l 630 252 l 273 252 l 134 0 l -43 0 l 497 955 l 663 955 l 844 0 q 645 -66 707 -40 q 566 -115 583 -92 q 549 -174 549 -137 q 625 -238 549 -238 m 361 405 l 608 405 l 550 762 l 361 405 z "},"Å":{"ha":931,"x_min":-43,"x_max":844,"o":"m 630 252 l 273 252 l 134 0 l -43 0 l 470 908 q 420 1021 420 955 q 473 1161 420 1101 q 630 1222 526 1222 q 735 1182 693 1222 q 778 1076 778 1142 q 750 973 778 1023 q 674 896 722 924 l 844 0 l 679 0 l 630 252 m 533 1057 q 531 1036 531 1050 q 594 976 531 976 q 638 993 618 976 q 661 1033 658 1010 q 663 1054 663 1040 q 648 1098 663 1082 q 604 1115 634 1115 q 557 1097 578 1115 q 533 1057 536 1080 m 361 405 l 608 405 l 550 762 l 361 405 z "},"Ã":{"ha":931,"x_min":-43,"x_max":899,"o":"m 0 0 m -43 0 l 134 0 l 273 252 l 630 252 l 679 0 l 844 0 l 663 955 l 497 955 l -43 0 m 361 405 l 550 762 l 608 405 l 361 405 m 507 1247 q 385 1214 438 1247 q 299 1099 333 1181 l 425 1068 q 458 1116 444 1102 q 498 1130 472 1130 q 525 1123 510 1130 q 556 1108 540 1116 q 620 1076 592 1087 q 684 1064 648 1064 q 816 1108 757 1064 q 899 1222 875 1151 l 773 1250 q 757 1225 769 1245 q 730 1193 745 1205 q 696 1181 715 1181 q 623 1208 672 1181 q 559 1237 583 1227 q 507 1247 535 1247 z "},"Æ":{"ha":1389,"x_min":-43,"x_max":1337,"o":"m 1168 0 l 1198 155 l 759 155 l 809 408 l 1182 408 l 1212 563 l 832 563 l 878 802 l 1307 802 l 1337 955 l 554 955 l -43 0 l 123 0 l 286 252 l 608 252 l 559 0 l 1168 0 m 715 802 l 637 405 l 382 405 l 634 802 l 715 802 z "},"B":{"ha":938,"x_min":52,"x_max":851,"o":"m 52 0 l 384 0 q 747 97 655 0 q 840 314 840 194 q 800 430 840 378 q 679 498 760 481 q 851 747 851 595 q 822 842 851 795 q 722 922 793 889 q 533 955 651 955 l 238 955 l 52 0 m 497 807 q 675 703 675 807 q 631 601 675 639 q 460 563 587 563 l 332 563 l 378 807 l 497 807 m 410 420 q 670 295 670 420 q 606 185 670 220 q 368 149 542 149 l 252 149 l 304 418 l 410 420 z "},"C":{"ha":972,"x_min":69,"x_max":938,"o":"m 668 964 q 333 883 469 964 q 134 670 198 802 q 69 387 69 538 q 119 186 69 278 q 263 39 168 94 q 488 -16 358 -16 q 653 0 578 -16 q 819 49 727 16 l 792 186 q 528 135 637 135 q 325 213 399 135 q 250 417 250 290 q 294 604 250 512 q 428 755 339 696 q 644 814 517 814 q 753 806 705 814 q 858 780 802 799 l 938 905 q 813 949 877 934 q 668 964 748 964 z "},"Ć":{"ha":972,"x_min":69,"x_max":938,"o":"m 69 0 m 668 964 q 333 883 469 964 q 134 670 198 802 q 69 387 69 538 q 119 186 69 278 q 263 39 168 94 q 488 -16 358 -16 q 653 0 578 -16 q 819 49 727 16 l 792 186 q 528 135 637 135 q 325 213 399 135 q 250 417 250 290 q 294 604 250 512 q 428 755 339 696 q 644 814 517 814 q 753 806 705 814 q 858 780 802 799 l 938 905 q 813 949 877 934 q 668 964 748 964 m 854 1151 l 457 1007 l 405 1113 l 795 1295 l 854 1151 z "},"Č":{"ha":972,"x_min":69,"x_max":957,"o":"m 69 0 m 668 964 q 333 883 469 964 q 134 670 198 802 q 69 387 69 538 q 119 186 69 278 q 263 39 168 94 q 488 -16 358 -16 q 653 0 578 -16 q 819 49 727 16 l 792 186 q 528 135 637 135 q 325 213 399 135 q 250 417 250 290 q 294 604 250 512 q 428 755 339 696 q 644 814 517 814 q 753 806 705 814 q 858 780 802 799 l 938 905 q 813 949 877 934 q 668 964 748 964 m 957 1231 l 891 1330 l 667 1188 l 509 1332 l 417 1248 l 651 1033 l 957 1231 z "},"Ç":{"ha":972,"x_min":69,"x_max":938,"o":"m 644 814 q 428 755 517 814 q 294 604 339 696 q 250 417 250 512 q 325 213 250 290 q 528 135 399 135 q 792 186 637 135 l 819 49 q 671 3 738 19 q 526 -16 604 -12 l 502 -76 q 590 -129 566 -99 q 615 -203 615 -160 q 564 -316 615 -267 q 422 -365 514 -365 q 253 -332 347 -365 l 302 -215 l 378 -234 q 444 -245 427 -245 q 476 -222 476 -245 q 463 -200 476 -208 q 415 -179 450 -191 l 342 -156 l 399 -9 q 157 128 245 17 q 69 387 69 240 q 134 670 69 538 q 333 883 198 802 q 668 964 469 964 q 813 949 748 964 q 938 905 877 934 l 858 780 q 753 806 802 799 q 644 814 705 814 z "},"Ĉ":{"ha":972,"x_min":69,"x_max":938,"o":"m 69 0 m 668 964 q 333 883 469 964 q 134 670 198 802 q 69 387 69 538 q 119 186 69 278 q 263 39 168 94 q 488 -16 358 -16 q 653 0 578 -16 q 819 49 727 16 l 792 186 q 528 135 637 135 q 325 213 399 135 q 250 417 250 290 q 294 604 250 512 q 428 755 339 696 q 644 814 517 814 q 753 806 705 814 q 858 780 802 799 l 938 905 q 813 949 877 934 q 668 964 748 964 m 389 1132 l 455 1033 l 679 1175 l 837 1031 l 929 1115 l 694 1330 l 389 1132 z "},"Ċ":{"ha":972,"x_min":69,"x_max":938,"o":"m 69 0 m 668 964 q 333 883 469 964 q 134 670 198 802 q 69 387 69 538 q 119 186 69 278 q 263 39 168 94 q 488 -16 358 -16 q 653 0 578 -16 q 819 49 727 16 l 792 186 q 528 135 637 135 q 325 213 399 135 q 250 417 250 290 q 294 604 250 512 q 428 755 339 696 q 644 814 517 814 q 753 806 705 814 q 858 780 802 799 l 938 905 q 813 949 877 934 q 668 964 748 964 m 655 1056 q 588 1082 613 1056 q 563 1151 563 1109 q 596 1234 563 1201 q 679 1267 630 1267 q 747 1240 720 1267 q 773 1172 773 1214 q 738 1090 773 1125 q 655 1056 703 1056 z "},"D":{"ha":1066,"x_min":52,"x_max":997,"o":"m 52 0 l 273 0 q 818 138 639 0 q 997 569 997 276 q 951 750 997 661 q 806 897 906 839 q 549 955 705 955 l 238 955 l 52 0 m 530 802 q 744 735 675 802 q 813 547 813 668 q 713 260 813 366 q 368 155 613 155 l 252 155 l 378 802 l 530 802 z "},"Ð":{"ha":1080,"x_min":52,"x_max":1010,"o":"m 563 955 q 819 897 719 955 q 965 750 920 839 q 1010 569 1010 661 q 832 138 1010 276 q 286 0 653 0 l 66 0 l 146 410 l 52 410 l 82 564 l 175 564 l 252 955 l 563 955 m 382 155 q 727 260 627 155 q 826 547 826 366 q 758 735 826 668 q 543 802 689 802 l 392 802 l 345 564 l 637 564 l 608 410 l 316 410 l 266 155 l 382 155 z "},"Ď":{"ha":1066,"x_min":52,"x_max":997,"o":"m 52 0 m 52 0 l 273 0 q 818 138 639 0 q 997 569 997 276 q 951 750 997 661 q 806 897 906 839 q 549 955 705 955 l 238 955 l 52 0 m 530 802 q 744 735 675 802 q 813 547 813 668 q 713 260 813 366 q 368 155 613 155 l 252 155 l 378 802 l 530 802 m 832 1231 l 766 1330 l 542 1188 l 384 1332 l 292 1248 l 526 1033 l 832 1231 z "},"Đ":{"ha":1080,"x_min":52,"x_max":1010,"o":"m 52 0 m 563 955 q 819 897 719 955 q 965 750 920 839 q 1010 569 1010 661 q 832 138 1010 276 q 286 0 653 0 l 66 0 l 146 410 l 52 410 l 82 564 l 175 564 l 252 955 l 563 955 m 382 155 q 727 260 627 155 q 826 547 826 366 q 758 735 826 668 q 543 802 689 802 l 392 802 l 345 564 l 637 564 l 608 410 l 316 410 l 266 155 l 382 155 z "},"E":{"ha":899,"x_min":52,"x_max":847,"o":"m 679 0 l 708 155 l 252 155 l 302 408 l 689 408 l 719 563 l 332 563 l 378 802 l 818 802 l 847 955 l 238 955 l 52 0 l 679 0 z "},"É":{"ha":899,"x_min":52,"x_max":847,"o":"m 52 0 m 679 0 l 708 155 l 252 155 l 302 408 l 689 408 l 719 563 l 332 563 l 378 802 l 818 802 l 847 955 l 238 955 l 52 0 l 679 0 m 755 1151 l 358 1007 l 306 1113 l 696 1295 l 755 1151 z "},"Ĕ":{"ha":899,"x_min":52,"x_max":847,"o":"m 52 0 m 679 0 l 708 155 l 252 155 l 302 408 l 689 408 l 719 563 l 332 563 l 378 802 l 818 802 l 847 955 l 238 955 l 52 0 l 679 0 m 545 1045 q 713 1093 649 1045 q 819 1222 776 1141 l 712 1278 q 668 1218 684 1238 q 625 1182 653 1198 q 556 1167 597 1167 q 439 1281 474 1167 l 330 1233 q 401 1101 349 1156 q 545 1045 453 1045 z "},"Ě":{"ha":899,"x_min":52,"x_max":858,"o":"m 52 0 m 679 0 l 708 155 l 252 155 l 302 408 l 689 408 l 719 563 l 332 563 l 378 802 l 818 802 l 847 955 l 238 955 l 52 0 l 679 0 m 858 1231 l 792 1330 l 568 1188 l 410 1332 l 318 1248 l 552 1033 l 858 1231 z "},"Ê":{"ha":899,"x_min":52,"x_max":847,"o":"m 52 0 m 679 0 l 708 155 l 252 155 l 302 408 l 689 408 l 719 563 l 332 563 l 378 802 l 818 802 l 847 955 l 238 955 l 52 0 l 679 0 m 290 1132 l 356 1033 l 580 1175 l 738 1031 l 830 1115 l 595 1330 l 290 1132 z "},"Ë":{"ha":899,"x_min":52,"x_max":847,"o":"m 52 0 m 679 0 l 708 155 l 252 155 l 302 408 l 689 408 l 719 563 l 332 563 l 378 802 l 818 802 l 847 955 l 238 955 l 52 0 l 679 0 m 410 1064 q 353 1087 375 1064 q 332 1144 332 1109 q 360 1208 332 1181 q 427 1236 389 1236 q 482 1214 460 1236 q 503 1158 503 1193 q 476 1092 503 1120 q 410 1064 448 1064 m 682 1064 q 626 1087 648 1064 q 604 1144 604 1109 q 633 1208 604 1181 q 700 1236 661 1236 q 754 1214 733 1236 q 776 1158 776 1193 q 748 1092 776 1120 q 682 1064 720 1064 z "},"Ė":{"ha":899,"x_min":52,"x_max":847,"o":"m 52 0 m 679 0 l 708 155 l 252 155 l 302 408 l 689 408 l 719 563 l 332 563 l 378 802 l 818 802 l 847 955 l 238 955 l 52 0 l 679 0 m 556 1056 q 489 1082 514 1056 q 464 1151 464 1109 q 497 1234 464 1201 q 580 1267 531 1267 q 648 1240 622 1267 q 674 1172 674 1214 q 639 1090 674 1125 q 556 1056 604 1056 z "},"È":{"ha":899,"x_min":52,"x_max":847,"o":"m 52 0 m 679 0 l 708 155 l 252 155 l 302 408 l 689 408 l 719 563 l 332 563 l 378 802 l 818 802 l 847 955 l 238 955 l 52 0 l 679 0 m 365 1160 l 448 1290 l 802 1104 l 733 1007 l 365 1160 z "},"Ē":{"ha":899,"x_min":52,"x_max":847,"o":"m 52 0 m 679 0 l 708 155 l 252 155 l 302 408 l 689 408 l 719 563 l 332 563 l 378 802 l 818 802 l 847 955 l 238 955 l 52 0 l 679 0 m 333 1085 l 785 1085 l 809 1203 l 358 1203 l 333 1085 z "},"Ę":{"ha":899,"x_min":52,"x_max":847,"o":"m 411 -2 q 269 -83 323 -36 q 201 -200 215 -130 q 198 -227 198 -217 q 236 -313 198 -280 q 354 -347 274 -347 q 479 -329 424 -347 q 595 -278 535 -311 l 578 -207 q 526 -224 569 -210 q 450 -238 483 -238 q 389 -218 410 -238 q 368 -165 368 -198 q 372 -139 368 -156 q 447 -57 380 -95 q 674 0 514 -19 l 708 155 l 252 155 l 302 408 l 689 408 l 719 563 l 332 563 l 378 802 l 818 802 l 847 955 l 238 955 l 52 0 l 411 -2 z "},"F":{"ha":873,"x_min":52,"x_max":839,"o":"m 809 802 l 839 955 l 238 955 l 52 0 l 222 0 l 293 363 l 670 363 l 700 519 l 323 519 l 378 802 l 809 802 z "},"G":{"ha":1036,"x_min":69,"x_max":958,"o":"m 837 68 q 470 -16 646 -16 q 258 39 349 -16 q 118 187 167 94 q 69 387 69 280 q 134 670 69 538 q 333 883 198 802 q 668 964 469 964 q 823 946 753 964 q 958 896 892 929 l 878 771 q 762 804 816 793 q 644 814 708 814 q 428 755 517 814 q 294 604 339 696 q 250 417 250 512 q 321 208 250 281 q 510 135 392 135 q 701 163 613 135 l 740 382 l 484 382 l 512 524 l 924 524 l 837 68 z "},"Ğ":{"ha":1036,"x_min":69,"x_max":958,"o":"m 69 0 m 837 68 q 470 -16 646 -16 q 258 39 349 -16 q 118 187 167 94 q 69 387 69 280 q 134 670 69 538 q 333 883 198 802 q 668 964 469 964 q 823 946 753 964 q 958 896 892 929 l 878 771 q 762 804 816 793 q 644 814 708 814 q 428 755 517 814 q 294 604 339 696 q 250 417 250 512 q 321 208 250 281 q 510 135 392 135 q 701 163 613 135 l 740 382 l 484 382 l 512 524 l 924 524 l 837 68 m 644 1045 q 812 1093 748 1045 q 918 1222 875 1141 l 811 1278 q 767 1218 783 1238 q 724 1182 752 1198 q 655 1167 696 1167 q 538 1281 573 1167 l 429 1233 q 500 1101 448 1156 q 644 1045 552 1045 z "},"Ĝ":{"ha":1036,"x_min":69,"x_max":958,"o":"m 69 0 m 837 68 q 470 -16 646 -16 q 258 39 349 -16 q 118 187 167 94 q 69 387 69 280 q 134 670 69 538 q 333 883 198 802 q 668 964 469 964 q 823 946 753 964 q 958 896 892 929 l 878 771 q 762 804 816 793 q 644 814 708 814 q 428 755 517 814 q 294 604 339 696 q 250 417 250 512 q 321 208 250 281 q 510 135 392 135 q 701 163 613 135 l 740 382 l 484 382 l 512 524 l 924 524 l 837 68 m 389 1132 l 455 1033 l 679 1175 l 837 1031 l 929 1115 l 694 1330 l 389 1132 z "},"Ģ":{"ha":1036,"x_min":69,"x_max":958,"o":"m 69 0 m 837 68 q 470 -16 646 -16 q 258 39 349 -16 q 118 187 167 94 q 69 387 69 280 q 134 670 69 538 q 333 883 198 802 q 668 964 469 964 q 823 946 753 964 q 958 896 892 929 l 878 771 q 762 804 816 793 q 644 814 708 814 q 428 755 517 814 q 294 604 339 696 q 250 417 250 512 q 321 208 250 281 q 510 135 392 135 q 701 163 613 135 l 740 382 l 484 382 l 512 524 l 924 524 l 837 68 m 262 -394 l 382 -394 l 554 -89 l 384 -89 l 262 -394 z "},"Ġ":{"ha":1036,"x_min":69,"x_max":958,"o":"m 69 0 m 837 68 q 470 -16 646 -16 q 258 39 349 -16 q 118 187 167 94 q 69 387 69 280 q 134 670 69 538 q 333 883 198 802 q 668 964 469 964 q 823 946 753 964 q 958 896 892 929 l 878 771 q 762 804 816 793 q 644 814 708 814 q 428 755 517 814 q 294 604 339 696 q 250 417 250 512 q 321 208 250 281 q 510 135 392 135 q 701 163 613 135 l 740 382 l 484 382 l 512 524 l 924 524 l 837 68 m 655 1056 q 588 1082 613 1056 q 563 1151 563 1109 q 596 1234 563 1201 q 679 1267 630 1267 q 747 1240 720 1267 q 773 1172 773 1214 q 738 1090 773 1125 q 655 1056 703 1056 z "},"H":{"ha":1090,"x_min":52,"x_max":1038,"o":"m 792 554 l 330 554 l 408 955 l 238 955 l 52 0 l 222 0 l 300 399 l 762 399 l 684 0 l 852 0 l 1038 955 l 870 955 l 792 554 z "},"I":{"ha":460,"x_min":52,"x_max":408,"o":"m 52 0 l 222 0 l 408 955 l 238 955 l 52 0 z "},"Ĳ":{"ha":1106,"x_min":52,"x_max":1071,"o":"m 52 0 l 222 0 l 408 955 l 238 955 l 52 0 m 783 340 q 720 201 767 259 q 547 144 672 144 q 425 161 495 144 l 370 14 q 531 -12 448 -12 q 826 77 736 -12 q 944 307 917 167 l 1071 955 l 903 955 l 783 340 z "},"Í":{"ha":460,"x_min":52,"x_max":542,"o":"m 52 0 m 52 0 l 222 0 l 408 955 l 238 955 l 52 0 m 542 1134 l 144 990 l 92 1095 l 483 1278 l 542 1134 z "},"Ĭ":{"ha":460,"x_min":52,"x_max":606,"o":"m 52 0 m 52 0 l 222 0 l 408 955 l 238 955 l 52 0 m 332 1028 q 499 1076 436 1028 q 606 1205 563 1123 l 498 1260 q 455 1201 470 1220 q 411 1165 439 1181 q 342 1149 384 1149 q 226 1264 260 1149 l 116 1215 q 188 1083 135 1139 q 332 1028 240 1028 z "},"Î":{"ha":460,"x_min":52,"x_max":616,"o":"m 52 0 m 52 0 l 222 0 l 408 955 l 238 955 l 52 0 m 76 1115 l 142 1016 l 366 1158 l 524 1014 l 616 1097 l 382 1313 l 76 1115 z "},"Ï":{"ha":460,"x_min":52,"x_max":563,"o":"m 52 0 m 52 0 l 222 0 l 408 955 l 238 955 l 52 0 m 196 1047 q 140 1069 161 1047 q 118 1127 118 1092 q 147 1191 118 1163 q 214 1219 175 1219 q 268 1197 247 1219 q 290 1141 290 1175 q 262 1075 290 1102 q 196 1047 234 1047 m 469 1047 q 412 1069 434 1047 q 391 1127 391 1092 q 419 1191 391 1163 q 486 1219 448 1219 q 541 1197 519 1219 q 563 1141 563 1175 q 535 1075 563 1102 q 469 1047 507 1047 z "},"İ":{"ha":460,"x_min":52,"x_max":460,"o":"m 52 0 m 52 0 l 222 0 l 408 955 l 238 955 l 52 0 m 342 1038 q 275 1065 300 1038 q 250 1134 250 1092 q 284 1217 250 1184 q 366 1250 318 1250 q 434 1223 408 1250 q 460 1155 460 1196 q 425 1073 460 1108 q 342 1038 391 1038 z "},"Ì":{"ha":460,"x_min":52,"x_max":589,"o":"m 52 0 m 52 0 l 222 0 l 408 955 l 238 955 l 52 0 m 151 1142 l 234 1273 l 589 1087 l 519 990 l 151 1142 z "},"Ī":{"ha":460,"x_min":52,"x_max":595,"o":"m 52 0 m 52 0 l 222 0 l 408 955 l 238 955 l 52 0 m 120 1068 l 571 1068 l 595 1186 l 144 1186 l 120 1068 z "},"Į":{"ha":481,"x_min":-191,"x_max":429,"o":"m 259 955 l 89 61 q -187 -184 -158 -38 q -191 -217 -191 -208 q -150 -311 -191 -274 q -36 -347 -109 -347 q 87 -329 31 -347 q 205 -278 142 -311 l 184 -207 q 135 -223 177 -208 q 57 -238 92 -238 q 0 -218 19 -238 q -19 -163 -19 -198 q -17 -139 -19 -148 q 44 -53 -7 -90 q 243 30 95 -16 l 429 955 l 259 955 z "},"Ĩ":{"ha":460,"x_min":42,"x_max":642,"o":"m 42 0 m 52 0 l 222 0 l 408 955 l 238 955 l 52 0 m 250 1229 q 128 1196 181 1229 q 42 1082 76 1163 l 168 1050 q 201 1099 188 1085 q 241 1113 215 1113 q 268 1106 253 1113 q 299 1090 283 1099 q 363 1058 335 1069 q 427 1047 391 1047 q 559 1090 500 1047 q 642 1205 618 1134 l 516 1233 q 500 1207 512 1227 q 473 1175 488 1188 q 439 1163 458 1163 q 366 1191 415 1163 q 302 1220 326 1210 q 250 1229 278 1229 z "},"J":{"ha":736,"x_min":0,"x_max":701,"o":"m 413 340 q 350 201 398 259 q 177 144 302 144 q 56 161 125 144 l 0 14 q 161 -12 78 -12 q 457 77 366 -12 q 575 307 547 167 l 701 955 l 533 955 l 413 340 z "},"Ĵ":{"ha":736,"x_min":0,"x_max":911,"o":"m 0 0 m 413 340 q 350 201 398 259 q 177 144 302 144 q 56 161 125 144 l 0 14 q 161 -12 78 -12 q 457 77 366 -12 q 575 307 547 167 l 701 955 l 533 955 l 413 340 m 372 1115 l 438 1016 l 661 1158 l 819 1014 l 911 1097 l 677 1313 l 372 1115 z "},"K":{"ha":974,"x_min":52,"x_max":983,"o":"m 233 955 l 52 0 l 217 0 l 403 955 l 233 955 m 627 0 l 816 0 l 519 483 l 983 955 l 799 955 l 326 493 l 627 0 z "},"Ķ":{"ha":974,"x_min":52,"x_max":983,"o":"m 52 0 m 233 955 l 52 0 l 217 0 l 403 955 l 233 955 m 627 0 l 816 0 l 519 483 l 983 955 l 799 955 l 326 493 l 627 0 m 203 -394 l 323 -394 l 495 -89 l 325 -89 l 203 -394 z "},"L":{"ha":793,"x_min":52,"x_max":707,"o":"m 52 0 l 677 0 l 707 155 l 252 155 l 403 955 l 238 955 l 52 0 z "},"Ĺ":{"ha":793,"x_min":52,"x_max":727,"o":"m 52 0 m 52 0 l 677 0 l 707 155 l 252 155 l 403 955 l 238 955 l 52 0 m 727 1151 l 330 1007 l 278 1113 l 668 1295 l 727 1151 z "},"Ľ":{"ha":793,"x_min":52,"x_max":759,"o":"m 450 717 l 578 717 l 759 1040 l 580 1040 l 450 717 m 52 0 l 677 0 l 707 155 l 252 155 l 403 955 l 238 955 l 52 0 z "},"Ļ":{"ha":793,"x_min":52,"x_max":707,"o":"m 52 0 m 52 0 l 677 0 l 707 155 l 252 155 l 403 955 l 238 955 l 52 0 m 149 -394 l 269 -394 l 441 -89 l 271 -89 l 149 -394 z "},"Ł":{"ha":865,"x_min":0,"x_max":778,"o":"m 748 0 l 127 0 l 194 349 l 0 247 l 38 420 l 227 519 l 313 955 l 476 955 l 411 615 l 644 736 l 606 564 l 380 446 l 325 155 l 778 155 l 748 0 z "},"M":{"ha":1248,"x_min":52,"x_max":1196,"o":"m 52 0 l 215 0 l 354 720 l 503 245 l 651 245 l 981 720 l 842 0 l 1010 0 l 1196 955 l 958 955 l 601 432 l 448 955 l 231 955 l 52 0 z "},"N":{"ha":1111,"x_min":52,"x_max":1059,"o":"m 52 0 l 222 0 l 352 727 l 681 0 l 878 0 l 1059 955 l 892 955 l 755 229 l 432 955 l 227 955 l 52 0 z "},"Ń":{"ha":1111,"x_min":52,"x_max":1059,"o":"m 52 0 m 52 0 l 222 0 l 352 727 l 681 0 l 878 0 l 1059 955 l 892 955 l 755 229 l 432 955 l 227 955 l 52 0 m 892 1151 l 495 1007 l 443 1113 l 833 1295 l 892 1151 z "},"Ň":{"ha":1111,"x_min":52,"x_max":1059,"o":"m 965 1231 l 899 1330 l 675 1188 l 517 1332 l 425 1248 l 660 1033 l 965 1231 m 52 0 l 222 0 l 352 727 l 681 0 l 878 0 l 1059 955 l 892 955 l 755 229 l 432 955 l 227 955 l 52 0 z "},"Ņ":{"ha":1111,"x_min":52,"x_max":1059,"o":"m 52 0 m 52 0 l 222 0 l 352 727 l 681 0 l 878 0 l 1059 955 l 892 955 l 755 229 l 432 955 l 227 955 l 52 0 m 245 -377 l 365 -377 l 536 -71 l 366 -71 l 245 -377 z "},"Ñ":{"ha":1111,"x_min":52,"x_max":1059,"o":"m 52 0 m 52 0 l 222 0 l 352 727 l 681 0 l 878 0 l 1059 955 l 892 955 l 755 229 l 432 955 l 227 955 l 52 0 m 601 1247 q 479 1214 531 1247 q 392 1099 427 1181 l 519 1068 q 552 1116 538 1102 q 592 1130 566 1130 q 619 1123 604 1130 q 649 1108 634 1116 q 714 1076 686 1087 q 778 1064 741 1064 q 910 1108 851 1064 q 993 1222 969 1151 l 866 1250 q 851 1225 863 1245 q 824 1193 839 1205 q 790 1181 809 1181 q 717 1208 766 1181 q 653 1237 677 1227 q 601 1247 628 1247 z "},"O":{"ha":1102,"x_min":69,"x_max":1033,"o":"m 1033 559 q 971 278 1033 410 q 786 64 910 146 q 488 -17 663 -17 q 254 39 349 -17 q 115 188 160 95 q 69 387 69 281 q 132 669 69 538 q 319 882 194 800 q 625 964 444 964 q 844 906 752 964 q 984 756 936 849 q 1033 559 1033 663 m 517 135 q 701 196 625 135 q 814 348 776 257 q 852 530 852 439 q 780 732 852 655 q 585 811 708 809 q 402 750 477 811 q 288 598 326 689 q 250 417 250 507 q 316 208 250 281 q 517 135 382 135 z "},"Ó":{"ha":1102,"x_min":69,"x_max":1033,"o":"m 69 0 m 1033 559 q 971 278 1033 410 q 786 64 910 146 q 488 -17 663 -17 q 254 39 349 -17 q 115 188 160 95 q 69 387 69 281 q 132 669 69 538 q 319 882 194 800 q 625 964 444 964 q 844 906 752 964 q 984 756 936 849 q 1033 559 1033 663 m 517 135 q 701 196 625 135 q 814 348 776 257 q 852 530 852 439 q 780 732 852 655 q 585 811 708 809 q 402 750 477 811 q 288 598 326 689 q 250 417 250 507 q 316 208 250 281 q 517 135 382 135 m 845 1151 l 448 1007 l 396 1113 l 786 1295 l 845 1151 z "},"Ŏ":{"ha":1102,"x_min":69,"x_max":1033,"o":"m 69 0 m 1033 559 q 971 278 1033 410 q 786 64 910 146 q 488 -17 663 -17 q 254 39 349 -17 q 115 188 160 95 q 69 387 69 281 q 132 669 69 538 q 319 882 194 800 q 625 964 444 964 q 844 906 752 964 q 984 756 936 849 q 1033 559 1033 663 m 517 135 q 701 196 625 135 q 814 348 776 257 q 852 530 852 439 q 780 732 852 655 q 585 811 708 809 q 402 750 477 811 q 288 598 326 689 q 250 417 250 507 q 316 208 250 281 q 517 135 382 135 m 635 1045 q 803 1093 740 1045 q 910 1222 866 1141 l 802 1278 q 759 1218 774 1238 q 715 1182 743 1198 q 646 1167 688 1167 q 530 1281 564 1167 l 420 1233 q 491 1101 439 1156 q 635 1045 543 1045 z "},"Ô":{"ha":1102,"x_min":69,"x_max":1033,"o":"m 69 0 m 1033 559 q 971 278 1033 410 q 786 64 910 146 q 488 -17 663 -17 q 254 39 349 -17 q 115 188 160 95 q 69 387 69 281 q 132 669 69 538 q 319 882 194 800 q 625 964 444 964 q 844 906 752 964 q 984 756 936 849 q 1033 559 1033 663 m 517 135 q 701 196 625 135 q 814 348 776 257 q 852 530 852 439 q 780 732 852 655 q 585 811 708 809 q 402 750 477 811 q 288 598 326 689 q 250 417 250 507 q 316 208 250 281 q 517 135 382 135 m 380 1132 l 446 1033 l 670 1175 l 828 1031 l 920 1115 l 686 1330 l 380 1132 z "},"Ö":{"ha":1102,"x_min":69,"x_max":1033,"o":"m 69 0 m 1033 559 q 971 278 1033 410 q 786 64 910 146 q 488 -17 663 -17 q 254 39 349 -17 q 115 188 160 95 q 69 387 69 281 q 132 669 69 538 q 319 882 194 800 q 625 964 444 964 q 844 906 752 964 q 984 756 936 849 q 1033 559 1033 663 m 517 135 q 701 196 625 135 q 814 348 776 257 q 852 530 852 439 q 780 732 852 655 q 585 811 708 809 q 402 750 477 811 q 288 598 326 689 q 250 417 250 507 q 316 208 250 281 q 517 135 382 135 m 500 1064 q 444 1087 465 1064 q 422 1144 422 1109 q 451 1208 422 1181 q 517 1236 479 1236 q 572 1214 550 1236 q 594 1158 594 1193 q 566 1092 594 1120 q 500 1064 538 1064 m 773 1064 q 716 1087 738 1064 q 694 1144 694 1109 q 723 1208 694 1181 q 790 1236 752 1236 q 845 1214 823 1236 q 866 1158 866 1193 q 839 1092 866 1120 q 773 1064 811 1064 z "},"Ò":{"ha":1102,"x_min":69,"x_max":1033,"o":"m 69 0 m 1033 559 q 971 278 1033 410 q 786 64 910 146 q 488 -17 663 -17 q 254 39 349 -17 q 115 188 160 95 q 69 387 69 281 q 132 669 69 538 q 319 882 194 800 q 625 964 444 964 q 844 906 752 964 q 984 756 936 849 q 1033 559 1033 663 m 517 135 q 701 196 625 135 q 814 348 776 257 q 852 530 852 439 q 780 732 852 655 q 585 811 708 809 q 402 750 477 811 q 288 598 326 689 q 250 417 250 507 q 316 208 250 281 q 517 135 382 135 m 455 1160 l 538 1290 l 892 1104 l 823 1007 l 455 1160 z "},"Ő":{"ha":1102,"x_min":69,"x_max":1123,"o":"m 686 1151 l 288 1007 l 236 1113 l 627 1295 l 686 1151 m 1123 1151 l 726 1007 l 674 1113 l 1064 1295 l 1123 1151 m 1033 559 q 971 278 1033 410 q 786 64 910 146 q 488 -17 663 -17 q 254 39 349 -17 q 115 188 160 95 q 69 387 69 281 q 132 669 69 538 q 319 882 194 800 q 625 964 444 964 q 844 906 752 964 q 984 756 936 849 q 1033 559 1033 663 m 517 135 q 701 196 625 135 q 814 348 776 257 q 852 530 852 439 q 780 732 852 655 q 585 811 708 809 q 402 750 477 811 q 288 598 326 689 q 250 417 250 507 q 316 208 250 281 q 517 135 382 135 z "},"Ō":{"ha":1102,"x_min":69,"x_max":1033,"o":"m 69 0 m 1033 559 q 971 278 1033 410 q 786 64 910 146 q 488 -17 663 -17 q 254 39 349 -17 q 115 188 160 95 q 69 387 69 281 q 132 669 69 538 q 319 882 194 800 q 625 964 444 964 q 844 906 752 964 q 984 756 936 849 q 1033 559 1033 663 m 517 135 q 701 196 625 135 q 814 348 776 257 q 852 530 852 439 q 780 732 852 655 q 585 811 708 809 q 402 750 477 811 q 288 598 326 689 q 250 417 250 507 q 316 208 250 281 q 517 135 382 135 m 424 1085 l 875 1085 l 899 1203 l 448 1203 l 424 1085 z "},"Ø":{"ha":1179,"x_min":-21,"x_max":1200,"o":"m 1031 743 q 1073 559 1073 656 q 1011 278 1073 410 q 826 64 950 146 q 528 -17 703 -17 q 222 95 332 -17 l 69 -28 l -21 97 l 139 224 q 109 387 109 297 q 172 669 109 538 q 359 882 234 800 q 665 964 484 964 q 941 865 830 964 l 1106 997 l 1200 878 l 1031 743 m 290 417 q 295 349 290 380 l 799 752 q 625 811 729 811 q 442 750 517 811 q 328 598 366 689 q 290 417 290 507 m 892 530 q 880 622 892 573 l 359 205 q 557 135 425 135 q 740 196 665 135 q 854 348 816 257 q 892 530 892 439 z "},"Õ":{"ha":1102,"x_min":69,"x_max":1033,"o":"m 69 0 m 1033 559 q 971 278 1033 410 q 786 64 910 146 q 488 -17 663 -17 q 254 39 349 -17 q 115 188 160 95 q 69 387 69 281 q 132 669 69 538 q 319 882 194 800 q 625 964 444 964 q 844 906 752 964 q 984 756 936 849 q 1033 559 1033 663 m 517 135 q 701 196 625 135 q 814 348 776 257 q 852 530 852 439 q 780 732 852 655 q 585 811 708 809 q 402 750 477 811 q 288 598 326 689 q 250 417 250 507 q 316 208 250 281 q 517 135 382 135 m 554 1247 q 432 1214 484 1247 q 345 1099 380 1181 l 472 1068 q 505 1116 491 1102 q 545 1130 519 1130 q 572 1123 557 1130 q 602 1108 587 1116 q 667 1076 639 1087 q 731 1064 694 1064 q 863 1108 804 1064 q 946 1222 922 1151 l 819 1250 q 804 1225 816 1245 q 777 1193 792 1205 q 743 1181 762 1181 q 670 1208 719 1181 q 606 1237 630 1227 q 554 1247 582 1247 z "},"Œ":{"ha":1410,"x_min":69,"x_max":1358,"o":"m 688 955 q 324 872 462 955 q 128 662 186 788 q 69 401 69 536 q 201 91 69 182 q 578 0 332 0 l 1189 0 l 1219 155 l 780 155 l 830 408 l 1205 408 l 1234 563 l 859 563 l 906 802 l 1328 802 l 1358 955 l 688 955 m 613 155 l 533 155 q 317 219 396 155 q 238 401 238 283 q 280 601 238 510 q 413 747 321 691 q 646 802 505 802 l 740 802 l 613 155 z "},"P":{"ha":941,"x_min":52,"x_max":898,"o":"m 52 0 l 222 0 l 290 368 l 396 366 q 774 451 651 368 q 898 712 898 533 q 789 900 898 845 q 538 955 681 955 l 238 955 l 52 0 m 498 802 q 658 777 599 802 q 717 684 717 752 q 651 561 717 597 q 434 524 585 524 l 330 524 l 378 802 l 498 802 z "},"Þ":{"ha":960,"x_min":52,"x_max":906,"o":"m 408 955 l 238 955 l 52 0 l 222 0 l 259 182 l 385 182 q 772 254 637 182 q 906 517 906 326 q 803 722 906 665 q 509 780 700 780 l 373 780 l 408 955 m 477 625 q 605 619 556 625 q 688 588 655 613 q 722 509 722 563 q 694 399 722 436 q 607 350 667 363 q 434 337 547 337 l 288 337 l 344 625 l 477 625 z "},"Q":{"ha":1102,"x_min":69,"x_max":1033,"o":"m 1033 559 q 996 336 1033 443 q 885 149 958 229 l 972 50 l 849 -50 l 762 49 q 488 -17 641 -17 q 254 39 349 -17 q 115 188 160 95 q 69 387 69 281 q 132 669 69 538 q 319 882 194 800 q 625 964 444 964 q 844 906 752 964 q 984 756 936 849 q 1033 559 1033 663 m 517 135 q 656 168 594 135 l 509 337 l 628 439 l 774 274 q 832 398 813 330 q 852 530 852 465 q 780 732 852 655 q 585 811 708 809 q 402 750 477 811 q 288 598 326 689 q 250 417 250 507 q 316 208 250 281 q 517 135 382 135 z "},"R":{"ha":967,"x_min":52,"x_max":898,"o":"m 52 0 l 222 0 l 290 373 q 361 370 342 370 q 453 372 427 370 l 599 0 l 786 0 l 622 394 q 898 701 898 483 q 793 897 898 839 q 556 955 689 955 l 238 955 l 52 0 m 498 802 q 658 777 599 802 q 717 686 717 752 q 645 560 717 597 q 417 523 573 523 q 330 528 359 523 l 378 802 l 498 802 z "},"Ŕ":{"ha":967,"x_min":52,"x_max":898,"o":"m 52 0 m 52 0 l 222 0 l 290 373 q 361 370 342 370 q 453 372 427 370 l 599 0 l 786 0 l 622 394 q 898 701 898 483 q 793 897 898 839 q 556 955 689 955 l 238 955 l 52 0 m 498 802 q 658 777 599 802 q 717 686 717 752 q 645 560 717 597 q 417 523 573 523 q 330 528 359 523 l 378 802 l 498 802 m 759 1151 l 361 1007 l 309 1113 l 700 1295 l 759 1151 z "},"Ř":{"ha":967,"x_min":52,"x_max":898,"o":"m 52 0 m 52 0 l 222 0 l 290 373 q 361 370 342 370 q 453 372 427 370 l 599 0 l 786 0 l 622 394 q 898 701 898 483 q 793 897 898 839 q 556 955 689 955 l 238 955 l 52 0 m 498 802 q 658 777 599 802 q 717 686 717 752 q 645 560 717 597 q 417 523 573 523 q 330 528 359 523 l 378 802 l 498 802 m 861 1231 l 795 1330 l 571 1188 l 413 1332 l 321 1248 l 556 1033 l 861 1231 z "},"Ŗ":{"ha":967,"x_min":52,"x_max":898,"o":"m 52 0 m 52 0 l 222 0 l 290 373 q 361 370 342 370 q 453 372 427 370 l 599 0 l 786 0 l 622 394 q 898 701 898 483 q 793 897 898 839 q 556 955 689 955 l 238 955 l 52 0 m 498 802 q 658 777 599 802 q 717 686 717 752 q 645 560 717 597 q 417 523 573 523 q 330 528 359 523 l 378 802 l 498 802 m 200 -394 l 319 -394 l 491 -89 l 321 -89 l 200 -394 z "},"S":{"ha":936,"x_min":35,"x_max":892,"o":"m 571 804 q 688 790 634 804 q 804 750 743 776 l 892 899 q 769 944 835 925 q 615 964 703 964 q 375 919 470 964 q 234 803 280 875 q 188 649 188 731 q 225 536 188 582 q 313 464 262 490 q 450 405 365 438 q 582 345 540 370 q 625 276 623 319 q 604 216 632 247 q 522 167 576 186 q 394 148 467 148 q 273 160 335 148 q 118 210 210 172 l 35 59 q 368 -16 198 -16 q 636 34 538 -16 q 772 154 734 83 q 809 297 809 224 q 771 409 809 363 q 679 484 733 455 q 542 545 625 512 q 411 608 453 580 q 368 677 368 635 q 422 765 368 726 q 571 804 476 804 z "},"Ś":{"ha":936,"x_min":35,"x_max":892,"o":"m 35 0 m 571 804 q 688 790 634 804 q 804 750 743 776 l 892 899 q 769 944 835 925 q 615 964 703 964 q 375 919 470 964 q 234 803 280 875 q 188 649 188 731 q 225 536 188 582 q 313 464 262 490 q 450 405 365 438 q 582 345 540 370 q 625 276 623 319 q 604 216 632 247 q 522 167 576 186 q 394 148 467 148 q 273 160 335 148 q 118 210 210 172 l 35 59 q 368 -16 198 -16 q 636 34 538 -16 q 772 154 734 83 q 809 297 809 224 q 771 409 809 363 q 679 484 733 455 q 542 545 625 512 q 411 608 453 580 q 368 677 368 635 q 422 765 368 726 q 571 804 476 804 m 826 1151 l 429 1007 l 377 1113 l 767 1295 l 826 1151 z "},"Š":{"ha":936,"x_min":35,"x_max":929,"o":"m 35 0 m 571 804 q 688 790 634 804 q 804 750 743 776 l 892 899 q 769 944 835 925 q 615 964 703 964 q 375 919 470 964 q 234 803 280 875 q 188 649 188 731 q 225 536 188 582 q 313 464 262 490 q 450 405 365 438 q 582 345 540 370 q 625 276 623 319 q 604 216 632 247 q 522 167 576 186 q 394 148 467 148 q 273 160 335 148 q 118 210 210 172 l 35 59 q 368 -16 198 -16 q 636 34 538 -16 q 772 154 734 83 q 809 297 809 224 q 771 409 809 363 q 679 484 733 455 q 542 545 625 512 q 411 608 453 580 q 368 677 368 635 q 422 765 368 726 q 571 804 476 804 m 929 1231 l 863 1330 l 639 1188 l 481 1332 l 389 1248 l 623 1033 l 929 1231 z "},"Ş":{"ha":936,"x_min":35,"x_max":892,"o":"m 368 677 q 411 608 368 635 q 542 545 453 580 q 679 484 625 512 q 771 409 733 455 q 809 297 809 363 q 723 91 809 184 q 422 -14 637 -2 l 398 -76 q 486 -129 462 -99 q 510 -203 510 -160 q 460 -316 510 -267 q 318 -365 410 -365 q 149 -332 243 -365 l 198 -215 l 274 -234 q 340 -245 325 -245 q 372 -222 372 -245 q 359 -200 372 -208 q 311 -179 347 -191 l 238 -156 l 293 -12 q 35 59 165 0 l 118 210 q 273 160 210 172 q 394 148 335 148 q 522 167 467 148 q 604 216 576 186 q 625 276 632 247 q 582 345 623 319 q 450 405 540 370 q 313 464 365 438 q 225 536 262 490 q 188 649 188 582 q 234 803 188 731 q 375 919 280 875 q 615 964 470 964 q 769 944 703 964 q 892 899 835 925 l 804 750 q 688 790 743 776 q 571 804 634 804 q 422 765 476 804 q 368 677 368 726 z "},"Ș":{"ha":936,"x_min":35,"x_max":892,"o":"m 35 0 m 571 804 q 688 790 634 804 q 804 750 743 776 l 892 899 q 769 944 835 925 q 615 964 703 964 q 375 919 470 964 q 234 803 280 875 q 188 649 188 731 q 225 536 188 582 q 313 464 262 490 q 450 405 365 438 q 582 345 540 370 q 625 276 623 319 q 604 216 632 247 q 522 167 576 186 q 394 148 467 148 q 273 160 335 148 q 118 210 210 172 l 35 59 q 368 -16 198 -16 q 636 34 538 -16 q 772 154 734 83 q 809 297 809 224 q 771 409 809 363 q 679 484 733 455 q 542 545 625 512 q 411 608 453 580 q 368 677 368 635 q 422 765 368 726 q 571 804 476 804 m 132 -394 l 252 -394 l 424 -89 l 253 -89 l 132 -394 z "},"T":{"ha":849,"x_min":87,"x_max":901,"o":"m 87 802 l 399 802 l 243 0 l 413 0 l 569 802 l 872 802 l 901 955 l 116 955 l 87 802 z "},"Ť":{"ha":849,"x_min":87,"x_max":901,"o":"m 87 0 m 87 802 l 399 802 l 243 0 l 413 0 l 569 802 l 872 802 l 901 955 l 116 955 l 87 802 m 830 1231 l 764 1330 l 540 1188 l 382 1332 l 290 1248 l 524 1033 l 830 1231 z "},"Ţ":{"ha":849,"x_min":87,"x_max":901,"o":"m 872 802 l 569 802 l 413 0 l 384 -76 q 472 -129 448 -99 q 497 -203 497 -160 q 446 -316 497 -267 q 304 -365 396 -365 q 210 -356 255 -365 q 104 -325 165 -347 l 149 -207 l 260 -234 q 326 -245 309 -245 q 358 -222 358 -245 q 345 -199 358 -208 q 297 -179 333 -189 l 186 -148 l 243 0 l 399 802 l 87 802 l 116 955 l 901 955 l 872 802 z "},"Ț":{"ha":849,"x_min":87,"x_max":901,"o":"m 87 0 m 87 802 l 399 802 l 243 0 l 413 0 l 569 802 l 872 802 l 901 955 l 116 955 l 87 802 m 109 -394 l 229 -394 l 401 -89 l 231 -89 l 109 -394 z "},"U":{"ha":1031,"x_min":82,"x_max":988,"o":"m 415 -16 q 694 46 597 -16 q 820 179 790 108 q 870 351 851 250 l 988 955 l 818 955 l 700 349 q 615 193 679 243 q 424 142 552 142 q 290 179 328 142 q 252 285 252 215 q 259 359 252 325 l 375 955 l 207 955 l 90 358 q 82 269 82 318 q 155 68 82 151 q 415 -16 227 -16 z "},"Ú":{"ha":1031,"x_min":82,"x_max":988,"o":"m 903 1151 l 505 1007 l 453 1113 l 844 1295 l 903 1151 m 415 -16 q 694 46 597 -16 q 820 179 790 108 q 870 351 851 250 l 988 955 l 818 955 l 700 349 q 615 193 679 243 q 424 142 552 142 q 290 179 328 142 q 252 285 252 215 q 259 359 252 325 l 375 955 l 207 955 l 90 358 q 82 269 82 318 q 155 68 82 151 q 415 -16 227 -16 z "},"Ŭ":{"ha":1031,"x_min":82,"x_max":988,"o":"m 82 0 m 415 -16 q 694 46 597 -16 q 820 179 790 108 q 870 351 851 250 l 988 955 l 818 955 l 700 349 q 615 193 679 243 q 424 142 552 142 q 290 179 328 142 q 252 285 252 215 q 259 359 252 325 l 375 955 l 207 955 l 90 358 q 82 269 82 318 q 155 68 82 151 q 415 -16 227 -16 m 608 1045 q 775 1093 712 1045 q 882 1222 839 1141 l 774 1278 q 731 1218 747 1238 q 688 1182 715 1198 q 618 1167 660 1167 q 502 1281 536 1167 l 392 1233 q 464 1101 411 1156 q 608 1045 516 1045 z "},"Û":{"ha":1031,"x_min":82,"x_max":988,"o":"m 82 0 m 415 -16 q 694 46 597 -16 q 820 179 790 108 q 870 351 851 250 l 988 955 l 818 955 l 700 349 q 615 193 679 243 q 424 142 552 142 q 290 179 328 142 q 252 285 252 215 q 259 359 252 325 l 375 955 l 207 955 l 90 358 q 82 269 82 318 q 155 68 82 151 q 415 -16 227 -16 m 352 1132 l 418 1033 l 642 1175 l 800 1031 l 892 1115 l 658 1330 l 352 1132 z "},"Ü":{"ha":1031,"x_min":82,"x_max":988,"o":"m 82 0 m 415 -16 q 694 46 597 -16 q 820 179 790 108 q 870 351 851 250 l 988 955 l 818 955 l 700 349 q 615 193 679 243 q 424 142 552 142 q 290 179 328 142 q 252 285 252 215 q 259 359 252 325 l 375 955 l 207 955 l 90 358 q 82 269 82 318 q 155 68 82 151 q 415 -16 227 -16 m 472 1064 q 416 1087 438 1064 q 394 1144 394 1109 q 423 1208 394 1181 q 490 1236 451 1236 q 544 1214 523 1236 q 566 1158 566 1193 q 538 1092 566 1120 q 472 1064 510 1064 m 745 1064 q 688 1087 710 1064 q 667 1144 667 1109 q 695 1208 667 1181 q 762 1236 724 1236 q 817 1214 795 1236 q 839 1158 839 1193 q 811 1092 839 1120 q 745 1064 783 1064 z "},"Ù":{"ha":1031,"x_min":82,"x_max":988,"o":"m 356 1160 l 439 1290 l 793 1104 l 724 1007 l 356 1160 m 415 -16 q 694 46 597 -16 q 820 179 790 108 q 870 351 851 250 l 988 955 l 818 955 l 700 349 q 615 193 679 243 q 424 142 552 142 q 290 179 328 142 q 252 285 252 215 q 259 359 252 325 l 375 955 l 207 955 l 90 358 q 82 269 82 318 q 155 68 82 151 q 415 -16 227 -16 z "},"Ű":{"ha":1031,"x_min":82,"x_max":1095,"o":"m 658 1151 l 260 1007 l 208 1113 l 599 1295 l 658 1151 m 1095 1151 l 698 1007 l 646 1113 l 1036 1295 l 1095 1151 m 415 -16 q 694 46 597 -16 q 820 179 790 108 q 870 351 851 250 l 988 955 l 818 955 l 700 349 q 615 193 679 243 q 424 142 552 142 q 290 179 328 142 q 252 285 252 215 q 259 359 252 325 l 375 955 l 207 955 l 90 358 q 82 269 82 318 q 155 68 82 151 q 415 -16 227 -16 z "},"Ū":{"ha":1031,"x_min":82,"x_max":988,"o":"m 82 0 m 415 -16 q 694 46 597 -16 q 820 179 790 108 q 870 351 851 250 l 988 955 l 818 955 l 700 349 q 615 193 679 243 q 424 142 552 142 q 290 179 328 142 q 252 285 252 215 q 259 359 252 325 l 375 955 l 207 955 l 90 358 q 82 269 82 318 q 155 68 82 151 q 415 -16 227 -16 m 396 1085 l 847 1085 l 872 1203 l 420 1203 l 396 1085 z "},"Ų":{"ha":997,"x_min":47,"x_max":953,"o":"m 835 351 q 801 234 823 285 q 725 125 780 182 q 569 14 670 68 q 412 -74 465 -40 q 351 -148 359 -108 q 349 -168 349 -155 q 370 -220 349 -201 q 429 -240 391 -240 q 554 -207 469 -240 l 573 -278 q 457 -329 512 -311 q 333 -347 401 -347 q 217 -312 260 -347 q 174 -222 174 -276 q 175 -198 174 -207 q 227 -96 186 -141 q 339 -14 269 -52 q 111 77 175 -3 q 47 267 47 158 q 56 358 47 318 l 172 955 l 340 955 l 224 359 q 217 285 217 325 q 255 179 217 215 q 389 142 293 142 q 581 193 517 142 q 665 349 644 243 l 783 955 l 953 955 l 835 351 z "},"Ů":{"ha":1031,"x_min":82,"x_max":988,"o":"m 82 0 m 415 -16 q 694 46 597 -16 q 820 179 790 108 q 870 351 851 250 l 988 955 l 818 955 l 700 349 q 615 193 679 243 q 424 142 552 142 q 290 179 328 142 q 252 285 252 215 q 259 359 252 325 l 375 955 l 207 955 l 90 358 q 82 269 82 318 q 155 68 82 151 q 415 -16 227 -16 m 821 1234 q 779 1340 821 1300 q 674 1380 736 1380 q 515 1318 568 1380 q 462 1167 462 1255 q 505 1065 462 1106 q 611 1024 549 1024 q 766 1087 712 1024 q 821 1234 821 1149 m 648 1273 q 692 1256 677 1273 q 707 1212 707 1240 q 705 1191 707 1198 q 681 1151 701 1168 q 637 1134 661 1134 q 575 1194 575 1134 q 576 1215 575 1208 q 601 1255 580 1238 q 648 1273 622 1273 z "},"Ũ":{"ha":1031,"x_min":82,"x_max":988,"o":"m 82 0 m 415 -16 q 694 46 597 -16 q 820 179 790 108 q 870 351 851 250 l 988 955 l 818 955 l 700 349 q 615 193 679 243 q 424 142 552 142 q 290 179 328 142 q 252 285 252 215 q 259 359 252 325 l 375 955 l 207 955 l 90 358 q 82 269 82 318 q 155 68 82 151 q 415 -16 227 -16 m 526 1247 q 405 1214 457 1247 q 318 1099 352 1181 l 444 1068 q 477 1116 464 1102 q 517 1130 491 1130 q 544 1123 530 1130 q 575 1108 559 1116 q 639 1076 611 1087 q 703 1064 667 1064 q 835 1108 776 1064 q 918 1222 894 1151 l 792 1250 q 776 1225 788 1245 q 749 1193 764 1205 q 715 1181 734 1181 q 642 1208 691 1181 q 578 1237 602 1227 q 526 1247 554 1247 z "},"V":{"ha":950,"x_min":125,"x_max":984,"o":"m 285 0 l 498 0 l 984 955 l 806 955 l 417 182 l 299 955 l 125 955 l 285 0 z "},"W":{"ha":1497,"x_min":125,"x_max":1531,"o":"m 229 0 l 405 0 l 774 734 l 835 0 l 1030 0 l 1531 955 l 1352 955 l 970 222 l 908 955 l 710 955 l 358 222 l 293 955 l 125 955 l 229 0 z "},"X":{"ha":976,"x_min":-35,"x_max":1010,"o":"m 863 0 l 670 0 l 495 366 l 175 2 l -35 2 l 420 521 l 210 955 l 396 955 l 540 658 l 800 955 l 1010 955 l 616 505 l 863 0 z "},"Y":{"ha":899,"x_min":95,"x_max":960,"o":"m 330 432 l 248 0 l 418 0 l 498 420 l 960 955 l 773 955 l 443 585 l 269 955 l 95 955 l 330 432 z "},"Ý":{"ha":899,"x_min":95,"x_max":960,"o":"m 757 1151 l 359 1007 l 307 1113 l 698 1295 l 757 1151 m 330 432 l 248 0 l 418 0 l 498 420 l 960 955 l 773 955 l 443 585 l 269 955 l 95 955 l 330 432 z "},"Ŷ":{"ha":899,"x_min":95,"x_max":960,"o":"m 95 0 m 330 432 l 248 0 l 418 0 l 498 420 l 960 955 l 773 955 l 443 585 l 269 955 l 95 955 l 330 432 m 253 1132 l 319 1033 l 543 1175 l 701 1031 l 793 1115 l 559 1330 l 253 1132 z "},"Ÿ":{"ha":899,"x_min":95,"x_max":960,"o":"m 95 0 m 330 432 l 248 0 l 418 0 l 498 420 l 960 955 l 773 955 l 443 585 l 269 955 l 95 955 l 330 432 m 373 1064 q 317 1087 339 1064 q 295 1144 295 1109 q 324 1208 295 1181 q 391 1236 352 1236 q 445 1214 424 1236 q 467 1158 467 1193 q 439 1092 467 1120 q 373 1064 411 1064 m 646 1064 q 589 1087 611 1064 q 568 1144 568 1109 q 596 1208 568 1181 q 663 1236 625 1236 q 718 1214 696 1236 q 740 1158 740 1193 q 712 1092 740 1120 q 646 1064 684 1064 z "},"Z":{"ha":951,"x_min":35,"x_max":917,"o":"m 201 802 l 653 802 l 35 106 l 35 0 l 755 0 l 785 149 l 281 149 l 917 852 l 917 955 l 231 955 l 201 802 z "},"Ź":{"ha":951,"x_min":35,"x_max":917,"o":"m 35 0 m 201 802 l 653 802 l 35 106 l 35 0 l 755 0 l 785 149 l 281 149 l 917 852 l 917 955 l 231 955 l 201 802 m 806 1151 l 408 1007 l 356 1113 l 747 1295 l 806 1151 z "},"Ž":{"ha":951,"x_min":35,"x_max":917,"o":"m 35 0 m 201 802 l 653 802 l 35 106 l 35 0 l 755 0 l 785 149 l 281 149 l 917 852 l 917 955 l 231 955 l 201 802 m 908 1231 l 842 1330 l 618 1188 l 460 1332 l 368 1248 l 602 1033 l 908 1231 z "},"Ż":{"ha":951,"x_min":35,"x_max":917,"o":"m 35 0 m 201 802 l 653 802 l 35 106 l 35 0 l 755 0 l 785 149 l 281 149 l 917 852 l 917 955 l 231 955 l 201 802 m 606 1056 q 539 1082 564 1056 q 514 1151 514 1109 q 548 1234 514 1201 q 630 1267 582 1267 q 698 1240 672 1267 q 724 1172 724 1214 q 689 1090 724 1125 q 606 1056 655 1056 z "},"a":{"ha":729,"x_min":50,"x_max":670,"o":"m 424 677 q 294 662 365 677 q 170 632 224 648 l 165 521 q 366 552 286 552 q 475 530 443 552 q 507 455 507 507 q 500 398 507 443 l 373 398 q 128 327 205 398 q 50 151 50 257 q 103 33 50 82 q 247 -16 156 -16 q 455 54 356 -16 l 462 0 l 595 0 l 661 396 q 670 481 670 444 q 615 626 670 575 q 424 677 559 677 m 464 141 q 395 116 425 123 q 316 109 365 109 q 244 130 269 109 q 219 188 219 151 q 253 262 219 234 q 361 290 286 290 l 486 290 l 464 141 z "},"á":{"ha":729,"x_min":50,"x_max":670,"o":"m 50 0 m 424 677 q 294 662 365 677 q 170 632 224 648 l 165 521 q 366 552 286 552 q 475 530 443 552 q 507 455 507 507 q 500 398 507 443 l 373 398 q 128 327 205 398 q 50 151 50 257 q 103 33 50 82 q 247 -16 156 -16 q 455 54 356 -16 l 462 0 l 595 0 l 661 396 q 670 481 670 444 q 615 626 670 575 q 424 677 559 677 m 464 141 q 395 116 425 123 q 316 109 365 109 q 244 130 269 109 q 219 188 219 151 q 253 262 219 234 q 361 290 286 290 l 486 290 l 464 141 m 293 726 l 663 972 l 582 1094 l 219 821 l 293 726 z "},"ă":{"ha":729,"x_min":50,"x_max":724,"o":"m 50 0 m 424 677 q 294 662 365 677 q 170 632 224 648 l 165 521 q 366 552 286 552 q 475 530 443 552 q 507 455 507 507 q 500 398 507 443 l 373 398 q 128 327 205 398 q 50 151 50 257 q 103 33 50 82 q 247 -16 156 -16 q 455 54 356 -16 l 462 0 l 595 0 l 661 396 q 670 481 670 444 q 615 626 670 575 q 424 677 559 677 m 464 141 q 395 116 425 123 q 316 109 365 109 q 244 130 269 109 q 219 188 219 151 q 253 262 219 234 q 361 290 286 290 l 486 290 l 464 141 m 450 764 q 617 812 554 764 q 724 941 681 859 l 616 997 q 573 937 589 957 q 530 901 557 917 q 460 885 502 885 q 344 1000 378 885 l 234 951 q 306 819 253 875 q 450 764 358 764 z "},"ǎ":{"ha":729,"x_min":50,"x_max":720,"o":"m 50 0 m 424 677 q 294 662 365 677 q 170 632 224 648 l 165 521 q 366 552 286 552 q 475 530 443 552 q 507 455 507 507 q 500 398 507 443 l 373 398 q 128 327 205 398 q 50 151 50 257 q 103 33 50 82 q 247 -16 156 -16 q 455 54 356 -16 l 462 0 l 595 0 l 661 396 q 670 481 670 444 q 615 626 670 575 q 424 677 559 677 m 464 141 q 395 116 425 123 q 316 109 365 109 q 244 130 269 109 q 219 188 219 151 q 253 262 219 234 q 361 290 286 290 l 486 290 l 464 141 m 318 1104 l 224 1028 l 431 743 l 720 1007 l 648 1101 l 450 927 l 318 1104 z "},"â":{"ha":729,"x_min":50,"x_max":708,"o":"m 50 0 m 424 677 q 294 662 365 677 q 170 632 224 648 l 165 521 q 366 552 286 552 q 475 530 443 552 q 507 455 507 507 q 500 398 507 443 l 373 398 q 128 327 205 398 q 50 151 50 257 q 103 33 50 82 q 247 -16 156 -16 q 455 54 356 -16 l 462 0 l 595 0 l 661 396 q 670 481 670 444 q 615 626 670 575 q 424 677 559 677 m 464 141 q 395 116 425 123 q 316 109 365 109 q 244 130 269 109 q 219 188 219 151 q 253 262 219 234 q 361 290 286 290 l 486 290 l 464 141 m 615 743 l 708 819 l 502 1104 l 212 840 l 285 747 l 483 920 l 615 743 z "},"ä":{"ha":729,"x_min":50,"x_max":670,"o":"m 50 0 m 424 677 q 294 662 365 677 q 170 632 224 648 l 165 521 q 366 552 286 552 q 475 530 443 552 q 507 455 507 507 q 500 398 507 443 l 373 398 q 128 327 205 398 q 50 151 50 257 q 103 33 50 82 q 247 -16 156 -16 q 455 54 356 -16 l 462 0 l 595 0 l 661 396 q 670 481 670 444 q 615 626 670 575 q 424 677 559 677 m 464 141 q 395 116 425 123 q 316 109 365 109 q 244 130 269 109 q 219 188 219 151 q 253 262 219 234 q 361 290 286 290 l 486 290 l 464 141 m 295 773 q 240 795 262 773 q 217 851 217 818 q 219 872 217 865 q 251 923 224 901 q 311 944 278 944 q 365 923 344 944 q 387 866 387 901 q 360 800 387 828 q 295 773 333 773 m 568 773 q 512 795 535 773 q 490 851 490 818 q 491 872 490 865 q 523 923 497 901 q 583 944 550 944 q 638 923 616 944 q 660 866 660 901 q 633 800 660 828 q 568 773 606 773 z "},"à":{"ha":729,"x_min":50,"x_max":670,"o":"m 50 0 m 424 677 q 294 662 365 677 q 170 632 224 648 l 165 521 q 366 552 286 552 q 475 530 443 552 q 507 455 507 507 q 500 398 507 443 l 373 398 q 128 327 205 398 q 50 151 50 257 q 103 33 50 82 q 247 -16 156 -16 q 455 54 356 -16 l 462 0 l 595 0 l 661 396 q 670 481 670 444 q 615 626 670 575 q 424 677 559 677 m 464 141 q 395 116 425 123 q 316 109 365 109 q 244 130 269 109 q 219 188 219 151 q 253 262 219 234 q 361 290 286 290 l 486 290 l 464 141 m 564 726 l 651 804 l 398 1094 l 283 990 l 564 726 z "},"ā":{"ha":729,"x_min":50,"x_max":670,"o":"m 50 0 m 424 677 q 294 662 365 677 q 170 632 224 648 l 165 521 q 366 552 286 552 q 475 530 443 552 q 507 455 507 507 q 500 398 507 443 l 373 398 q 128 327 205 398 q 50 151 50 257 q 103 33 50 82 q 247 -16 156 -16 q 455 54 356 -16 l 462 0 l 595 0 l 661 396 q 670 481 670 444 q 615 626 670 575 q 424 677 559 677 m 464 141 q 395 116 425 123 q 316 109 365 109 q 244 130 269 109 q 219 188 219 151 q 253 262 219 234 q 361 290 286 290 l 486 290 l 464 141 m 205 776 l 642 776 l 665 894 l 227 894 l 205 776 z "},"ą":{"ha":729,"x_min":50,"x_max":670,"o":"m 595 0 q 439 -84 497 -47 q 373 -163 382 -122 q 372 -182 372 -170 q 391 -227 372 -210 q 444 -243 410 -243 q 573 -200 490 -243 l 599 -271 q 479 -328 531 -309 q 359 -347 427 -347 q 247 -315 290 -347 q 205 -233 205 -283 q 207 -214 205 -220 q 281 -92 222 -137 q 434 -3 340 -47 l 469 12 l 455 54 q 247 -16 356 -16 q 103 33 156 -16 q 50 151 50 82 q 128 327 50 257 q 373 398 205 398 l 500 398 q 507 455 507 443 q 475 530 507 507 q 366 552 443 552 q 165 521 286 552 l 170 632 q 294 662 224 648 q 424 677 365 677 q 615 626 559 677 q 670 481 670 575 q 661 396 670 444 l 595 0 m 361 290 q 253 262 286 290 q 219 188 219 234 q 244 130 219 151 q 316 109 269 109 q 395 116 365 109 q 464 141 425 123 l 486 290 l 361 290 z "},"å":{"ha":729,"x_min":50,"x_max":670,"o":"m 50 0 m 424 677 q 294 662 365 677 q 170 632 224 648 l 165 521 q 366 552 286 552 q 475 530 443 552 q 507 455 507 507 q 500 398 507 443 l 373 398 q 128 327 205 398 q 50 151 50 257 q 103 33 50 82 q 247 -16 156 -16 q 455 54 356 -16 l 462 0 l 595 0 l 661 396 q 670 481 670 444 q 615 626 670 575 q 424 677 559 677 m 464 141 q 395 116 425 123 q 316 109 365 109 q 244 130 269 109 q 219 188 219 151 q 253 262 219 234 q 361 290 286 290 l 486 290 l 464 141 m 648 939 q 605 1045 648 1005 q 500 1085 563 1085 q 341 1023 394 1085 q 288 872 288 960 q 332 770 288 811 q 438 729 375 729 q 593 792 538 729 q 648 939 648 854 m 474 977 q 518 961 503 977 q 533 917 533 944 q 531 896 533 903 q 508 856 528 873 q 464 839 488 839 q 401 899 401 839 q 403 920 401 913 q 427 960 406 943 q 474 977 448 977 z "},"ã":{"ha":729,"x_min":50,"x_max":726,"o":"m 50 0 m 424 677 q 294 662 365 677 q 170 632 224 648 l 165 521 q 366 552 286 552 q 475 530 443 552 q 507 455 507 507 q 500 398 507 443 l 373 398 q 128 327 205 398 q 50 151 50 257 q 103 33 50 82 q 247 -16 156 -16 q 455 54 356 -16 l 462 0 l 595 0 l 661 396 q 670 481 670 444 q 615 626 670 575 q 424 677 559 677 m 464 141 q 395 116 425 123 q 316 109 365 109 q 244 130 269 109 q 219 188 219 151 q 253 262 219 234 q 361 290 286 290 l 486 290 l 464 141 m 333 941 q 212 908 264 941 q 125 793 160 875 l 252 762 q 285 811 271 797 q 325 825 299 825 q 352 818 337 825 q 382 802 366 811 q 446 770 418 781 q 510 759 474 759 q 642 802 583 759 q 726 917 701 845 l 599 944 q 583 919 595 939 q 556 887 571 899 q 523 875 542 875 q 450 903 498 875 q 385 931 410 922 q 333 941 361 941 z "},"æ":{"ha":1134,"x_min":50,"x_max":1083,"o":"m 828 677 q 1017 611 951 677 q 1083 427 1083 545 q 1075 335 1083 377 l 1061 266 l 634 271 q 632 240 632 260 q 674 142 632 170 q 802 115 715 115 q 986 134 906 115 l 986 24 q 736 -17 854 -17 q 622 5 663 -17 q 545 75 582 28 q 411 11 491 38 q 247 -16 330 -16 q 103 33 156 -16 q 50 151 50 82 q 128 327 50 257 q 373 398 205 398 l 500 398 q 507 455 507 443 q 475 530 507 507 q 366 552 443 552 q 165 521 286 552 l 170 632 q 294 662 224 648 q 424 677 365 677 q 545 659 502 677 q 616 604 589 641 q 828 677 708 677 m 925 377 q 931 424 931 403 q 896 515 931 483 q 806 547 861 547 q 709 503 752 547 q 646 377 667 458 l 925 377 m 316 109 q 395 116 365 109 q 464 141 425 123 l 484 285 l 486 290 l 361 290 q 253 262 286 290 q 219 188 219 234 q 244 130 219 151 q 316 109 269 109 z "},"b":{"ha":839,"x_min":64,"x_max":786,"o":"m 64 0 l 181 0 l 207 45 q 297 3 245 21 q 406 -16 349 -16 q 623 48 538 -16 q 747 206 708 111 q 786 394 786 300 q 749 547 786 483 q 651 644 712 611 q 523 677 590 677 q 361 648 432 677 l 417 955 l 250 955 l 64 0 m 448 547 q 568 510 523 547 q 613 391 613 472 q 555 194 613 273 q 377 115 497 115 q 253 146 313 115 l 330 526 q 388 543 361 538 q 448 547 415 547 z "},"c":{"ha":703,"x_min":50,"x_max":703,"o":"m 467 547 q 552 540 516 547 q 630 517 589 533 l 703 627 q 483 677 602 677 q 234 614 332 677 q 94 455 137 550 q 50 262 50 359 q 126 62 50 141 q 330 -17 201 -17 q 478 -3 413 -17 q 609 36 543 12 l 585 153 q 485 124 524 134 q 401 115 446 115 q 274 162 319 115 q 229 288 229 210 q 253 407 229 347 q 332 507 278 467 q 467 547 385 547 z "},"ć":{"ha":703,"x_min":50,"x_max":705,"o":"m 50 0 m 467 547 q 552 540 516 547 q 630 517 589 533 l 703 627 q 483 677 602 677 q 234 614 332 677 q 94 455 137 550 q 50 262 50 359 q 126 62 50 141 q 330 -17 201 -17 q 478 -3 413 -17 q 609 36 543 12 l 585 153 q 485 124 524 134 q 401 115 446 115 q 274 162 319 115 q 229 288 229 210 q 253 407 229 347 q 332 507 278 467 q 467 547 385 547 m 335 726 l 705 972 l 623 1094 l 260 821 l 335 726 z "},"č":{"ha":703,"x_min":50,"x_max":762,"o":"m 50 0 m 467 547 q 552 540 516 547 q 630 517 589 533 l 703 627 q 483 677 602 677 q 234 614 332 677 q 94 455 137 550 q 50 262 50 359 q 126 62 50 141 q 330 -17 201 -17 q 478 -3 413 -17 q 609 36 543 12 l 585 153 q 485 124 524 134 q 401 115 446 115 q 274 162 319 115 q 229 288 229 210 q 253 407 229 347 q 332 507 278 467 q 467 547 385 547 m 359 1104 l 266 1028 l 472 743 l 762 1007 l 689 1101 l 491 927 l 359 1104 z "},"ç":{"ha":703,"x_min":50,"x_max":703,"o":"m 467 547 q 332 507 385 547 q 253 407 278 467 q 229 288 229 347 q 274 162 229 210 q 401 115 319 115 q 485 124 446 115 q 585 153 524 134 l 609 36 q 491 0 545 14 q 368 -16 438 -14 l 345 -76 q 434 -129 410 -99 q 458 -203 458 -160 q 408 -316 458 -267 q 266 -365 358 -365 q 97 -332 191 -365 l 146 -215 l 222 -234 q 288 -245 271 -245 q 319 -222 319 -245 q 306 -200 319 -208 q 259 -179 293 -191 l 186 -156 l 243 -7 q 102 90 153 17 q 50 262 50 163 q 94 455 50 359 q 234 614 137 550 q 483 677 332 677 q 703 627 602 677 l 630 517 q 552 540 589 533 q 467 547 516 547 z "},"ĉ":{"ha":703,"x_min":50,"x_max":750,"o":"m 50 0 m 467 547 q 552 540 516 547 q 630 517 589 533 l 703 627 q 483 677 602 677 q 234 614 332 677 q 94 455 137 550 q 50 262 50 359 q 126 62 50 141 q 330 -17 201 -17 q 478 -3 413 -17 q 609 36 543 12 l 585 153 q 485 124 524 134 q 401 115 446 115 q 274 162 319 115 q 229 288 229 210 q 253 407 229 347 q 332 507 278 467 q 467 547 385 547 m 656 743 l 750 819 l 543 1104 l 253 840 l 326 747 l 524 920 l 656 743 z "},"ċ":{"ha":703,"x_min":50,"x_max":703,"o":"m 50 0 m 467 547 q 552 540 516 547 q 630 517 589 533 l 703 627 q 483 677 602 677 q 234 614 332 677 q 94 455 137 550 q 50 262 50 359 q 126 62 50 141 q 330 -17 201 -17 q 478 -3 413 -17 q 609 36 543 12 l 585 153 q 485 124 524 134 q 401 115 446 115 q 274 162 319 115 q 229 288 229 210 q 253 407 229 347 q 332 507 278 467 q 467 547 385 547 m 479 780 q 412 806 438 780 q 387 875 387 833 q 421 958 387 925 q 503 991 455 991 q 571 964 545 991 q 597 896 597 938 q 563 814 597 849 q 479 780 528 780 z "},"d":{"ha":821,"x_min":52,"x_max":830,"o":"m 613 651 q 534 670 580 663 q 448 677 488 677 q 235 621 325 677 q 99 471 146 564 q 52 273 52 378 q 86 128 52 194 q 182 23 120 63 q 326 -16 245 -16 q 521 40 434 -16 l 528 0 l 649 0 l 830 955 l 668 955 l 613 651 m 460 547 q 592 523 542 547 l 524 144 q 466 122 500 130 q 399 115 432 115 q 274 151 319 115 q 229 280 229 188 q 286 467 229 387 q 460 547 344 547 z "},"ð":{"ha":797,"x_min":52,"x_max":806,"o":"m 691 783 q 741 661 722 734 q 760 507 760 587 q 712 252 760 372 q 566 58 663 132 q 333 -16 469 -16 q 125 60 198 -16 q 52 260 52 135 q 97 443 52 356 q 232 583 142 530 q 448 637 321 637 q 516 630 483 637 q 597 609 549 623 q 564 734 595 682 l 413 681 l 389 785 l 488 821 q 426 859 462 842 q 384 878 391 875 l 462 983 q 548 931 514 953 q 620 872 582 908 l 783 936 l 806 828 l 691 783 m 342 116 q 508 197 434 116 q 601 481 582 278 q 462 512 521 512 q 273 443 337 512 q 208 274 208 373 q 246 161 208 207 q 342 116 283 116 z "},"ď":{"ha":894,"x_min":52,"x_max":1137,"o":"m 875 729 l 997 729 l 1137 1035 l 979 1035 l 875 729 m 613 651 q 534 670 580 663 q 448 677 488 677 q 235 621 325 677 q 99 471 146 564 q 52 273 52 378 q 86 128 52 194 q 182 23 120 63 q 326 -16 245 -16 q 521 40 434 -16 l 528 0 l 649 0 l 830 955 l 668 955 l 613 651 m 460 547 q 592 523 542 547 l 524 144 q 466 122 500 130 q 399 115 432 115 q 274 151 319 115 q 229 280 229 188 q 286 467 229 387 q 460 547 344 547 z "},"đ":{"ha":830,"x_min":52,"x_max":951,"o":"m 788 738 l 649 0 l 528 0 l 521 40 q 326 -16 434 -16 q 182 23 245 -16 q 86 128 120 63 q 52 273 52 194 q 99 471 52 378 q 235 621 146 564 q 448 677 325 677 q 534 670 488 677 q 613 651 580 663 l 628 738 l 363 738 l 387 865 l 651 865 l 668 955 l 830 955 l 813 865 l 951 865 l 927 738 l 788 738 m 592 523 q 460 547 542 547 q 286 467 344 547 q 229 280 229 387 q 274 151 229 188 q 399 115 319 115 q 466 122 432 115 q 524 144 500 130 l 592 523 z "},"e":{"ha":736,"x_min":52,"x_max":686,"o":"m 431 677 q 234 618 321 677 q 100 462 148 559 q 52 253 52 365 q 126 60 52 137 q 339 -17 200 -17 q 589 24 457 -17 l 589 134 q 405 115 509 115 q 266 144 314 115 q 217 245 217 174 q 219 271 217 262 l 663 266 l 677 335 q 686 427 686 377 q 620 611 686 545 q 431 677 554 677 m 408 547 q 498 515 464 547 q 533 424 533 483 q 528 377 533 403 l 231 377 q 300 502 250 457 q 408 547 351 547 z "},"é":{"ha":736,"x_min":52,"x_max":686,"o":"m 52 0 m 431 677 q 234 618 321 677 q 100 462 148 559 q 52 253 52 365 q 126 60 52 137 q 339 -17 200 -17 q 589 24 457 -17 l 589 134 q 405 115 509 115 q 266 144 314 115 q 217 245 217 174 q 219 271 217 262 l 663 266 l 677 335 q 686 427 686 377 q 620 611 686 545 q 431 677 554 677 m 408 547 q 498 515 464 547 q 533 424 533 483 q 528 377 533 403 l 231 377 q 300 502 250 457 q 408 547 351 547 m 300 726 l 670 972 l 589 1094 l 226 821 l 300 726 z "},"ĕ":{"ha":736,"x_min":52,"x_max":731,"o":"m 52 0 m 431 677 q 234 618 321 677 q 100 462 148 559 q 52 253 52 365 q 126 60 52 137 q 339 -17 200 -17 q 589 24 457 -17 l 589 134 q 405 115 509 115 q 266 144 314 115 q 217 245 217 174 q 219 271 217 262 l 663 266 l 677 335 q 686 427 686 377 q 620 611 686 545 q 431 677 554 677 m 408 547 q 498 515 464 547 q 533 424 533 483 q 528 377 533 403 l 231 377 q 300 502 250 457 q 408 547 351 547 m 457 764 q 624 812 561 764 q 731 941 688 859 l 623 997 q 580 937 595 957 q 536 901 564 917 q 467 885 509 885 q 351 1000 385 885 l 241 951 q 313 819 260 875 q 457 764 365 764 z "},"ě":{"ha":736,"x_min":52,"x_max":727,"o":"m 52 0 m 431 677 q 234 618 321 677 q 100 462 148 559 q 52 253 52 365 q 126 60 52 137 q 339 -17 200 -17 q 589 24 457 -17 l 589 134 q 405 115 509 115 q 266 144 314 115 q 217 245 217 174 q 219 271 217 262 l 663 266 l 677 335 q 686 427 686 377 q 620 611 686 545 q 431 677 554 677 m 408 547 q 498 515 464 547 q 533 424 533 483 q 528 377 533 403 l 231 377 q 300 502 250 457 q 408 547 351 547 m 325 1104 l 231 1028 l 438 743 l 727 1007 l 655 1101 l 457 927 l 325 1104 z "},"ê":{"ha":736,"x_min":52,"x_max":715,"o":"m 52 0 m 431 677 q 234 618 321 677 q 100 462 148 559 q 52 253 52 365 q 126 60 52 137 q 339 -17 200 -17 q 589 24 457 -17 l 589 134 q 405 115 509 115 q 266 144 314 115 q 217 245 217 174 q 219 271 217 262 l 663 266 l 677 335 q 686 427 686 377 q 620 611 686 545 q 431 677 554 677 m 408 547 q 498 515 464 547 q 533 424 533 483 q 528 377 533 403 l 231 377 q 300 502 250 457 q 408 547 351 547 m 622 743 l 715 819 l 509 1104 l 219 840 l 292 747 l 490 920 l 622 743 z "},"ë":{"ha":736,"x_min":52,"x_max":686,"o":"m 52 0 m 431 677 q 234 618 321 677 q 100 462 148 559 q 52 253 52 365 q 126 60 52 137 q 339 -17 200 -17 q 589 24 457 -17 l 589 134 q 405 115 509 115 q 266 144 314 115 q 217 245 217 174 q 219 271 217 262 l 663 266 l 677 335 q 686 427 686 377 q 620 611 686 545 q 431 677 554 677 m 408 547 q 498 515 464 547 q 533 424 533 483 q 528 377 533 403 l 231 377 q 300 502 250 457 q 408 547 351 547 m 302 773 q 247 795 269 773 q 224 851 224 818 q 226 872 224 865 q 258 923 231 901 q 318 944 285 944 q 372 923 351 944 q 394 866 394 901 q 367 800 394 828 q 302 773 340 773 m 575 773 q 519 795 542 773 q 497 851 497 818 q 498 872 497 865 q 530 923 503 901 q 590 944 557 944 q 645 923 623 944 q 667 866 667 901 q 640 800 667 828 q 575 773 613 773 z "},"ė":{"ha":736,"x_min":52,"x_max":686,"o":"m 52 0 m 431 677 q 234 618 321 677 q 100 462 148 559 q 52 253 52 365 q 126 60 52 137 q 339 -17 200 -17 q 589 24 457 -17 l 589 134 q 405 115 509 115 q 266 144 314 115 q 217 245 217 174 q 219 271 217 262 l 663 266 l 677 335 q 686 427 686 377 q 620 611 686 545 q 431 677 554 677 m 408 547 q 498 515 464 547 q 533 424 533 483 q 528 377 533 403 l 231 377 q 300 502 250 457 q 408 547 351 547 m 444 780 q 378 806 403 780 q 352 875 352 833 q 386 958 352 925 q 469 991 420 991 q 536 964 510 991 q 563 896 563 938 q 528 814 563 849 q 444 780 493 780 z "},"è":{"ha":736,"x_min":52,"x_max":686,"o":"m 52 0 m 431 677 q 234 618 321 677 q 100 462 148 559 q 52 253 52 365 q 126 60 52 137 q 339 -17 200 -17 q 589 24 457 -17 l 589 134 q 405 115 509 115 q 266 144 314 115 q 217 245 217 174 q 219 271 217 262 l 663 266 l 677 335 q 686 427 686 377 q 620 611 686 545 q 431 677 554 677 m 408 547 q 498 515 464 547 q 533 424 533 483 q 528 377 533 403 l 231 377 q 300 502 250 457 q 408 547 351 547 m 571 726 l 658 804 l 405 1094 l 290 990 l 571 726 z "},"ē":{"ha":736,"x_min":52,"x_max":686,"o":"m 52 0 m 431 677 q 234 618 321 677 q 100 462 148 559 q 52 253 52 365 q 126 60 52 137 q 339 -17 200 -17 q 589 24 457 -17 l 589 134 q 405 115 509 115 q 266 144 314 115 q 217 245 217 174 q 219 271 217 262 l 663 266 l 677 335 q 686 427 686 377 q 620 611 686 545 q 431 677 554 677 m 408 547 q 498 515 464 547 q 533 424 533 483 q 528 377 533 403 l 231 377 q 300 502 250 457 q 408 547 351 547 m 212 776 l 649 776 l 672 894 l 234 894 l 212 776 z "},"ę":{"ha":736,"x_min":52,"x_max":686,"o":"m 431 677 q 620 611 554 677 q 686 427 686 545 q 677 335 686 377 l 663 266 l 219 271 q 217 245 217 262 q 266 144 217 174 q 405 115 314 115 q 589 134 509 115 l 589 24 q 498 3 576 21 q 372 -61 420 -16 q 325 -172 325 -106 q 341 -220 325 -201 q 391 -238 358 -238 q 528 -207 434 -238 l 547 -278 q 431 -329 486 -311 q 307 -347 375 -347 q 193 -312 233 -347 q 153 -219 153 -276 q 189 -110 153 -163 q 288 -14 226 -57 q 113 75 174 0 q 52 253 52 149 q 100 462 52 365 q 234 618 148 559 q 431 677 321 677 m 528 377 q 533 424 533 403 q 498 515 533 483 q 408 547 464 547 q 300 502 351 547 q 231 377 250 457 l 528 377 z "},"f":{"ha":568,"x_min":61,"x_max":733,"o":"m 87 667 l 61 536 l 189 536 l 92 0 l 250 0 l 349 536 l 585 536 l 611 667 l 380 667 l 392 729 q 437 806 401 781 q 549 830 472 830 q 681 807 613 830 l 733 927 q 554 962 632 962 q 368 930 436 962 q 270 845 300 898 q 224 714 240 792 l 215 667 l 87 667 z "},"g":{"ha":854,"x_min":17,"x_max":807,"o":"m 523 21 q 479 -118 505 -66 q 402 -197 453 -170 q 262 -224 351 -224 q 174 -216 212 -224 q 69 -187 137 -208 l 17 -318 q 154 -353 95 -344 q 271 -363 212 -363 q 675 -10 608 -363 l 807 667 l 693 667 l 670 627 q 581 662 637 648 q 467 677 524 677 q 258 621 345 677 q 125 470 170 564 q 80 266 80 377 q 115 125 80 189 q 212 23 149 61 q 354 -16 274 -16 q 523 21 434 -16 m 488 545 q 618 516 556 545 l 549 144 q 427 115 498 115 q 304 160 351 115 q 257 286 257 205 q 314 472 257 399 q 488 545 372 545 z "},"ğ":{"ha":854,"x_min":17,"x_max":807,"o":"m 17 0 m 523 21 q 479 -118 505 -66 q 402 -197 453 -170 q 262 -224 351 -224 q 174 -216 212 -224 q 69 -187 137 -208 l 17 -318 q 154 -353 95 -344 q 271 -363 212 -363 q 675 -10 608 -363 l 807 667 l 693 667 l 670 627 q 581 662 637 648 q 467 677 524 677 q 258 621 345 677 q 125 470 170 564 q 80 266 80 377 q 115 125 80 189 q 212 23 149 61 q 354 -16 274 -16 q 523 21 434 -16 m 488 545 q 618 516 556 545 l 549 144 q 427 115 498 115 q 304 160 351 115 q 257 286 257 205 q 314 472 257 399 q 488 545 372 545 m 510 764 q 678 812 615 764 q 785 941 741 859 l 677 997 q 634 937 649 957 q 590 901 618 917 q 521 885 563 885 q 405 1000 439 885 l 295 951 q 366 819 314 875 q 510 764 418 764 z "},"ĝ":{"ha":854,"x_min":17,"x_max":807,"o":"m 17 0 m 523 21 q 479 -118 505 -66 q 402 -197 453 -170 q 262 -224 351 -224 q 174 -216 212 -224 q 69 -187 137 -208 l 17 -318 q 154 -353 95 -344 q 271 -363 212 -363 q 675 -10 608 -363 l 807 667 l 693 667 l 670 627 q 581 662 637 648 q 467 677 524 677 q 258 621 345 677 q 125 470 170 564 q 80 266 80 377 q 115 125 80 189 q 212 23 149 61 q 354 -16 274 -16 q 523 21 434 -16 m 488 545 q 618 516 556 545 l 549 144 q 427 115 498 115 q 304 160 351 115 q 257 286 257 205 q 314 472 257 399 q 488 545 372 545 m 675 743 l 769 819 l 563 1104 l 273 840 l 345 747 l 543 920 l 675 743 z "},"ģ":{"ha":854,"x_min":17,"x_max":807,"o":"m 477 781 l 599 781 l 740 1087 l 582 1087 l 477 781 m 523 21 q 479 -118 505 -66 q 402 -197 453 -170 q 262 -224 351 -224 q 174 -216 212 -224 q 69 -187 137 -208 l 17 -318 q 154 -353 95 -344 q 271 -363 212 -363 q 675 -10 608 -363 l 807 667 l 693 667 l 670 627 q 581 662 637 648 q 467 677 524 677 q 258 621 345 677 q 125 470 170 564 q 80 266 80 377 q 115 125 80 189 q 212 23 149 61 q 354 -16 274 -16 q 523 21 434 -16 m 488 545 q 618 516 556 545 l 549 144 q 427 115 498 115 q 304 160 351 115 q 257 286 257 205 q 314 472 257 399 q 488 545 372 545 z "},"ġ":{"ha":854,"x_min":17,"x_max":807,"o":"m 17 0 m 523 21 q 479 -118 505 -66 q 402 -197 453 -170 q 262 -224 351 -224 q 174 -216 212 -224 q 69 -187 137 -208 l 17 -318 q 154 -353 95 -344 q 271 -363 212 -363 q 675 -10 608 -363 l 807 667 l 693 667 l 670 627 q 581 662 637 648 q 467 677 524 677 q 258 621 345 677 q 125 470 170 564 q 80 266 80 377 q 115 125 80 189 q 212 23 149 61 q 354 -16 274 -16 q 523 21 434 -16 m 488 545 q 618 516 556 545 l 549 144 q 427 115 498 115 q 304 160 351 115 q 257 286 257 205 q 314 472 257 399 q 488 545 372 545 m 498 780 q 431 806 457 780 q 406 875 406 833 q 440 958 406 925 q 523 991 474 991 q 590 964 564 991 q 616 896 616 938 q 582 814 616 849 q 498 780 547 780 z "},"h":{"ha":839,"x_min":64,"x_max":760,"o":"m 484 536 q 590 441 590 536 q 585 396 590 420 l 509 0 l 675 0 l 747 366 q 760 484 760 443 q 556 675 760 675 q 457 663 502 675 q 358 630 413 651 l 417 955 l 250 955 l 64 0 l 231 0 l 323 502 q 484 536 418 536 z "},"i":{"ha":401,"x_min":52,"x_max":399,"o":"m 52 0 m 52 0 l 219 0 l 349 667 l 182 667 l 52 0 m 281 780 q 214 806 240 780 q 189 875 189 833 q 223 958 189 925 q 306 991 257 991 q 373 964 347 991 q 399 896 399 938 q 365 814 399 849 q 281 780 330 780 z "},"ı":{"ha":401,"x_min":52,"x_max":349,"o":"m 52 0 l 219 0 l 349 667 l 182 667 l 52 0 z "},"í":{"ha":401,"x_min":52,"x_max":507,"o":"m 52 0 m 52 0 l 219 0 l 349 667 l 182 667 l 52 0 m 137 726 l 507 972 l 425 1094 l 63 821 l 137 726 z "},"ĭ":{"ha":401,"x_min":52,"x_max":568,"o":"m 52 0 m 52 0 l 219 0 l 349 667 l 182 667 l 52 0 m 293 764 q 461 812 398 764 q 568 941 524 859 l 460 997 q 417 937 432 957 q 373 901 401 917 q 304 885 345 885 q 188 1000 222 885 l 78 951 q 149 819 97 875 q 293 764 201 764 z "},"î":{"ha":401,"x_min":52,"x_max":552,"o":"m 52 0 m 52 0 l 219 0 l 349 667 l 182 667 l 52 0 m 458 743 l 552 819 l 345 1104 l 56 840 l 128 747 l 326 920 l 458 743 z "},"ï":{"ha":401,"x_min":52,"x_max":503,"o":"m 52 0 m 52 0 l 219 0 l 349 667 l 182 667 l 52 0 m 139 773 q 83 795 106 773 q 61 851 61 818 q 63 872 61 865 q 95 923 68 901 q 155 944 122 944 q 209 923 188 944 q 231 866 231 901 q 204 800 231 828 q 139 773 177 773 m 411 773 q 356 795 378 773 q 333 851 333 818 q 335 872 333 865 q 367 923 340 901 q 427 944 394 944 q 482 923 460 944 q 503 866 503 901 q 477 800 503 828 q 411 773 450 773 z "},"ì":{"ha":401,"x_min":52,"x_max":495,"o":"m 52 0 m 52 0 l 219 0 l 349 667 l 182 667 l 52 0 m 408 726 l 495 804 l 241 1094 l 127 990 l 408 726 z "},"ĳ":{"ha":727,"x_min":52,"x_max":738,"o":"m 281 780 q 214 806 240 780 q 189 875 189 833 q 223 958 189 925 q 306 991 257 991 q 373 964 347 991 q 399 896 399 938 q 365 814 399 849 q 281 780 330 780 m 620 780 q 553 806 578 780 q 528 875 528 833 q 562 958 528 925 q 644 991 595 991 q 712 964 686 991 q 738 896 738 938 q 703 814 738 849 q 620 780 668 780 m 52 0 l 219 0 l 349 667 l 182 667 l 52 0 m 392 0 q 353 -126 377 -82 q 297 -195 330 -170 q 200 -252 264 -220 l 248 -368 q 416 -285 358 -326 q 502 -189 474 -243 q 547 -45 530 -135 l 686 667 l 523 667 l 392 0 z "},"ī":{"ha":401,"x_min":49,"x_max":509,"o":"m 49 0 m 52 0 l 219 0 l 349 667 l 182 667 l 52 0 m 49 776 l 486 776 l 509 894 l 71 894 l 49 776 z "},"į":{"ha":384,"x_min":-174,"x_max":401,"o":"m 283 780 q 216 806 241 780 q 191 875 191 833 q 225 958 191 925 q 307 991 259 991 q 375 964 349 991 q 401 896 401 938 q 366 814 401 849 q 283 780 332 780 m 174 667 l 54 33 q -174 -217 -174 -68 q -133 -311 -174 -274 q -19 -347 -92 -347 q 101 -330 49 -347 q 222 -278 153 -312 l 203 -207 q 151 -224 194 -210 q 75 -238 108 -238 q 17 -218 36 -238 q -2 -163 -2 -198 q 44 -64 -2 -108 q 212 33 90 -21 l 339 667 l 174 667 z "},"ĩ":{"ha":401,"x_min":-31,"x_max":569,"o":"m 0 0 m 52 0 l 219 0 l 349 667 l 182 667 l 52 0 m 177 941 q 56 908 108 941 q -31 793 3 875 l 95 762 q 128 811 115 797 q 168 825 142 825 q 195 818 181 825 q 226 802 210 811 q 290 770 262 781 q 354 759 318 759 q 486 802 427 759 q 569 917 545 845 l 443 944 q 427 919 439 939 q 400 887 415 899 q 366 875 385 875 q 293 903 342 875 q 229 931 253 922 q 177 941 205 941 z "},"j":{"ha":413,"x_min":-125,"x_max":413,"o":"m 0 0 m 68 0 q 29 -126 52 -82 q -28 -195 5 -170 q -125 -252 -61 -220 l -76 -368 q 91 -285 33 -326 q 177 -189 149 -243 q 222 -45 205 -135 l 361 667 l 198 667 l 68 0 m 295 780 q 228 806 253 780 q 203 875 203 833 q 237 958 203 925 q 319 991 271 991 q 387 964 361 991 q 413 896 413 938 q 378 814 413 849 q 295 780 344 780 z "},"ȷ":{"ha":413,"x_min":-125,"x_max":361,"o":"m 68 0 q 29 -126 52 -82 q -28 -195 5 -170 q -125 -252 -61 -220 l -76 -368 q 91 -285 33 -326 q 177 -189 149 -243 q 222 -45 205 -135 l 361 667 l 198 667 l 68 0 z "},"ĵ":{"ha":413,"x_min":-125,"x_max":566,"o":"m 0 0 m 68 0 q 29 -126 52 -82 q -28 -195 5 -170 q -125 -252 -61 -220 l -76 -368 q 91 -285 33 -326 q 177 -189 149 -243 q 222 -45 205 -135 l 361 667 l 198 667 l 68 0 m 472 743 l 566 819 l 359 1104 l 69 840 l 142 747 l 340 920 l 472 743 z "},"k":{"ha":785,"x_min":64,"x_max":802,"o":"m 250 955 l 64 0 l 231 0 l 417 955 l 250 955 m 319 366 l 510 0 l 698 0 l 509 349 l 802 667 l 608 667 l 319 366 z "},"ķ":{"ha":785,"x_min":64,"x_max":802,"o":"m 64 0 m 250 955 l 64 0 l 231 0 l 417 955 l 250 955 m 319 366 l 510 0 l 698 0 l 509 349 l 802 667 l 608 667 l 319 366 m 155 -377 l 274 -377 l 446 -71 l 276 -71 l 155 -377 z "},"l":{"ha":425,"x_min":57,"x_max":380,"o":"m 302 115 q 234 182 234 115 q 240 226 234 203 l 380 955 l 217 955 l 64 167 q 57 104 57 125 q 191 -16 57 -16 q 280 -6 245 -16 q 351 19 316 3 l 380 125 q 302 115 342 115 z "},"ĺ":{"ha":425,"x_min":57,"x_max":727,"o":"m 57 0 m 302 115 q 234 182 234 115 q 240 226 234 203 l 380 955 l 217 955 l 64 167 q 57 104 57 125 q 191 -16 57 -16 q 280 -6 245 -16 q 351 19 316 3 l 380 125 q 302 115 342 115 m 358 1014 l 727 1260 l 646 1382 l 283 1109 l 358 1014 z "},"ľ":{"ha":514,"x_min":57,"x_max":705,"o":"m 443 729 l 564 729 l 705 1035 l 547 1035 l 443 729 m 302 115 q 234 182 234 115 q 240 226 234 203 l 380 955 l 217 955 l 64 167 q 57 104 57 125 q 191 -16 57 -16 q 280 -6 245 -16 q 351 19 316 3 l 380 125 q 302 115 342 115 z "},"ļ":{"ha":425,"x_min":-16,"x_max":380,"o":"m 0 0 m 302 115 q 234 182 234 115 q 240 226 234 203 l 380 955 l 217 955 l 64 167 q 57 104 57 125 q 191 -16 57 -16 q 280 -6 245 -16 q 351 19 316 3 l 380 125 q 302 115 342 115 m -16 -377 l 104 -377 l 276 -71 l 106 -71 l -16 -377 z "},"ł":{"ha":505,"x_min":17,"x_max":523,"o":"m 271 226 q 266 182 266 203 q 333 115 266 115 q 411 125 373 115 l 382 19 q 312 -6 347 3 q 222 -16 276 -16 q 89 104 89 -16 q 95 167 89 125 l 123 306 l 17 252 l 43 403 l 153 458 l 248 955 l 411 955 l 333 554 l 523 651 l 497 498 l 304 399 l 271 226 z "},"m":{"ha":1215,"x_min":52,"x_max":1135,"o":"m 182 667 l 52 0 l 217 0 l 309 500 q 458 535 411 535 q 552 443 552 535 q 547 394 552 418 l 470 0 l 637 0 l 710 377 q 720 469 720 429 q 719 500 720 490 q 812 527 778 519 q 875 535 845 535 q 945 506 925 535 q 965 436 965 477 q 962 394 965 418 l 885 0 l 1050 0 l 1118 344 q 1135 491 1135 431 q 964 675 1135 675 q 828 653 898 675 q 689 602 759 630 q 633 658 661 641 q 549 675 604 675 q 450 662 498 675 q 365 635 401 649 q 316 616 330 622 l 302 667 l 182 667 z "},"n":{"ha":830,"x_min":52,"x_max":750,"o":"m 472 536 q 580 438 580 536 q 576 396 580 424 l 500 0 l 667 0 l 738 366 q 750 481 750 434 q 704 622 750 569 q 543 675 658 675 q 444 662 490 675 q 365 635 399 649 q 318 616 330 622 l 304 667 l 184 667 l 52 0 l 219 0 l 311 502 q 472 536 406 536 z "},"ń":{"ha":830,"x_min":52,"x_max":750,"o":"m 52 0 m 472 536 q 580 438 580 536 q 576 396 580 424 l 500 0 l 667 0 l 738 366 q 750 481 750 434 q 704 622 750 569 q 543 675 658 675 q 444 662 490 675 q 365 635 399 649 q 318 616 330 622 l 304 667 l 184 667 l 52 0 l 219 0 l 311 502 q 472 536 406 536 m 372 726 l 741 972 l 660 1094 l 297 821 l 372 726 z "},"ň":{"ha":830,"x_min":52,"x_max":799,"o":"m 52 0 m 472 536 q 580 438 580 536 q 576 396 580 424 l 500 0 l 667 0 l 738 366 q 750 481 750 434 q 704 622 750 569 q 543 675 658 675 q 444 662 490 675 q 365 635 399 649 q 318 616 330 622 l 304 667 l 184 667 l 52 0 l 219 0 l 311 502 q 472 536 406 536 m 396 1104 l 302 1028 l 509 743 l 799 1007 l 726 1101 l 528 927 l 396 1104 z "},"ņ":{"ha":830,"x_min":52,"x_max":750,"o":"m 52 0 m 472 536 q 580 438 580 536 q 576 396 580 424 l 500 0 l 667 0 l 738 366 q 750 481 750 434 q 704 622 750 569 q 543 675 658 675 q 444 662 490 675 q 365 635 399 649 q 318 616 330 622 l 304 667 l 184 667 l 52 0 l 219 0 l 311 502 q 472 536 406 536 m 141 -377 l 260 -377 l 432 -71 l 262 -71 l 141 -377 z "},"ñ":{"ha":830,"x_min":52,"x_max":804,"o":"m 52 0 m 472 536 q 580 438 580 536 q 576 396 580 424 l 500 0 l 667 0 l 738 366 q 750 481 750 434 q 704 622 750 569 q 543 675 658 675 q 444 662 490 675 q 365 635 399 649 q 318 616 330 622 l 304 667 l 184 667 l 52 0 l 219 0 l 311 502 q 472 536 406 536 m 411 941 q 290 908 342 941 q 203 793 238 875 l 330 762 q 363 811 349 797 q 403 825 377 825 q 430 818 415 825 q 460 802 444 811 q 524 770 497 781 q 589 759 552 759 q 720 802 661 759 q 804 917 780 845 l 677 944 q 661 919 674 939 q 635 887 649 899 q 601 875 620 875 q 528 903 576 875 q 464 931 488 922 q 411 941 439 941 z "},"o":{"ha":802,"x_min":52,"x_max":750,"o":"m 340 -16 q 570 45 477 -16 q 707 199 663 106 q 750 385 750 292 q 714 532 750 465 q 613 638 679 599 q 460 677 547 677 q 229 616 321 677 q 95 464 137 556 q 52 276 52 373 q 88 131 52 198 q 189 24 123 64 q 340 -16 255 -16 m 432 547 q 536 504 497 547 q 576 382 576 462 q 522 195 576 274 q 366 116 467 116 q 263 159 302 116 q 224 280 224 201 q 249 407 224 345 q 322 508 274 469 q 432 547 370 547 z "},"ó":{"ha":802,"x_min":52,"x_max":750,"o":"m 52 0 m 340 -16 q 570 45 477 -16 q 707 199 663 106 q 750 385 750 292 q 714 532 750 465 q 613 638 679 599 q 460 677 547 677 q 229 616 321 677 q 95 464 137 556 q 52 276 52 373 q 88 131 52 198 q 189 24 123 64 q 340 -16 255 -16 m 432 547 q 536 504 497 547 q 576 382 576 462 q 522 195 576 274 q 366 116 467 116 q 263 159 302 116 q 224 280 224 201 q 249 407 224 345 q 322 508 274 469 q 432 547 370 547 m 328 726 l 698 972 l 616 1094 l 253 821 l 328 726 z "},"ŏ":{"ha":802,"x_min":52,"x_max":759,"o":"m 52 0 m 340 -16 q 570 45 477 -16 q 707 199 663 106 q 750 385 750 292 q 714 532 750 465 q 613 638 679 599 q 460 677 547 677 q 229 616 321 677 q 95 464 137 556 q 52 276 52 373 q 88 131 52 198 q 189 24 123 64 q 340 -16 255 -16 m 432 547 q 536 504 497 547 q 576 382 576 462 q 522 195 576 274 q 366 116 467 116 q 263 159 302 116 q 224 280 224 201 q 249 407 224 345 q 322 508 274 469 q 432 547 370 547 m 484 764 q 652 812 589 764 q 759 941 715 859 l 651 997 q 608 937 623 957 q 564 901 592 917 q 495 885 536 885 q 378 1000 413 885 l 269 951 q 340 819 288 875 q 484 764 392 764 z "},"ô":{"ha":802,"x_min":52,"x_max":750,"o":"m 52 0 m 340 -16 q 570 45 477 -16 q 707 199 663 106 q 750 385 750 292 q 714 532 750 465 q 613 638 679 599 q 460 677 547 677 q 229 616 321 677 q 95 464 137 556 q 52 276 52 373 q 88 131 52 198 q 189 24 123 64 q 340 -16 255 -16 m 432 547 q 536 504 497 547 q 576 382 576 462 q 522 195 576 274 q 366 116 467 116 q 263 159 302 116 q 224 280 224 201 q 249 407 224 345 q 322 508 274 469 q 432 547 370 547 m 649 743 l 743 819 l 536 1104 l 247 840 l 319 747 l 517 920 l 649 743 z "},"ö":{"ha":802,"x_min":52,"x_max":750,"o":"m 52 0 m 340 -16 q 570 45 477 -16 q 707 199 663 106 q 750 385 750 292 q 714 532 750 465 q 613 638 679 599 q 460 677 547 677 q 229 616 321 677 q 95 464 137 556 q 52 276 52 373 q 88 131 52 198 q 189 24 123 64 q 340 -16 255 -16 m 432 547 q 536 504 497 547 q 576 382 576 462 q 522 195 576 274 q 366 116 467 116 q 263 159 302 116 q 224 280 224 201 q 249 407 224 345 q 322 508 274 469 q 432 547 370 547 m 330 773 q 274 795 297 773 q 252 851 252 818 q 253 872 252 865 q 286 923 259 901 q 345 944 313 944 q 400 923 378 944 q 422 866 422 901 q 395 800 422 828 q 330 773 368 773 m 602 773 q 547 795 569 773 q 524 851 524 818 q 526 872 524 865 q 558 923 531 901 q 618 944 585 944 q 673 923 651 944 q 694 866 694 901 q 668 800 694 828 q 602 773 641 773 z "},"ò":{"ha":802,"x_min":52,"x_max":750,"o":"m 52 0 m 340 -16 q 570 45 477 -16 q 707 199 663 106 q 750 385 750 292 q 714 532 750 465 q 613 638 679 599 q 460 677 547 677 q 229 616 321 677 q 95 464 137 556 q 52 276 52 373 q 88 131 52 198 q 189 24 123 64 q 340 -16 255 -16 m 432 547 q 536 504 497 547 q 576 382 576 462 q 522 195 576 274 q 366 116 467 116 q 263 159 302 116 q 224 280 224 201 q 249 407 224 345 q 322 508 274 469 q 432 547 370 547 m 599 726 l 686 804 l 432 1094 l 318 990 l 599 726 z "},"ő":{"ha":802,"x_min":52,"x_max":997,"o":"m 260 726 l 630 972 l 549 1094 l 186 821 l 260 726 m 627 726 l 997 972 l 915 1094 l 552 821 l 627 726 m 340 -16 q 570 45 477 -16 q 707 199 663 106 q 750 385 750 292 q 714 532 750 465 q 613 638 679 599 q 460 677 547 677 q 229 616 321 677 q 95 464 137 556 q 52 276 52 373 q 88 131 52 198 q 189 24 123 64 q 340 -16 255 -16 m 432 547 q 536 504 497 547 q 576 382 576 462 q 522 195 576 274 q 366 116 467 116 q 263 159 302 116 q 224 280 224 201 q 249 407 224 345 q 322 508 274 469 q 432 547 370 547 z "},"ō":{"ha":802,"x_min":52,"x_max":750,"o":"m 52 0 m 340 -16 q 570 45 477 -16 q 707 199 663 106 q 750 385 750 292 q 714 532 750 465 q 613 638 679 599 q 460 677 547 677 q 229 616 321 677 q 95 464 137 556 q 52 276 52 373 q 88 131 52 198 q 189 24 123 64 q 340 -16 255 -16 m 432 547 q 536 504 497 547 q 576 382 576 462 q 522 195 576 274 q 366 116 467 116 q 263 159 302 116 q 224 280 224 201 q 249 407 224 345 q 322 508 274 469 q 432 547 370 547 m 240 776 l 677 776 l 700 894 l 262 894 l 240 776 z "},"ø":{"ha":898,"x_min":38,"x_max":865,"o":"m 769 521 q 799 385 799 458 q 755 199 799 292 q 619 45 712 106 q 389 -16 526 -16 q 207 47 283 -16 l 109 -36 l 38 50 l 135 134 q 101 276 101 200 q 143 464 101 373 q 278 616 186 556 q 509 677 370 677 q 696 613 622 677 l 793 696 l 865 602 l 769 521 m 274 252 l 578 512 q 481 547 538 547 q 371 508 418 547 q 298 407 323 469 q 273 280 273 345 l 274 252 m 623 399 l 325 146 q 415 116 363 116 q 570 195 516 116 q 625 382 625 274 l 623 399 z "},"õ":{"ha":802,"x_min":52,"x_max":760,"o":"m 52 0 m 340 -16 q 570 45 477 -16 q 707 199 663 106 q 750 385 750 292 q 714 532 750 465 q 613 638 679 599 q 460 677 547 677 q 229 616 321 677 q 95 464 137 556 q 52 276 52 373 q 88 131 52 198 q 189 24 123 64 q 340 -16 255 -16 m 432 547 q 536 504 497 547 q 576 382 576 462 q 522 195 576 274 q 366 116 467 116 q 263 159 302 116 q 224 280 224 201 q 249 407 224 345 q 322 508 274 469 q 432 547 370 547 m 368 941 q 247 908 299 941 q 160 793 194 875 l 286 762 q 319 811 306 797 q 359 825 333 825 q 386 818 372 825 q 417 802 401 811 q 481 770 453 781 q 545 759 509 759 q 677 802 618 759 q 760 917 736 845 l 634 944 q 618 919 630 939 q 591 887 606 899 q 557 875 576 875 q 484 903 533 875 q 420 931 444 922 q 368 941 396 941 z "},"œ":{"ha":1210,"x_min":50,"x_max":1160,"o":"m 905 677 q 1094 611 1028 677 q 1160 427 1160 545 q 1151 335 1160 377 l 1137 266 l 693 271 q 691 245 691 262 q 740 144 691 174 q 878 115 788 115 q 1063 134 983 115 l 1063 24 q 813 -17 931 -17 q 595 64 672 -17 q 339 -16 493 -16 q 188 24 253 -16 q 86 131 122 64 q 50 276 50 198 q 93 464 50 373 q 227 616 135 556 q 458 677 319 677 q 672 590 590 677 q 905 677 769 677 m 365 116 q 520 195 465 116 q 575 382 575 274 q 535 504 575 462 q 431 547 495 547 q 320 508 368 547 q 247 407 273 469 q 222 280 222 345 q 261 159 222 201 q 365 116 300 116 m 1002 377 q 1007 424 1007 403 q 972 515 1007 483 q 882 547 938 547 q 774 502 825 547 q 705 377 724 457 l 1002 377 z "},"p":{"ha":826,"x_min":-17,"x_max":774,"o":"m 182 667 l -17 -358 l 149 -358 l 219 17 q 368 -16 288 -16 q 605 48 514 -16 q 735 204 696 111 q 774 394 774 297 q 738 549 774 484 q 645 645 701 613 q 531 677 589 677 q 413 661 464 677 q 313 620 363 646 l 300 667 l 182 667 m 443 545 q 602 382 602 545 q 545 188 602 262 q 366 115 488 115 q 253 151 304 115 l 319 523 q 443 545 375 545 z "},"þ":{"ha":825,"x_min":-17,"x_max":773,"o":"m -17 -358 l 146 -358 l 215 17 q 366 -16 285 -16 q 603 48 512 -16 q 734 207 694 111 q 773 401 773 302 q 701 598 773 519 q 509 677 628 677 q 419 668 451 677 q 344 639 387 660 l 401 955 l 236 955 l -17 -358 m 314 521 q 438 550 363 550 q 554 502 507 550 q 601 372 601 453 q 539 188 601 262 q 363 115 477 115 q 301 122 326 115 q 250 144 276 128 l 314 521 z "},"q":{"ha":830,"x_min":52,"x_max":781,"o":"m 642 627 q 553 662 609 648 q 439 677 497 677 q 230 620 318 677 q 97 468 142 563 q 52 264 52 373 q 85 128 52 193 q 180 24 118 64 q 326 -16 241 -16 q 408 -8 373 -16 q 483 16 443 0 l 415 -358 l 582 -358 l 781 667 l 665 667 l 642 627 m 460 545 q 580 519 526 545 l 514 144 q 382 115 464 115 q 273 154 316 115 q 229 273 229 193 q 286 467 229 389 q 460 545 342 545 z "},"r":{"ha":618,"x_min":52,"x_max":639,"o":"m 182 667 l 52 0 l 215 0 l 313 516 q 387 528 347 528 q 475 514 431 528 q 554 477 519 500 l 566 483 l 639 653 q 528 677 590 677 q 316 615 424 677 l 302 667 l 182 667 z "},"ŕ":{"ha":618,"x_min":52,"x_max":679,"o":"m 52 0 m 182 667 l 52 0 l 215 0 l 313 516 q 387 528 347 528 q 475 514 431 528 q 554 477 519 500 l 566 483 l 639 653 q 528 677 590 677 q 316 615 424 677 l 302 667 l 182 667 m 309 724 l 679 970 l 597 1092 l 234 819 l 309 724 z "},"ř":{"ha":618,"x_min":52,"x_max":736,"o":"m 52 0 m 182 667 l 52 0 l 215 0 l 313 516 q 387 528 347 528 q 475 514 431 528 q 554 477 519 500 l 566 483 l 639 653 q 528 677 590 677 q 316 615 424 677 l 302 667 l 182 667 m 333 1102 l 240 1026 l 446 741 l 736 1005 l 663 1099 l 465 925 l 333 1102 z "},"ŗ":{"ha":618,"x_min":-85,"x_max":639,"o":"m 0 0 m 182 667 l 52 0 l 215 0 l 313 516 q 387 528 347 528 q 475 514 431 528 q 554 477 519 500 l 566 483 l 639 653 q 528 677 590 677 q 316 615 424 677 l 302 667 l 182 667 m -85 -377 l 35 -377 l 207 -71 l 36 -71 l -85 -377 z "},"s":{"ha":707,"x_min":35,"x_max":663,"o":"m 35 50 q 168 2 102 19 q 314 -16 233 -16 q 545 49 484 -16 q 606 194 606 115 q 554 308 606 266 q 408 394 502 351 q 318 443 347 422 q 288 490 288 464 q 313 529 288 516 q 418 542 337 542 q 503 533 465 542 q 592 509 540 524 l 663 628 q 561 661 625 646 q 443 677 497 677 q 189 620 252 677 q 127 483 127 563 q 157 389 127 429 q 228 325 188 349 q 337 269 269 300 q 422 226 396 243 q 448 186 448 208 q 292 122 448 122 q 99 172 227 122 l 35 50 z "},"ś":{"ha":707,"x_min":35,"x_max":682,"o":"m 35 0 m 35 50 q 168 2 102 19 q 314 -16 233 -16 q 545 49 484 -16 q 606 194 606 115 q 554 308 606 266 q 408 394 502 351 q 318 443 347 422 q 288 490 288 464 q 313 529 288 516 q 418 542 337 542 q 503 533 465 542 q 592 509 540 524 l 663 628 q 561 661 625 646 q 443 677 497 677 q 189 620 252 677 q 127 483 127 563 q 157 389 127 429 q 228 325 188 349 q 337 269 269 300 q 422 226 396 243 q 448 186 448 208 q 292 122 448 122 q 99 172 227 122 l 35 50 m 313 726 l 682 972 l 601 1094 l 238 821 l 313 726 z "},"š":{"ha":707,"x_min":35,"x_max":740,"o":"m 35 0 m 35 50 q 168 2 102 19 q 314 -16 233 -16 q 545 49 484 -16 q 606 194 606 115 q 554 308 606 266 q 408 394 502 351 q 318 443 347 422 q 288 490 288 464 q 313 529 288 516 q 418 542 337 542 q 503 533 465 542 q 592 509 540 524 l 663 628 q 561 661 625 646 q 443 677 497 677 q 189 620 252 677 q 127 483 127 563 q 157 389 127 429 q 228 325 188 349 q 337 269 269 300 q 422 226 396 243 q 448 186 448 208 q 292 122 448 122 q 99 172 227 122 l 35 50 m 337 1104 l 243 1028 l 450 743 l 740 1007 l 667 1101 l 469 927 l 337 1104 z "},"ş":{"ha":707,"x_min":35,"x_max":663,"o":"m 288 490 q 318 443 288 464 q 408 394 347 422 q 554 308 502 351 q 606 194 606 266 q 556 60 606 122 q 365 -14 505 -2 l 340 -76 q 429 -129 405 -99 q 453 -203 453 -160 q 403 -316 453 -267 q 260 -365 352 -365 q 92 -332 186 -365 l 141 -215 l 217 -234 q 283 -245 266 -245 q 314 -222 314 -245 q 301 -200 314 -208 q 253 -179 288 -191 l 181 -156 l 236 -10 q 135 10 182 -5 q 35 50 89 26 l 99 172 q 292 122 227 122 q 448 186 448 122 q 422 226 448 208 q 337 269 396 243 q 228 325 269 300 q 157 389 188 349 q 127 483 127 429 q 189 620 127 563 q 443 677 252 677 q 561 661 497 677 q 663 628 625 646 l 592 509 q 503 533 540 524 q 418 542 465 542 q 313 529 337 542 q 288 490 288 516 z "},"ș":{"ha":707,"x_min":35,"x_max":663,"o":"m 35 0 m 35 50 q 168 2 102 19 q 314 -16 233 -16 q 545 49 484 -16 q 606 194 606 115 q 554 308 606 266 q 408 394 502 351 q 318 443 347 422 q 288 490 288 464 q 313 529 288 516 q 418 542 337 542 q 503 533 465 542 q 592 509 540 524 l 663 628 q 561 661 625 646 q 443 677 497 677 q 189 620 252 677 q 127 483 127 563 q 157 389 127 429 q 228 325 188 349 q 337 269 269 300 q 422 226 396 243 q 448 186 448 208 q 292 122 448 122 q 99 172 227 122 l 35 50 m 108 -377 l 227 -377 l 399 -71 l 229 -71 l 108 -377 z "},"ß":{"ha":906,"x_min":64,"x_max":845,"o":"m 552 962 q 313 888 403 962 q 191 655 222 814 l 64 0 l 229 0 l 359 665 q 422 779 377 750 q 507 807 467 807 q 597 786 568 807 q 627 727 627 764 q 598 665 627 691 q 510 606 569 639 q 405 531 441 566 q 370 443 370 497 q 412 360 370 391 q 535 299 455 330 q 641 246 608 269 q 668 182 675 222 q 635 140 661 153 q 545 127 609 127 q 452 133 497 127 q 335 156 408 139 l 269 23 q 526 -17 403 -17 q 717 19 646 -17 q 817 106 788 56 q 845 203 845 156 q 797 315 845 276 q 663 389 748 354 q 589 425 611 411 q 566 460 566 439 q 585 494 566 477 q 642 533 604 510 q 761 628 719 582 q 804 750 804 675 q 776 849 804 800 q 691 930 748 898 q 552 962 634 962 z "},"t":{"ha":587,"x_min":52,"x_max":569,"o":"m 514 139 q 385 120 438 120 q 283 194 283 120 q 286 222 283 205 l 347 536 l 543 536 l 569 667 l 373 667 l 410 858 l 243 858 l 207 667 l 78 667 l 52 536 l 181 536 l 123 240 q 113 146 113 177 q 155 28 113 71 q 304 -16 196 -16 q 404 -5 359 -16 q 505 24 448 5 l 514 139 z "},"ť":{"ha":595,"x_min":52,"x_max":691,"o":"m 436 747 l 557 747 l 691 1035 l 533 1035 l 436 747 m 514 139 q 385 120 438 120 q 283 194 283 120 q 286 222 283 205 l 347 536 l 543 536 l 569 667 l 373 667 l 410 858 l 243 858 l 207 667 l 78 667 l 52 536 l 181 536 l 123 240 q 113 146 113 177 q 155 28 113 71 q 304 -16 196 -16 q 404 -5 359 -16 q 505 24 448 5 l 514 139 z "},"ţ":{"ha":587,"x_min":28,"x_max":569,"o":"m 286 222 q 283 194 283 205 q 385 120 283 120 q 514 139 438 120 l 505 24 q 404 -5 448 5 q 304 -16 359 -16 l 300 -16 l 276 -76 q 365 -129 340 -99 q 389 -203 389 -160 q 339 -316 389 -267 q 196 -365 288 -365 q 28 -332 122 -365 l 76 -215 l 153 -234 q 219 -245 203 -245 q 250 -222 250 -245 q 238 -200 250 -208 q 189 -179 226 -191 l 116 -156 l 181 10 q 113 146 113 49 q 123 240 113 193 l 181 536 l 52 536 l 78 667 l 207 667 l 243 858 l 410 858 l 373 667 l 569 667 l 543 536 l 347 536 l 286 222 z "},"ț":{"ha":587,"x_min":52,"x_max":569,"o":"m 52 0 m 514 139 q 385 120 438 120 q 283 194 283 120 q 286 222 283 205 l 347 536 l 543 536 l 569 667 l 373 667 l 410 858 l 243 858 l 207 667 l 78 667 l 52 536 l 181 536 l 123 240 q 113 146 113 177 q 155 28 113 71 q 304 -16 196 -16 q 404 -5 359 -16 q 505 24 448 5 l 514 139 m 80 -375 l 200 -375 l 372 -69 l 201 -69 l 80 -375 z "},"u":{"ha":813,"x_min":82,"x_max":760,"o":"m 630 -2 l 760 667 l 597 667 l 502 163 q 354 127 431 127 q 247 224 247 127 q 252 269 247 248 l 330 667 l 165 667 l 99 328 q 89 276 97 321 q 82 182 82 231 q 266 -16 82 -16 q 378 1 326 -16 q 500 49 431 17 l 514 -2 l 630 -2 z "},"ú":{"ha":813,"x_min":82,"x_max":760,"o":"m 82 0 m 630 -2 l 760 667 l 597 667 l 502 163 q 354 127 431 127 q 247 224 247 127 q 252 269 247 248 l 330 667 l 165 667 l 99 328 q 89 276 97 321 q 82 182 82 231 q 266 -16 82 -16 q 378 1 326 -16 q 500 49 431 17 l 514 -2 l 630 -2 m 335 726 l 705 972 l 623 1094 l 260 821 l 335 726 z "},"ŭ":{"ha":813,"x_min":82,"x_max":766,"o":"m 82 0 m 630 -2 l 760 667 l 597 667 l 502 163 q 354 127 431 127 q 247 224 247 127 q 252 269 247 248 l 330 667 l 165 667 l 99 328 q 89 276 97 321 q 82 182 82 231 q 266 -16 82 -16 q 378 1 326 -16 q 500 49 431 17 l 514 -2 l 630 -2 m 491 764 q 659 812 595 764 q 766 941 722 859 l 658 997 q 615 937 630 957 q 571 901 599 917 q 502 885 543 885 q 385 1000 420 885 l 276 951 q 347 819 295 875 q 491 764 399 764 z "},"û":{"ha":813,"x_min":82,"x_max":760,"o":"m 82 0 m 630 -2 l 760 667 l 597 667 l 502 163 q 354 127 431 127 q 247 224 247 127 q 252 269 247 248 l 330 667 l 165 667 l 99 328 q 89 276 97 321 q 82 182 82 231 q 266 -16 82 -16 q 378 1 326 -16 q 500 49 431 17 l 514 -2 l 630 -2 m 656 743 l 750 819 l 543 1104 l 253 840 l 326 747 l 524 920 l 656 743 z "},"ü":{"ha":813,"x_min":82,"x_max":760,"o":"m 82 0 m 630 -2 l 760 667 l 597 667 l 502 163 q 354 127 431 127 q 247 224 247 127 q 252 269 247 248 l 330 667 l 165 667 l 99 328 q 89 276 97 321 q 82 182 82 231 q 266 -16 82 -16 q 378 1 326 -16 q 500 49 431 17 l 514 -2 l 630 -2 m 337 773 q 281 795 304 773 q 259 851 259 818 q 260 872 259 865 q 293 923 266 901 q 352 944 319 944 q 407 923 385 944 q 429 866 429 901 q 402 800 429 828 q 337 773 375 773 m 609 773 q 554 795 576 773 q 531 851 531 818 q 533 872 531 865 q 565 923 538 901 q 625 944 592 944 q 680 923 658 944 q 701 866 701 901 q 674 800 701 828 q 609 773 648 773 z "},"ù":{"ha":813,"x_min":82,"x_max":760,"o":"m 82 0 m 630 -2 l 760 667 l 597 667 l 502 163 q 354 127 431 127 q 247 224 247 127 q 252 269 247 248 l 330 667 l 165 667 l 99 328 q 89 276 97 321 q 82 182 82 231 q 266 -16 82 -16 q 378 1 326 -16 q 500 49 431 17 l 514 -2 l 630 -2 m 606 726 l 693 804 l 439 1094 l 325 990 l 606 726 z "},"ű":{"ha":813,"x_min":82,"x_max":1003,"o":"m 267 726 l 637 972 l 556 1094 l 193 821 l 267 726 m 634 726 l 1003 972 l 922 1094 l 559 821 l 634 726 m 630 -2 l 760 667 l 597 667 l 502 163 q 354 127 431 127 q 247 224 247 127 q 252 269 247 248 l 330 667 l 165 667 l 99 328 q 89 276 97 321 q 82 182 82 231 q 266 -16 82 -16 q 378 1 326 -16 q 500 49 431 17 l 514 -2 l 630 -2 z "},"ū":{"ha":813,"x_min":82,"x_max":760,"o":"m 82 0 m 630 -2 l 760 667 l 597 667 l 502 163 q 354 127 431 127 q 247 224 247 127 q 252 269 247 248 l 330 667 l 165 667 l 99 328 q 89 276 97 321 q 82 182 82 231 q 266 -16 82 -16 q 378 1 326 -16 q 500 49 431 17 l 514 -2 l 630 -2 m 247 776 l 684 776 l 707 894 l 269 894 l 247 776 z "},"ų":{"ha":813,"x_min":82,"x_max":760,"o":"m 483 -243 q 548 -230 512 -243 q 609 -200 583 -217 l 639 -271 q 521 -327 576 -307 q 398 -347 465 -347 q 287 -314 332 -347 q 243 -233 243 -281 q 245 -214 243 -220 q 322 -98 259 -144 q 483 -9 385 -52 l 516 7 l 500 49 q 378 1 431 17 q 266 -16 326 -16 q 82 182 82 -16 q 89 276 82 231 q 99 328 97 321 l 165 667 l 330 667 l 252 269 q 247 224 247 248 q 354 127 247 127 q 502 163 431 127 l 597 667 l 760 667 l 632 2 q 480 -82 540 -42 q 411 -163 420 -122 q 410 -182 410 -170 q 430 -227 410 -210 q 483 -243 450 -243 z "},"ů":{"ha":813,"x_min":82,"x_max":760,"o":"m 82 0 m 630 -2 l 760 667 l 597 667 l 502 163 q 354 127 431 127 q 247 224 247 127 q 252 269 247 248 l 330 667 l 165 667 l 99 328 q 89 276 97 321 q 82 182 82 231 q 266 -16 82 -16 q 378 1 326 -16 q 500 49 431 17 l 514 -2 l 630 -2 m 689 939 q 647 1045 689 1005 q 542 1085 604 1085 q 383 1023 436 1085 q 330 872 330 960 q 373 770 330 811 q 479 729 417 729 q 635 792 580 729 q 689 939 689 854 m 516 977 q 560 961 545 977 q 575 917 575 944 q 573 896 575 903 q 549 856 569 873 q 505 839 530 839 q 443 899 443 839 q 444 920 443 913 q 469 960 448 943 q 516 977 490 977 z "},"ũ":{"ha":813,"x_min":82,"x_max":767,"o":"m 82 0 m 630 -2 l 760 667 l 597 667 l 502 163 q 354 127 431 127 q 247 224 247 127 q 252 269 247 248 l 330 667 l 165 667 l 99 328 q 89 276 97 321 q 82 182 82 231 q 266 -16 82 -16 q 378 1 326 -16 q 500 49 431 17 l 514 -2 l 630 -2 m 375 941 q 253 908 306 941 q 167 793 201 875 l 293 762 q 326 811 313 797 q 366 825 340 825 q 393 818 378 825 q 424 802 408 811 q 488 770 460 781 q 552 759 516 759 q 684 802 625 759 q 767 917 743 845 l 641 944 q 625 919 637 939 q 598 887 613 899 q 564 875 583 875 q 491 903 540 875 q 427 931 451 922 q 375 941 403 941 z "},"v":{"ha":724,"x_min":69,"x_max":741,"o":"m 559 667 l 307 175 l 241 667 l 69 667 l 194 0 l 368 0 l 741 667 l 559 667 z "},"w":{"ha":1137,"x_min":69,"x_max":1155,"o":"m 285 182 l 236 667 l 69 667 l 172 0 l 339 0 l 582 472 l 634 0 l 811 0 l 1155 667 l 981 667 l 750 182 l 703 667 l 521 667 l 285 182 z "},"x":{"ha":764,"x_min":0,"x_max":790,"o":"m 649 0 l 469 0 l 366 194 l 193 2 l 0 2 l 295 330 l 120 667 l 288 667 l 405 453 l 595 667 l 790 667 l 477 318 l 649 0 z "},"y":{"ha":771,"x_min":21,"x_max":788,"o":"m 219 -19 l 21 -358 l 181 -358 l 788 667 l 615 667 l 328 155 l 227 667 l 69 667 l 219 -19 z "},"ý":{"ha":771,"x_min":21,"x_max":788,"o":"m 21 0 m 219 -19 l 21 -358 l 181 -358 l 788 667 l 615 667 l 328 155 l 227 667 l 69 667 l 219 -19 m 269 726 l 639 972 l 557 1094 l 194 821 l 269 726 z "},"ŷ":{"ha":771,"x_min":21,"x_max":788,"o":"m 21 0 m 219 -19 l 21 -358 l 181 -358 l 788 667 l 615 667 l 328 155 l 227 667 l 69 667 l 219 -19 m 590 743 l 684 819 l 477 1104 l 188 840 l 260 747 l 458 920 l 590 743 z "},"ÿ":{"ha":771,"x_min":21,"x_max":788,"o":"m 21 0 m 219 -19 l 21 -358 l 181 -358 l 788 667 l 615 667 l 328 155 l 227 667 l 69 667 l 219 -19 m 271 773 q 215 795 238 773 q 193 851 193 818 q 194 872 193 865 q 227 923 200 901 q 286 944 253 944 q 341 923 319 944 q 363 866 363 901 q 336 800 363 828 q 271 773 309 773 m 543 773 q 488 795 510 773 q 465 851 465 818 q 467 872 465 865 q 499 923 472 901 q 559 944 526 944 q 614 923 592 944 q 635 866 635 901 q 609 800 635 828 q 543 773 582 773 z "},"z":{"ha":720,"x_min":52,"x_max":677,"o":"m 134 521 l 429 521 l 52 85 l 52 0 l 578 0 l 606 141 l 297 141 l 677 578 l 677 667 l 163 667 l 134 521 z "},"ź":{"ha":720,"x_min":52,"x_max":677,"o":"m 52 0 m 134 521 l 429 521 l 52 85 l 52 0 l 578 0 l 606 141 l 297 141 l 677 578 l 677 667 l 163 667 l 134 521 m 285 726 l 655 972 l 573 1094 l 210 821 l 285 726 z "},"ž":{"ha":720,"x_min":52,"x_max":712,"o":"m 52 0 m 134 521 l 429 521 l 52 85 l 52 0 l 578 0 l 606 141 l 297 141 l 677 578 l 677 667 l 163 667 l 134 521 m 309 1104 l 215 1028 l 422 743 l 712 1007 l 639 1101 l 441 927 l 309 1104 z "},"ż":{"ha":720,"x_min":52,"x_max":677,"o":"m 52 0 m 134 521 l 429 521 l 52 85 l 52 0 l 578 0 l 606 141 l 297 141 l 677 578 l 677 667 l 163 667 l 134 521 m 429 780 q 362 806 387 780 q 337 875 337 833 q 371 958 337 925 q 453 991 405 991 q 521 964 495 991 q 547 896 547 938 q 512 814 547 849 q 429 780 477 780 z "},"ﬁ":{"ha":958,"x_min":17,"x_max":958,"o":"m 840 780 q 773 806 799 780 q 748 875 748 833 q 782 958 748 925 q 865 991 816 991 q 932 964 906 991 q 958 896 958 938 q 924 814 958 849 q 840 780 889 780 m 43 667 l 17 536 l 146 536 l 49 0 l 207 0 l 306 536 l 542 536 l 568 667 l 337 667 l 349 729 q 393 806 358 781 q 505 830 429 830 q 582 823 549 830 l 635 944 q 510 962 568 962 q 325 930 392 962 q 227 845 257 898 q 181 714 196 792 l 172 667 l 43 667 m 611 0 l 778 0 l 908 667 l 741 667 l 611 0 z "},"ﬂ":{"ha":1042,"x_min":61,"x_max":997,"o":"m 87 667 l 61 536 l 189 536 l 92 0 l 250 0 l 349 536 l 585 536 l 611 667 l 380 667 l 392 729 q 437 806 401 781 q 549 830 472 830 q 681 807 613 830 l 733 927 q 554 962 632 962 q 368 930 436 962 q 270 845 300 898 q 224 714 240 792 l 215 667 l 87 667 m 918 115 q 851 182 851 115 q 856 226 851 203 l 997 955 l 833 955 l 681 167 q 674 104 674 125 q 807 -16 674 -16 q 897 -6 861 -16 q 967 19 932 3 l 997 125 q 918 115 958 115 z "},"´":{"ha":424,"x_min":-26,"x_max":418,"o":"m 49 726 l 418 972 l 337 1094 l -26 821 l 49 726 z "},"˘":{"ha":500,"x_min":7,"x_max":497,"o":"m 222 764 q 390 812 326 764 q 497 941 453 859 l 389 997 q 345 937 361 957 q 302 901 330 917 q 233 885 274 885 q 116 1000 151 885 l 7 951 q 78 819 26 875 q 222 764 130 764 z "},"ˇ":{"ha":497,"x_min":-5,"x_max":491,"o":"m 89 1104 l -5 1028 l 201 743 l 491 1007 l 418 1101 l 220 927 l 89 1104 z "},"¸":{"ha":373,"x_min":-215,"x_max":146,"o":"m -24 -245 q -90 -234 -40 -245 l -167 -215 l -215 -332 q -47 -365 -122 -365 q 95 -316 45 -365 q 146 -203 146 -267 q 122 -129 146 -160 q 33 -76 97 -99 l 80 45 l -49 45 l -127 -156 l -54 -179 q -6 -200 -19 -191 q 7 -222 7 -208 q -24 -245 7 -245 z "},"ˆ":{"ha":497,"x_min":-17,"x_max":479,"o":"m 385 743 l 479 819 l 273 1104 l -17 840 l 56 747 l 253 920 l 385 743 z "},"¨":{"ha":458,"x_min":-10,"x_max":432,"o":"m 68 773 q 12 795 35 773 q -10 851 -10 818 q -9 872 -10 865 q 23 923 -3 901 q 83 944 50 944 q 138 923 116 944 q 160 866 160 901 q 133 800 160 828 q 68 773 106 773 m 340 773 q 285 795 307 773 q 262 851 262 818 q 264 872 262 865 q 296 923 269 901 q 356 944 323 944 q 411 923 389 944 q 432 866 432 901 q 405 800 432 828 q 340 773 378 773 z "},"˙":{"ha":229,"x_min":-3,"x_max":207,"o":"m 89 780 q 22 806 47 780 q -3 875 -3 833 q 30 958 -3 925 q 113 991 64 991 q 181 964 155 991 q 207 896 207 938 q 172 814 207 849 q 89 780 137 780 z "},"`":{"ha":424,"x_min":-3,"x_max":365,"o":"m 278 726 l 365 804 l 111 1094 l -3 990 l 278 726 z "},"˝":{"ha":771,"x_min":-212,"x_max":599,"o":"m 0 726 m -137 726 l 233 972 l 151 1094 l -212 821 l -137 726 m 229 726 l 599 972 l 517 1094 l 155 821 l 229 726 z "},"¯":{"ha":455,"x_min":-26,"x_max":434,"o":"m -26 776 l 411 776 l 434 894 l -3 894 l -26 776 z "},"˛":{"ha":476,"x_min":17,"x_max":458,"o":"m 382 59 q 31 -205 90 -45 q 17 -269 17 -241 q 52 -351 17 -319 q 156 -382 87 -382 q 262 -368 217 -382 q 345 -336 307 -354 q 399 -311 384 -318 l 401 -243 q 339 -263 372 -253 q 283 -273 307 -273 q 220 -254 240 -273 q 200 -205 200 -236 q 208 -158 200 -184 q 290 -57 231 -102 q 458 28 349 -12 l 382 59 z "},"˚":{"ha":366,"x_min":-5,"x_max":354,"o":"m 354 939 q 312 1045 354 1005 q 207 1085 269 1085 q 48 1023 101 1085 q -5 872 -5 960 q 38 770 -5 811 q 144 729 82 729 q 299 792 245 729 q 354 939 354 854 m 181 977 q 225 961 210 977 q 240 917 240 944 q 238 896 240 903 q 214 856 234 873 q 170 839 194 839 q 108 899 108 839 q 109 920 108 913 q 134 960 113 943 q 181 977 155 977 z "},"˜":{"ha":582,"x_min":-26,"x_max":575,"o":"m 182 941 q 61 908 113 941 q -26 793 9 875 l 101 762 q 134 811 120 797 q 174 825 148 825 q 201 818 186 825 q 231 802 215 811 q 295 770 267 781 q 359 759 323 759 q 491 802 432 759 q 575 917 550 845 l 448 944 q 432 919 444 939 q 405 887 420 899 q 372 875 391 875 q 299 903 347 875 q 234 931 259 922 q 182 941 210 941 z "},"̦":{"ha":0,"x_min":-248,"x_max":43,"o":"m -248 -377 l -128 -377 l 43 -71 l -127 -71 l -248 -377 z "},"ˉ":{"ha":616,"x_min":78,"x_max":538,"o":"m 78 776 m 78 776 l 516 776 l 538 894 l 101 894 l 78 776 z "},"ª":{"ha":486,"x_min":52,"x_max":434,"o":"m 278 962 q 128 938 220 962 l 128 868 q 243 884 203 884 q 312 869 292 884 q 332 821 332 854 q 328 785 332 799 l 255 785 q 96 738 141 785 q 52 630 52 691 q 84 557 52 587 q 170 528 116 528 q 302 566 236 528 l 313 535 l 385 535 l 429 797 q 434 844 434 821 q 398 931 434 901 q 278 962 361 962 m 304 627 q 224 604 273 604 q 174 619 193 604 q 155 656 155 634 q 241 719 155 717 l 319 719 l 304 627 z "},"º":{"ha":524,"x_min":52,"x_max":472,"o":"m 233 524 q 415 602 358 524 q 472 781 472 681 q 423 911 472 859 q 295 964 373 964 q 153 923 207 964 q 76 823 99 882 q 52 705 52 764 q 103 576 52 628 q 233 524 155 524 m 281 884 q 345 856 321 884 q 368 778 368 828 q 336 660 368 714 q 245 606 304 606 q 182 634 207 606 q 158 710 158 661 q 191 829 158 774 q 281 884 224 884 z "},"⁄":{"ha":698,"x_min":-122,"x_max":819,"o":"m 35 -35 l 819 990 l 668 990 l -122 -35 l 35 -35 z "},"½":{"ha":1109,"x_min":43,"x_max":1040,"o":"m 198 0 l 986 955 l 837 955 l 43 0 l 198 0 m 99 898 l 123 800 l 227 828 l 151 415 l 273 415 l 377 955 l 286 955 l 99 898 m 720 398 q 785 424 757 415 q 844 434 813 434 q 920 372 920 434 q 854 241 920 306 q 674 95 788 177 l 634 68 l 634 0 l 993 0 l 1014 99 l 840 99 q 992 255 944 186 q 1040 389 1040 325 q 997 499 1040 451 q 878 547 953 547 q 787 536 825 547 q 707 505 750 526 l 720 398 z "},"¼":{"ha":1076,"x_min":43,"x_max":1007,"o":"m 198 0 l 986 955 l 837 955 l 43 0 l 198 0 m 99 898 l 123 800 l 227 828 l 151 415 l 273 415 l 377 955 l 286 955 l 99 898 m 543 203 l 543 109 l 780 109 l 759 0 l 872 0 l 892 109 l 986 109 l 1007 214 l 913 214 l 976 536 l 844 536 l 543 203 m 833 380 l 797 214 l 686 214 l 833 380 z "},"¾":{"ha":1179,"x_min":43,"x_max":1109,"o":"m 224 622 q 316 571 316 622 q 297 525 316 540 q 231 510 278 510 q 104 540 168 510 l 43 438 q 219 396 146 396 q 385 442 335 396 q 436 559 436 488 q 418 628 436 592 q 377 677 401 663 q 444 744 424 710 q 465 828 465 778 q 421 922 465 889 q 306 955 377 955 q 142 911 234 955 l 160 802 q 290 837 234 837 q 332 826 316 837 q 347 793 347 814 q 326 744 347 759 q 252 729 306 729 l 207 729 l 186 622 l 224 622 m 300 0 l 1089 955 l 939 955 l 146 0 l 300 0 m 646 203 l 646 109 l 882 109 l 861 0 l 974 0 l 995 109 l 1089 109 l 1109 214 l 1016 214 l 1078 536 l 946 536 l 646 203 m 936 380 l 899 214 l 788 214 l 936 380 z "},"¹":{"ha":347,"x_min":26,"x_max":304,"o":"m 26 960 l 50 863 l 155 891 l 78 477 l 200 477 l 304 1017 l 214 1017 l 26 960 z "},"²":{"ha":493,"x_min":52,"x_max":458,"o":"m 139 877 q 203 904 175 894 q 262 913 231 913 q 339 851 339 913 q 273 720 339 785 q 92 575 207 656 l 52 547 l 52 479 l 411 479 l 432 578 l 259 578 q 411 734 363 665 q 458 868 458 804 q 415 978 458 931 q 297 1026 372 1026 q 206 1016 243 1026 q 125 984 168 1005 l 139 877 z "},"³":{"ha":535,"x_min":61,"x_max":483,"o":"m 241 700 q 333 649 333 700 q 314 603 333 618 q 248 589 295 589 q 122 618 186 589 l 61 516 q 236 474 163 474 q 403 520 352 474 q 453 637 453 566 q 436 706 453 670 q 394 755 418 741 q 462 822 441 788 q 483 906 483 856 q 438 1000 483 967 q 323 1033 394 1033 q 160 990 252 1033 l 177 880 q 307 915 252 915 q 349 904 333 915 q 365 872 365 892 q 344 822 365 837 q 269 807 323 807 l 224 807 l 203 700 l 241 700 z "},"ऄ":{"ha":1069,"x_min":-52,"x_max":1111,"o":"m 936 688 l 802 0 l 655 0 l 708 278 q 622 262 665 262 q 536 278 578 262 q 530 226 536 267 q 437 77 512 134 q 248 21 361 21 q 107 55 161 21 q 19 146 52 89 q -52 306 -14 203 l 68 363 q 120 240 99 280 q 172 175 141 200 q 255 151 203 151 q 359 182 319 151 q 408 267 398 214 q 410 292 410 276 q 283 375 410 375 l 264 375 l 226 375 l 250 498 l 285 498 q 420 532 384 498 q 467 615 457 566 q 469 632 469 622 q 394 682 469 682 q 241 616 330 682 l 179 726 q 296 787 240 766 q 417 809 352 809 q 551 764 502 809 q 601 646 601 719 q 556 509 601 564 q 438 432 510 453 l 439 431 q 448 427 444 431 q 609 385 545 385 q 736 422 672 385 l 788 688 l 686 688 l 710 809 l 813 809 q 781 860 811 845 q 677 875 752 875 q 518 926 580 875 q 457 1076 457 977 q 460 1118 457 1090 l 590 1153 q 599 1049 587 1082 q 635 1008 611 1016 q 705 1000 658 1000 q 887 953 818 1000 q 951 809 957 906 l 1111 809 l 1087 688 l 936 688 z "},"ॲ":{"ha":1069,"x_min":-52,"x_max":1198,"o":"m 0 0 m 936 688 l 802 0 l 655 0 l 708 278 q 622 262 665 262 q 536 278 578 262 q 530 226 536 267 q 437 77 512 134 q 248 21 361 21 q 107 55 161 21 q 19 146 52 89 q -52 306 -14 203 l 68 363 q 120 240 99 280 q 172 175 141 200 q 255 151 203 151 q 359 182 319 151 q 408 267 398 214 q 410 292 410 276 q 283 375 410 375 l 264 375 l 226 375 l 250 498 l 285 498 q 420 532 384 498 q 467 615 457 566 q 469 632 469 622 q 394 682 469 682 q 241 616 330 682 l 179 726 q 296 787 240 766 q 417 809 352 809 q 551 764 502 809 q 601 646 601 719 q 556 509 601 564 q 438 432 510 453 l 439 431 q 448 427 444 431 q 609 385 545 385 q 736 422 672 385 l 788 688 l 686 688 l 710 809 l 1111 809 l 1087 688 l 936 688 m 913 901 q 751 954 809 901 q 684 1089 693 1007 l 792 1125 q 920 1012 814 1012 q 1097 1137 1024 1012 l 1198 1078 q 1088 950 1161 998 q 913 901 1014 901 z "},"अ":{"ha":1069,"x_min":-52,"x_max":1111,"o":"m 936 688 l 802 0 l 655 0 l 708 278 q 622 262 665 262 q 536 278 578 262 q 530 226 536 267 q 437 77 512 134 q 248 21 361 21 q 107 55 161 21 q 19 146 52 89 q -52 306 -14 203 l 68 363 q 120 240 99 280 q 172 175 141 200 q 255 151 203 151 q 359 182 319 151 q 408 267 398 214 q 410 292 410 276 q 283 375 410 375 l 264 375 l 226 375 l 250 498 l 285 498 q 420 532 384 498 q 467 615 457 566 q 469 632 469 622 q 394 682 469 682 q 241 616 330 682 l 179 726 q 296 787 240 766 q 417 809 352 809 q 551 764 502 809 q 601 646 601 719 q 556 509 601 564 q 438 432 510 453 l 439 431 q 448 427 444 431 q 609 385 545 385 q 736 422 672 385 l 788 688 l 686 688 l 710 809 l 1111 809 l 1087 688 l 936 688 z "},"आ":{"ha":1464,"x_min":-52,"x_max":1505,"o":"m 1330 688 l 1196 0 l 1049 0 l 1182 688 l 936 688 l 802 0 l 655 0 l 708 278 q 622 262 665 262 q 536 278 578 262 q 530 226 536 267 q 437 77 512 134 q 248 21 361 21 q 107 55 161 21 q 19 146 52 89 q -52 306 -14 203 l 68 363 q 120 240 99 280 q 172 175 141 200 q 255 151 203 151 q 359 182 319 151 q 408 267 398 214 q 410 292 410 276 q 283 375 410 375 l 264 375 l 226 375 l 250 498 l 285 498 q 420 532 384 498 q 467 615 457 566 q 469 632 469 622 q 394 682 469 682 q 241 616 330 682 l 179 726 q 296 787 240 766 q 417 809 352 809 q 551 764 502 809 q 601 646 601 719 q 556 509 601 564 q 438 432 510 453 l 439 431 q 448 427 444 431 q 609 385 545 385 q 736 422 672 385 l 788 688 l 686 688 l 710 809 l 1505 809 l 1481 688 l 1330 688 z "},"इ":{"ha":679,"x_min":-57,"x_max":720,"o":"m 547 688 l 509 477 l 491 465 q 446 472 464 469 q 286 484 358 484 q 189 471 220 484 q 153 429 158 458 q 181 391 148 399 q 286 387 214 384 q 449 353 391 392 q 507 238 507 314 q 503 196 507 210 q 404 49 484 104 q 203 -5 323 -5 l 290 -128 l 156 -207 l 50 23 q -28 74 2 42 q -57 142 -57 106 q -56 161 -57 155 q 61 240 -40 240 l 127 130 q 191 122 151 122 q 315 148 271 122 q 366 214 359 175 q 288 259 373 259 l 259 257 l 224 255 q 69 293 125 255 q 14 408 12 332 q 17 446 14 432 q 104 569 33 530 q 280 609 175 609 q 394 604 339 609 l 411 688 l -42 688 l -17 809 l 720 809 l 696 688 l 547 688 z "},"ई":{"ha":679,"x_min":-57,"x_max":790,"o":"m 481 938 q 554 809 481 868 l 720 809 l 696 688 l 547 688 l 509 477 l 491 465 q 446 472 464 469 q 286 484 358 484 q 189 471 220 484 q 153 429 158 458 q 181 391 148 399 q 286 387 214 384 q 449 353 391 392 q 507 238 507 314 q 503 196 507 210 q 404 49 484 104 q 203 -5 323 -5 l 290 -128 l 156 -207 l 50 23 q -28 74 2 42 q -57 142 -57 106 q -56 161 -57 155 q 61 240 -40 240 l 127 130 q 191 122 151 122 q 315 148 271 122 q 366 214 359 175 q 288 259 373 259 l 259 257 l 224 255 q 69 293 125 255 q 14 408 12 332 q 17 446 14 432 q 104 569 33 530 q 280 609 175 609 q 394 604 340 609 l 411 688 l -42 688 l -17 809 l 410 809 q 358 939 358 866 q 421 1099 358 1036 q 601 1161 484 1161 q 709 1142 660 1161 q 790 1095 759 1123 l 703 1000 q 653 1027 677 1017 q 594 1036 628 1036 q 481 938 481 1036 z "},"उ":{"ha":766,"x_min":-42,"x_max":807,"o":"m 613 688 q 625 622 625 661 q 622 580 625 594 q 570 487 611 528 q 469 424 530 446 q 536 361 509 406 q 563 255 563 316 q 557 205 563 231 q 461 60 542 120 q 267 0 380 0 q 124 34 181 0 q 31 127 68 68 q -42 285 -5 186 l 75 339 q 128 216 106 257 q 183 152 149 175 q 273 128 217 128 q 381 161 337 128 q 436 247 425 193 q 438 269 438 253 q 404 339 438 311 q 300 366 370 368 l 285 366 l 247 366 l 271 490 l 306 490 q 446 528 405 490 q 498 615 488 566 q 500 630 500 620 q 478 672 500 656 q 415 688 457 688 l -38 688 l -14 809 l 807 809 l 783 688 l 613 688 z "},"ऊ":{"ha":1019,"x_min":-42,"x_max":1061,"o":"m 613 688 q 625 622 625 661 q 622 580 625 594 q 570 487 611 528 q 469 424 530 446 q 512 392 495 411 q 598 462 547 431 q 712 493 649 493 q 833 451 786 493 q 880 333 880 408 q 826 173 880 240 q 701 66 773 106 q 670 114 691 82 q 637 161 649 146 q 717 226 689 196 q 753 307 745 255 q 755 323 755 313 q 700 372 755 372 q 629 347 661 372 q 561 281 597 323 l 563 255 q 557 205 563 231 q 461 60 542 120 q 267 0 380 0 q 124 34 181 0 q 31 127 68 68 q -42 285 -5 186 l 75 339 q 128 216 106 257 q 183 152 149 175 q 273 128 217 128 q 381 161 337 128 q 436 247 425 193 q 438 269 438 253 q 404 339 438 311 q 300 366 370 368 l 285 366 l 247 366 l 271 490 l 306 490 q 446 528 405 490 q 498 615 488 566 q 500 630 500 620 q 478 672 500 656 q 415 688 457 688 l -38 688 l -14 809 l 1061 809 l 1036 688 l 613 688 z "},"ऋ":{"ha":1170,"x_min":-42,"x_max":1212,"o":"m 623 434 q 688 424 658 424 q 793 453 747 424 l 750 556 q 880 601 811 601 q 946 575 920 601 q 972 509 972 549 q 970 486 972 493 q 936 410 960 441 l 986 274 l 988 274 l 988 273 l 939 177 l 903 177 q 836 161 865 177 q 802 115 807 144 q 809 82 797 92 q 849 73 821 73 q 892 80 868 73 q 932 94 917 87 l 967 -24 q 905 -44 939 -36 q 839 -52 870 -52 q 715 -13 757 -52 q 674 92 674 26 q 720 220 674 165 q 851 292 767 276 l 835 332 q 696 292 760 292 q 597 306 635 292 l 538 0 l 396 0 l 444 253 q 227 88 340 174 q 113 3 115 2 q 57 76 111 2 q 43 96 49 89 q 35 106 36 104 l 431 392 q 304 451 377 451 q 211 426 255 453 q 130 368 167 399 q 82 326 94 337 l -14 432 q 153 554 80 512 q 316 595 226 595 q 497 512 410 595 l 530 688 l -42 688 l -17 809 l 1212 809 l 1188 688 l 672 688 l 623 434 z "},"ॠ":{"ha":1170,"x_min":-42,"x_max":1212,"o":"m 623 434 q 688 424 658 424 q 793 453 747 424 l 750 556 q 880 601 811 601 q 946 575 920 601 q 972 509 972 549 q 970 486 972 493 q 936 410 960 441 l 986 274 l 988 274 l 988 273 l 939 177 l 903 177 q 836 161 865 177 q 802 115 807 144 q 815 80 797 90 q 887 69 833 69 l 934 69 l 911 -49 l 877 -49 q 810 -65 839 -49 q 776 -111 781 -82 q 783 -143 771 -134 q 823 -153 795 -153 q 903 -132 861 -153 l 939 -248 q 813 -276 880 -276 q 688 -239 731 -276 q 646 -142 646 -201 q 668 -59 646 -94 q 726 2 689 -24 q 690 49 703 26 q 677 109 677 73 q 681 146 677 118 q 735 237 689 196 q 851 292 781 278 l 835 332 q 696 292 760 292 q 597 306 635 292 l 538 0 l 396 0 l 444 253 q 227 88 340 174 q 113 3 115 2 q 57 76 111 2 q 43 96 49 89 q 35 106 36 104 l 431 392 q 304 451 377 451 q 211 426 255 453 q 130 368 167 399 q 82 326 94 337 l -14 432 q 153 554 80 512 q 316 595 226 595 q 497 512 410 595 l 530 688 l -42 688 l -17 809 l 1212 809 l 1188 688 l 672 688 l 623 434 z "},"ऌ":{"ha":988,"x_min":-42,"x_max":1030,"o":"m 703 516 q 775 456 750 495 q 800 365 800 417 q 795 319 800 342 q 755 230 786 267 q 672 148 724 193 q 615 91 634 113 q 592 47 597 69 l 592 38 q 623 14 592 14 q 670 23 649 14 q 707 44 691 33 q 733 61 724 56 l 785 -52 q 609 -115 700 -115 q 493 -73 533 -115 q 453 30 453 -31 q 477 121 453 82 q 547 210 500 160 q 575 233 549 212 q 636 292 616 267 q 656 352 656 316 q 576 401 656 401 q 496 366 528 401 q 450 269 464 332 q 439 182 439 207 q 377 198 439 184 q 311 215 309 212 l 323 306 q 339 363 328 337 q 273 399 313 399 q 141 281 163 399 q 137 253 137 264 q 172 128 137 194 q 241 17 207 61 l 102 -38 q 74 6 102 -42 q 22 118 45 54 q -2 250 -2 182 q 3 311 -2 280 q 96 478 24 417 q 266 540 168 540 q 418 484 358 540 q 568 536 476 531 l 597 688 l -42 688 l -17 809 l 1030 809 l 1005 688 l 736 688 l 703 516 z "},"ॡ":{"ha":988,"x_min":-42,"x_max":1030,"o":"m 703 516 q 777 456 752 495 q 802 365 802 417 q 773 256 802 302 q 688 155 743 210 q 649 125 679 148 q 602 81 620 102 q 580 40 583 59 q 589 5 575 17 q 646 -7 604 -7 l 710 -7 l 688 -122 l 642 -122 q 526 -186 540 -122 q 536 -220 523 -208 q 575 -231 550 -231 q 701 -198 632 -231 l 747 -306 q 571 -349 660 -349 q 445 -310 490 -349 q 401 -212 401 -271 q 427 -123 401 -156 q 502 -59 453 -90 q 455 42 455 -16 q 458 75 455 50 q 484 134 465 106 q 547 210 502 161 q 575 233 549 212 q 636 292 616 267 q 656 352 656 316 q 576 401 656 401 q 496 366 528 401 q 450 269 464 332 q 439 182 439 207 q 377 198 439 184 q 311 215 309 212 l 323 306 q 339 363 328 337 q 273 399 313 399 q 141 281 163 399 q 137 253 137 264 q 172 128 137 194 q 241 17 207 61 l 102 -38 q 74 6 102 -42 q 22 118 45 54 q -2 250 -2 182 q 3 311 -2 280 q 96 478 24 417 q 266 540 168 540 q 418 484 358 540 q 568 536 476 531 l 597 688 l -42 688 l -17 809 l 1030 809 l 1005 688 l 736 688 l 703 516 z "},"ऍ":{"ha":786,"x_min":-42,"x_max":828,"o":"m 0 0 m 658 688 l 609 434 q 547 283 589 332 q 413 200 505 234 l 361 330 q 422 364 401 344 q 452 411 443 384 q 476 498 462 439 l 512 688 l 234 688 l 160 309 l 491 -14 l 394 -108 l 9 264 l 89 688 l -42 688 l -17 809 l 828 809 l 804 688 l 658 688 m 422 901 q 260 954 318 901 q 193 1089 201 1007 l 300 1125 q 429 1012 323 1012 q 606 1137 533 1012 l 707 1078 q 596 950 670 998 q 422 901 523 901 z "},"ऎ":{"ha":786,"x_min":-42,"x_max":828,"o":"m 658 688 l 609 434 q 547 283 589 332 q 413 200 505 234 l 361 330 q 422 364 401 344 q 452 411 443 384 q 476 498 462 439 l 512 688 l 234 688 l 160 309 l 491 -14 l 394 -108 l 9 264 l 89 688 l -42 688 l -17 809 l 483 809 q 453 864 483 849 q 347 878 424 878 q 188 928 250 878 q 127 1076 127 977 q 130 1118 127 1090 l 260 1153 q 273 1044 257 1076 q 337 1005 288 1012 q 365 1004 349 1005 q 415 1003 382 1003 q 563 955 500 1003 q 623 809 625 906 l 828 809 l 804 688 l 658 688 z "},"ए":{"ha":786,"x_min":-42,"x_max":828,"o":"m 658 688 l 609 434 q 547 283 589 332 q 413 200 505 234 l 361 330 q 422 364 401 344 q 452 411 443 384 q 476 498 462 439 l 512 688 l 234 688 l 160 309 l 491 -14 l 394 -108 l 9 264 l 89 688 l -42 688 l -17 809 l 828 809 l 804 688 l 658 688 z "},"ऐ":{"ha":800,"x_min":-42,"x_max":828,"o":"m 658 688 l 609 434 q 547 283 589 332 q 413 200 505 234 l 361 330 q 422 364 401 344 q 452 411 443 384 q 476 498 462 439 l 512 688 l 234 688 l 160 309 l 491 -14 l 394 -108 l 9 264 l 89 688 l -42 688 l -17 809 l 509 809 l 422 955 q 383 1004 398 991 q 344 1017 368 1017 q 262 1005 300 1017 l 220 1120 q 286 1138 260 1132 q 340 1144 311 1144 q 446 1115 403 1144 q 533 1017 490 1085 l 660 809 l 828 809 l 804 688 l 658 688 z "},"ऑ":{"ha":1464,"x_min":-52,"x_max":1623,"o":"m 0 0 m 1330 688 l 1196 0 l 1049 0 l 1182 688 l 936 688 l 802 0 l 655 0 l 708 278 q 622 262 665 262 q 536 278 578 262 q 530 226 536 267 q 437 77 512 134 q 248 21 361 21 q 107 55 161 21 q 19 146 52 89 q -52 306 -14 203 l 68 363 q 120 240 99 280 q 172 175 141 200 q 255 151 203 151 q 359 182 319 151 q 408 267 398 214 q 410 292 410 276 q 283 375 410 375 l 264 375 l 226 375 l 250 498 l 285 498 q 420 532 384 498 q 467 615 457 566 q 469 632 469 622 q 394 682 469 682 q 241 616 330 682 l 179 726 q 296 787 240 766 q 417 809 352 809 q 551 764 502 809 q 601 646 601 719 q 556 509 601 564 q 438 432 510 453 l 439 431 q 448 427 444 431 q 609 385 545 385 q 736 422 672 385 l 788 688 l 686 688 l 710 809 l 1505 809 l 1481 688 l 1330 688 m 1339 901 q 1176 954 1234 901 q 1109 1089 1118 1007 l 1217 1125 q 1345 1012 1240 1012 q 1523 1137 1450 1012 l 1623 1078 q 1513 950 1587 998 q 1339 901 1439 901 z "},"ओ":{"ha":1464,"x_min":-52,"x_max":1505,"o":"m 1330 688 l 1196 0 l 1049 0 l 1182 688 l 936 688 l 802 0 l 655 0 l 708 278 q 622 262 665 262 q 536 278 578 262 q 530 226 536 267 q 437 77 512 134 q 248 21 361 21 q 107 55 161 21 q 19 146 52 89 q -52 306 -14 203 l 68 363 q 120 240 99 280 q 172 175 141 200 q 255 151 203 151 q 359 182 319 151 q 408 267 398 214 q 410 292 410 276 q 283 375 410 375 l 264 375 l 226 375 l 250 498 l 285 498 q 420 532 384 498 q 467 615 457 566 q 469 632 469 622 q 394 682 469 682 q 241 616 330 682 l 179 726 q 296 787 240 766 q 417 809 352 809 q 551 764 502 809 q 601 646 601 719 q 556 509 601 564 q 438 432 510 453 l 439 431 q 448 427 444 431 q 609 385 545 385 q 736 422 672 385 l 788 688 l 686 688 l 710 809 l 1194 809 l 1108 955 q 1069 1004 1083 991 q 1030 1017 1054 1017 q 948 1005 986 1017 l 906 1120 q 971 1138 946 1132 q 1026 1144 997 1144 q 1132 1115 1089 1144 q 1219 1017 1175 1085 l 1345 809 l 1505 809 l 1481 688 l 1330 688 z "},"औ":{"ha":1464,"x_min":-52,"x_max":1505,"o":"m 1330 688 l 1196 0 l 1049 0 l 1182 688 l 936 688 l 802 0 l 655 0 l 708 278 q 622 262 665 262 q 536 278 578 262 q 530 226 536 267 q 437 77 512 134 q 248 21 361 21 q 107 55 161 21 q 19 146 52 89 q -52 306 -14 203 l 68 363 q 120 240 99 280 q 172 175 141 200 q 255 151 203 151 q 359 182 319 151 q 408 267 398 214 q 410 292 410 276 q 283 375 410 375 l 264 375 l 226 375 l 250 498 l 285 498 q 420 532 384 498 q 467 615 457 566 q 469 632 469 622 q 394 682 469 682 q 241 616 330 682 l 179 726 q 296 787 240 766 q 417 809 352 809 q 551 764 502 809 q 601 646 601 719 q 556 509 601 564 q 438 432 510 453 l 439 431 q 448 427 444 431 q 609 385 545 385 q 736 422 672 385 l 788 688 l 686 688 l 710 809 l 1194 809 l 1137 861 q 1097 896 1144 856 q 1052 931 1066 922 q 1023 941 1038 941 q 976 933 1003 941 q 938 922 948 925 l 927 1035 q 970 1051 938 1040 q 1030 1063 1002 1063 q 1095 1042 1066 1063 q 1168 976 1125 1021 l 1200 944 l 1295 856 l 1262 988 q 1250 1030 1259 998 q 1227 1076 1241 1061 q 1191 1092 1212 1092 q 1108 1082 1155 1092 l 1104 1196 q 1142 1204 1113 1198 q 1196 1210 1172 1210 q 1306 1169 1266 1210 q 1359 1038 1345 1128 l 1401 809 l 1505 809 l 1481 688 l 1330 688 z "},"ॳ":{"ha":1069,"x_min":-52,"x_max":1111,"o":"m 936 688 l 802 0 l 655 0 l 708 278 q 622 262 665 262 q 536 278 578 262 q 530 226 536 267 q 437 77 512 134 q 248 21 361 21 q 107 55 161 21 q 19 146 52 89 q -52 306 -14 203 l 68 363 q 120 240 99 280 q 172 175 141 200 q 255 151 203 151 q 359 182 319 151 q 408 267 398 214 q 410 292 410 276 q 283 375 410 375 l 264 375 l 226 375 l 250 498 l 285 498 q 420 532 384 498 q 467 615 457 566 q 469 632 469 622 q 394 682 469 682 q 241 616 330 682 l 179 726 q 296 787 240 766 q 417 809 352 809 q 551 764 502 809 q 601 646 601 719 q 556 509 601 564 q 438 432 510 453 l 439 431 q 448 427 444 431 q 609 385 545 385 q 736 422 672 385 l 788 688 l 686 688 l 710 809 l 814 809 l 845 972 l 993 972 l 962 809 l 1111 809 l 1087 688 l 936 688 z "},"ॴ":{"ha":1464,"x_min":-52,"x_max":1505,"o":"m 1330 688 l 1196 0 l 1049 0 l 1182 688 l 936 688 l 802 0 l 655 0 l 708 278 q 622 262 665 262 q 536 278 578 262 q 530 226 536 267 q 437 77 512 134 q 248 21 361 21 q 107 55 161 21 q 19 146 52 89 q -52 306 -14 203 l 68 363 q 120 240 99 280 q 172 175 141 200 q 255 151 203 151 q 359 182 319 151 q 408 267 398 214 q 410 292 410 276 q 283 375 410 375 l 264 375 l 226 375 l 250 498 l 285 498 q 420 532 384 498 q 467 615 457 566 q 469 632 469 622 q 394 682 469 682 q 241 616 330 682 l 179 726 q 296 787 240 766 q 417 809 352 809 q 551 764 502 809 q 601 646 601 719 q 556 509 601 564 q 438 432 510 453 l 439 431 q 448 427 444 431 q 609 385 545 385 q 736 422 672 385 l 788 688 l 686 688 l 710 809 l 1205 809 l 1236 972 l 1384 972 l 1352 809 l 1505 809 l 1481 688 l 1330 688 z "},"ॵ":{"ha":1464,"x_min":-52,"x_max":1505,"o":"m 1330 688 l 1196 0 l 1049 0 l 1182 688 l 936 688 l 802 0 l 655 0 l 708 278 q 622 262 665 262 q 536 278 578 262 q 530 226 536 267 q 437 77 512 134 q 248 21 361 21 q 107 55 161 21 q 19 146 52 89 q -52 306 -14 203 l 68 363 q 120 240 99 280 q 172 175 141 200 q 255 151 203 151 q 359 182 319 151 q 408 267 398 214 q 410 292 410 276 q 283 375 410 375 l 264 375 l 226 375 l 250 498 l 285 498 q 420 532 384 498 q 467 615 457 566 q 469 632 469 622 q 394 682 469 682 q 241 616 330 682 l 179 726 q 296 787 240 766 q 417 809 352 809 q 551 764 502 809 q 601 646 601 719 q 556 509 601 564 q 438 432 510 453 l 439 431 q 448 427 444 431 q 609 385 545 385 q 736 422 672 385 l 788 688 l 686 688 l 710 809 l 1155 809 q 1122 861 1153 847 q 1007 875 1090 875 q 854 926 911 875 q 797 1076 797 977 q 800 1122 797 1090 l 917 1153 q 923 1044 913 1078 q 960 998 932 1010 q 1049 986 988 986 q 1212 945 1146 986 q 1278 811 1278 905 l 1292 837 q 1316 901 1311 878 q 1302 952 1321 932 q 1241 995 1283 972 q 1191 1026 1205 1014 q 1115 1087 1141 1056 q 1090 1174 1090 1118 q 1095 1227 1090 1196 q 1120 1307 1102 1271 l 1238 1299 q 1226 1264 1234 1286 q 1214 1222 1217 1241 q 1210 1191 1210 1198 q 1226 1141 1210 1160 q 1278 1097 1241 1123 q 1336 1070 1288 1092 q 1411 1011 1384 1049 q 1438 924 1438 974 q 1432 878 1438 905 q 1408 809 1431 852 l 1505 809 l 1481 688 l 1330 688 z "},"ॶ":{"ha":1069,"x_min":-52,"x_max":1111,"o":"m 0 0 m 936 688 l 802 0 l 655 0 l 708 278 q 622 262 665 262 q 536 278 578 262 q 530 226 536 267 q 437 77 512 134 q 248 21 361 21 q 107 55 161 21 q 19 146 52 89 q -52 306 -14 203 l 68 363 q 120 240 99 280 q 172 175 141 200 q 255 151 203 151 q 359 182 319 151 q 408 267 398 214 q 410 292 410 276 q 283 375 410 375 l 264 375 l 226 375 l 250 498 l 285 498 q 420 532 384 498 q 467 615 457 566 q 469 632 469 622 q 394 682 469 682 q 241 616 330 682 l 179 726 q 296 787 240 766 q 417 809 352 809 q 551 764 502 809 q 601 646 601 719 q 556 509 601 564 q 438 432 510 453 l 439 431 q 448 427 444 431 q 609 385 545 385 q 736 422 672 385 l 788 688 l 686 688 l 710 809 l 1111 809 l 1087 688 l 936 688 m 424 -245 q 278 -197 330 -245 q 208 -76 226 -149 l 311 -30 q 353 -103 326 -78 q 429 -128 380 -128 q 522 -103 483 -128 q 594 -30 561 -78 l 682 -99 q 424 -245 594 -245 z "},"ॷ":{"ha":1069,"x_min":-52,"x_max":1111,"o":"m 0 0 m 936 688 l 802 0 l 655 0 l 708 278 q 622 262 665 262 q 536 278 578 262 q 530 226 536 267 q 437 77 512 134 q 248 21 361 21 q 107 55 161 21 q 19 146 52 89 q -52 306 -14 203 l 68 363 q 120 240 99 280 q 172 175 141 200 q 255 151 203 151 q 359 182 319 151 q 408 267 398 214 q 410 292 410 276 q 283 375 410 375 l 264 375 l 226 375 l 250 498 l 285 498 q 420 532 384 498 q 467 615 457 566 q 469 632 469 622 q 394 682 469 682 q 241 616 330 682 l 179 726 q 296 787 240 766 q 417 809 352 809 q 551 764 502 809 q 601 646 601 719 q 556 509 601 564 q 438 432 510 453 l 439 431 q 448 427 444 431 q 609 385 545 385 q 736 422 672 385 l 788 688 l 686 688 l 710 809 l 1111 809 l 1087 688 l 936 688 m 424 -245 q 278 -197 330 -245 q 208 -76 226 -149 l 311 -30 q 353 -103 326 -78 q 429 -128 380 -128 q 522 -103 483 -128 q 594 -30 561 -78 l 682 -99 q 424 -245 594 -245 m 406 -460 q 260 -412 313 -460 q 191 -292 208 -365 l 293 -245 q 336 -319 309 -293 q 411 -344 363 -344 q 504 -319 465 -344 q 576 -245 543 -293 l 665 -314 q 406 -460 576 -460 z "},"ऀ":{"ha":0,"x_min":9,"x_max":519,"o":"m 290 1234 q 449 1181 387 1234 q 519 1047 510 1127 l 411 1010 q 283 1123 389 1123 q 106 998 179 1123 l 9 1056 q 119 1185 47 1135 q 290 1234 191 1234 m 273 1049 q 322 1030 304 1049 q 340 981 340 1012 q 339 964 340 970 q 312 918 332 934 q 262 901 292 901 q 211 919 229 901 q 193 969 193 938 q 194 988 193 981 q 221 1032 201 1016 q 273 1049 241 1049 z "},"ँ":{"ha":0,"x_min":-406,"x_max":108,"o":"m -160 1087 q -209 1105 -191 1087 q -227 1155 -227 1123 q -226 1172 -227 1165 q -199 1218 -219 1201 q -149 1234 -179 1234 q -98 1216 -116 1234 q -80 1167 -80 1198 q -82 1148 -80 1155 q -109 1103 -89 1120 q -160 1087 -128 1087 m -177 901 q -339 954 -281 901 q -406 1089 -398 1007 l -299 1125 q -170 1012 -276 1012 q 7 1137 -66 1012 l 108 1078 q -3 950 71 998 q -177 901 -76 901 z "},"ं":{"ha":0,"x_min":-219,"x_max":-57,"o":"m -146 903 q -199 923 -179 903 q -219 974 -219 943 q -194 1039 -219 1014 q -132 1064 -170 1064 q -78 1044 -99 1064 q -57 991 -57 1024 q -82 928 -57 953 q -146 903 -108 903 z "},"ः":{"ha":384,"x_min":69,"x_max":314,"o":"m 219 427 q 161 449 182 427 q 139 507 139 470 q 167 575 139 547 q 236 602 194 602 q 293 581 271 602 q 314 524 314 559 q 286 455 314 483 q 219 427 259 427 m 149 69 q 91 91 113 69 q 69 149 69 113 q 97 217 69 189 q 167 245 125 245 q 223 223 201 245 q 245 167 245 201 q 243 146 245 153 q 209 90 234 111 q 149 69 184 69 z "},"ा":{"ha":394,"x_min":-42,"x_max":436,"o":"m 260 688 l 127 0 l -21 0 l 113 688 l -42 688 l -17 809 l 436 809 l 411 688 l 260 688 z "},"ि":{"ha":384,"x_min":-42,"x_max":1073,"o":"m 472 1144 q 813 1042 661 1144 q 1073 752 964 939 l 917 760 q 723 957 828 891 q 465 1023 618 1023 q 308 979 363 1023 q 253 868 253 936 q 267 809 253 840 l 425 809 l 401 688 l 252 688 l 118 0 l -30 0 l 104 688 l -42 688 l -17 809 l 127 809 q 122 865 122 833 q 127 922 122 891 q 233 1082 142 1019 q 472 1144 323 1144 m 309 762 z "},"ी":{"ha":387,"x_min":-285,"x_max":427,"o":"m 260 688 l 127 0 l -21 0 l 113 688 l -42 688 l -17 809 l 134 809 q 80 970 116 929 q -12 1010 43 1010 q -115 978 -80 1010 q -149 889 -149 946 q -129 819 -149 847 q -76 762 -109 792 l -240 762 q -253 782 -243 766 q -274 829 -264 799 q -285 898 -285 859 q -214 1073 -285 1002 q -3 1144 -144 1144 q 184 1056 120 1144 q 271 809 248 967 l 427 809 l 403 688 l 260 688 z "},"ु":{"ha":0,"x_min":-781,"x_max":-214,"o":"m -366 40 q -254 -3 -295 40 q -214 -115 -214 -45 q -286 -280 -214 -220 q -474 -339 -359 -339 q -606 -306 -547 -339 q -695 -240 -665 -273 q -781 -142 -726 -208 l -689 -61 q -642 -117 -682 -69 q -557 -190 -602 -165 q -464 -215 -512 -215 q -384 -194 -418 -215 q -342 -139 -349 -172 q -389 -87 -335 -87 q -447 -96 -415 -87 q -483 -109 -479 -106 l -509 7 q -445 30 -484 19 q -366 40 -406 40 z "},"ू":{"ha":0,"x_min":-601,"x_max":-47,"o":"m -309 -307 q -437 -339 -368 -339 q -557 -295 -514 -339 q -601 -184 -601 -252 q -531 -23 -601 -82 q -361 36 -462 36 q -226 -17 -288 36 q -128 -125 -163 -71 q -47 -260 -94 -179 l -148 -325 q -270 -144 -224 -200 q -368 -89 -316 -89 q -439 -108 -410 -89 q -476 -163 -469 -127 q -467 -201 -479 -186 q -429 -215 -455 -215 q -345 -194 -391 -215 l -309 -307 z "},"ृ":{"ha":0,"x_min":-214,"x_max":181,"o":"m -38 -387 q -167 -342 -120 -387 q -214 -224 -214 -297 q -208 -181 -214 -205 q -124 -43 -191 -92 q 49 7 -57 7 l 181 7 l 156 -113 l 28 -113 q -94 -203 -76 -113 q -95 -219 -95 -208 q -80 -256 -95 -243 q -33 -269 -64 -269 q 92 -233 28 -269 l 139 -340 q 54 -375 95 -363 q -38 -387 12 -387 z "},"ॄ":{"ha":0,"x_min":-236,"x_max":191,"o":"m -47 -599 q -187 -556 -139 -599 q -236 -450 -236 -514 q -113 -290 -236 -340 q -164 -244 -146 -274 q -182 -174 -182 -214 q -179 -141 -182 -161 q -102 -32 -165 -73 q 80 9 -40 9 l 191 9 l 167 -113 l 73 -113 q -61 -184 -47 -113 q -41 -226 -66 -214 q 38 -238 -16 -238 l 116 -238 l 95 -352 l 28 -352 q -109 -427 -94 -352 q -36 -481 -118 -481 q 95 -444 31 -481 l 125 -559 q -47 -599 45 -599 z "},"ॢ":{"ha":0,"x_min":-196,"x_max":470,"o":"m 431 -587 q 262 -648 347 -648 q 158 -614 194 -648 q 122 -524 122 -580 q 135 -453 122 -484 q 169 -398 149 -422 q 233 -332 189 -375 q 314 -264 288 -292 q 349 -194 340 -236 q 351 -181 351 -189 q 293 -139 351 -139 q 210 -181 245 -139 q 161 -290 175 -222 q 153 -347 156 -312 l 49 -316 q 54 -255 49 -280 q 90 -153 63 -200 q 35 -137 66 -137 q -43 -174 -12 -137 q -75 -264 -75 -210 q -64 -337 -75 -302 q -33 -422 -54 -372 l -148 -458 q -182 -367 -168 -413 q -196 -264 -196 -321 q -189 -198 -196 -227 q -113 -70 -174 -120 q 42 -21 -52 -21 q 160 -66 108 -21 q 306 -21 222 -21 q 431 -63 392 -21 q 470 -170 470 -106 q 452 -257 470 -219 q 412 -319 434 -295 q 340 -392 391 -344 q 262 -456 283 -436 q 234 -507 241 -476 l 234 -516 q 269 -542 234 -542 q 327 -529 302 -542 q 385 -491 352 -516 l 431 -587 z "},"ॣ":{"ha":0,"x_min":-196,"x_max":470,"o":"m 413 -832 q 243 -873 330 -873 q 109 -839 153 -873 q 66 -747 66 -804 q 69 -712 66 -736 q 103 -644 76 -675 q 167 -592 130 -613 q 135 -560 148 -582 q 123 -510 123 -538 q 125 -488 123 -497 q 160 -414 134 -450 q 233 -332 186 -378 q 314 -264 288 -292 q 349 -194 340 -236 q 351 -181 351 -189 q 293 -139 351 -139 q 210 -181 245 -139 q 161 -290 175 -222 q 153 -347 156 -312 l 49 -316 q 54 -255 49 -280 q 90 -153 63 -200 q 35 -137 66 -137 q -43 -174 -12 -137 q -75 -264 -75 -210 q -64 -337 -75 -302 q -33 -422 -54 -372 l -148 -458 q -182 -367 -168 -413 q -196 -264 -196 -321 q -189 -198 -196 -227 q -113 -70 -174 -120 q 42 -21 -52 -21 q 160 -66 108 -21 q 306 -21 222 -21 q 431 -63 392 -21 q 470 -170 470 -106 q 452 -257 470 -219 q 412 -319 434 -295 q 340 -392 391 -344 q 262 -456 283 -436 q 234 -507 241 -476 q 299 -542 229 -542 l 380 -542 l 361 -648 l 316 -648 q 179 -722 194 -648 q 245 -767 172 -767 q 372 -734 302 -767 l 413 -832 z "},"ॅ":{"ha":0,"x_min":-406,"x_max":108,"o":"m -177 901 q -339 954 -281 901 q -406 1089 -398 1007 l -299 1125 q -170 1012 -276 1012 q 7 1137 -66 1012 l 108 1078 q -3 950 71 998 q -177 901 -76 901 z "},"ॆ":{"ha":0,"x_min":45,"x_max":542,"o":"m 396 764 q 401 806 401 788 q 372 859 401 844 q 266 875 342 875 q 107 926 168 875 q 45 1076 45 977 q 49 1118 45 1090 l 179 1153 q 188 1049 175 1082 q 223 1008 200 1016 q 293 1000 247 1000 q 472 955 403 1000 q 542 819 542 910 q 535 764 542 806 l 396 764 z "},"े":{"ha":0,"x_min":-562,"x_max":-92,"o":"m -361 955 q -400 1004 -385 991 q -439 1017 -415 1017 q -521 1005 -483 1017 l -562 1120 q -497 1138 -523 1132 q -443 1144 -472 1144 q -337 1115 -380 1144 q -250 1017 -293 1085 l -92 759 l -245 759 l -361 955 z "},"ै":{"ha":0,"x_min":-592,"x_max":-109,"o":"m -269 759 l -382 861 q -422 896 -375 856 q -467 931 -453 922 q -497 941 -481 941 q -543 933 -516 941 q -582 922 -571 925 l -592 1035 q -549 1051 -582 1040 q -490 1063 -517 1063 q -424 1042 -453 1063 q -351 976 -394 1021 l -319 944 l -224 856 l -257 988 q -269 1030 -260 998 q -293 1076 -278 1061 q -328 1092 -307 1092 q -411 1082 -365 1092 l -415 1196 q -377 1204 -406 1198 q -323 1210 -347 1210 q -214 1169 -253 1210 q -160 1038 -174 1128 l -109 759 l -269 759 z "},"ॉ":{"ha":394,"x_min":-42,"x_max":521,"o":"m 0 0 m 260 688 l 127 0 l -21 0 l 113 688 l -42 688 l -17 809 l 436 809 l 411 688 l 260 688 m 236 901 q 74 954 132 901 q 7 1089 16 1007 l 115 1125 q 243 1012 137 1012 q 420 1137 347 1012 l 521 1078 q 411 950 484 998 q 236 901 337 901 z "},"ॊ":{"ha":394,"x_min":-220,"x_max":436,"o":"m 260 688 l 127 0 l -21 0 l 113 688 l -42 688 l -17 809 l 135 809 q 104 860 134 845 q 0 875 75 875 q -159 926 -97 875 q -220 1076 -220 977 q -217 1118 -220 1090 l -87 1153 q -78 1049 -90 1082 q -43 1008 -66 1016 q 28 1000 -19 1000 q 210 953 141 1000 q 274 809 280 906 l 436 809 l 411 688 l 260 688 z "},"ो":{"ha":394,"x_min":-196,"x_max":436,"o":"m 260 688 l 127 0 l -21 0 l 113 688 l -42 688 l -17 809 l 92 809 l 5 955 q -34 1004 -19 991 q -73 1017 -49 1017 q -155 1005 -116 1017 l -196 1120 q -131 1138 -156 1132 q -76 1144 -106 1144 q 30 1115 -14 1144 q 116 1017 73 1085 l 243 809 l 436 809 l 411 688 l 260 688 z "},"ौ":{"ha":394,"x_min":-175,"x_max":436,"o":"m 260 688 l 127 0 l -21 0 l 113 688 l -42 688 l -17 809 l 92 809 l 35 861 q -5 896 42 856 q -50 931 -36 922 q -80 941 -64 941 q -127 933 -99 941 q -165 922 -155 925 l -175 1035 q -133 1051 -165 1040 q -73 1063 -101 1063 q -7 1042 -36 1063 q 66 976 23 1021 l 97 944 l 193 856 l 160 988 q 148 1030 156 998 q 124 1076 139 1061 q 89 1092 109 1092 q 5 1082 52 1092 l 2 1196 q 40 1204 10 1198 q 94 1210 69 1210 q 203 1169 163 1210 q 257 1038 243 1128 l 299 809 l 436 809 l 411 688 l 260 688 z "},"ऻ":{"ha":394,"x_min":-42,"x_max":436,"o":"m 260 688 l 127 0 l -21 0 l 113 688 l -42 688 l -17 809 l 144 809 l 182 1007 l 311 1007 l 273 809 l 436 809 l 411 688 l 260 688 z "},"ॏ":{"ha":394,"x_min":-271,"x_max":436,"o":"m 260 688 l 127 0 l -21 0 l 113 688 l -42 688 l -17 809 l 87 809 q 54 861 85 847 q -61 875 23 875 q -214 926 -156 875 q -271 1076 -271 977 q -267 1122 -271 1090 l -151 1153 q -145 1044 -155 1078 q -108 998 -135 1010 q -19 986 -80 986 q 144 945 78 986 q 210 811 210 905 l 224 837 q 248 901 243 878 q 234 952 253 932 q 174 995 215 972 q 123 1026 139 1014 q 48 1087 73 1056 q 23 1174 23 1118 q 28 1227 23 1196 q 52 1307 35 1271 l 170 1299 q 158 1264 167 1286 q 146 1222 149 1241 q 142 1191 142 1198 q 158 1141 142 1160 q 210 1097 174 1123 q 268 1070 220 1092 q 343 1011 316 1049 q 370 924 370 974 q 365 878 370 905 q 340 809 361 852 l 436 809 l 411 688 l 260 688 z "},"ॕ":{"ha":0,"x_min":9,"x_max":582,"o":"m 300 1040 q 138 1093 196 1040 q 71 1227 80 1146 l 179 1264 q 307 1151 201 1151 q 484 1276 411 1151 l 582 1220 q 471 1090 543 1141 q 300 1040 399 1040 m 9 865 l 30 974 l 526 974 l 505 865 l 9 865 z "},"ऺ":{"ha":0,"x_min":-19,"x_max":156,"o":"m 109 764 l -19 764 l 28 1007 l 156 1007 l 109 764 z "},"ॖ":{"ha":0,"x_min":17,"x_max":491,"o":"m 233 -245 q 87 -197 139 -245 q 17 -76 35 -149 l 120 -30 q 162 -103 135 -78 q 238 -128 189 -128 q 331 -103 292 -128 q 403 -30 370 -78 l 491 -99 q 233 -245 403 -245 z "},"ॗ":{"ha":0,"x_min":17,"x_max":509,"o":"m 250 -245 q 104 -197 156 -245 q 35 -76 52 -149 l 137 -30 q 180 -103 153 -78 q 255 -128 207 -128 q 348 -103 309 -128 q 420 -30 387 -78 l 509 -99 q 250 -245 420 -245 m 233 -460 q 87 -412 139 -460 q 17 -292 35 -365 l 120 -245 q 162 -319 135 -293 q 238 -344 189 -344 q 331 -319 292 -344 q 403 -245 370 -293 l 491 -314 q 233 -460 403 -460 z "},"॑":{"ha":0,"x_min":17,"x_max":210,"o":"m 146 764 l 17 764 l 82 1094 l 210 1094 l 146 764 z "},"॒":{"ha":0,"x_min":35,"x_max":767,"o":"m 35 -187 l 57 -69 l 767 -69 l 745 -187 l 35 -187 z "},"्":{"ha":0,"x_min":5,"x_max":424,"o":"m 5 -243 q 188 -278 115 -243 q 321 -403 260 -312 l 424 -325 q 348 -225 389 -267 q 232 -151 307 -182 q 40 -120 156 -120 l 5 -243 z "},"़":{"ha":0,"x_min":-342,"x_max":-189,"o":"m -273 -198 q -324 -180 -306 -198 q -342 -130 -342 -161 q -320 -67 -342 -90 q -260 -43 -299 -43 q -208 -62 -227 -43 q -189 -111 -189 -80 q -212 -174 -189 -151 q -273 -198 -234 -198 z "},"॓":{"ha":0,"x_min":-3,"x_max":365,"o":"m 0 899 m 278 899 l 365 977 l 111 1267 l -3 1163 l 278 899 z "},"॔":{"ha":0,"x_min":-26,"x_max":418,"o":"m 0 899 m 49 899 l 418 1146 l 337 1267 l -26 995 l 49 899 z "},"क":{"ha":1075,"x_min":-42,"x_max":1116,"o":"m 601 575 q 700 590 642 590 q 853 540 795 590 q 911 398 911 490 q 905 333 911 363 q 724 83 878 194 l 637 189 q 677 220 642 194 q 736 283 712 247 q 767 359 760 319 q 771 387 771 380 q 749 437 771 418 q 684 455 727 455 q 569 420 639 455 l 488 0 l 345 0 l 370 122 q 227 95 306 95 q 66 150 128 95 q 3 299 3 205 q 9 354 3 326 q 113 528 30 465 q 306 590 196 590 q 453 554 391 590 l 479 688 l -42 688 l -17 809 l 1116 809 l 1092 688 l 622 688 l 601 575 m 259 224 q 398 267 328 224 l 429 429 q 323 460 389 460 q 204 427 255 460 q 141 330 153 394 q 139 306 139 321 q 172 244 139 264 q 259 224 205 224 z "},"ख":{"ha":1104,"x_min":-54,"x_max":1146,"o":"m 967 688 l 833 0 l 686 0 l 707 108 q 597 92 653 92 q 431 146 497 92 q 366 297 366 200 q 372 354 366 323 q 477 536 394 472 q 672 599 561 599 q 797 566 740 599 l 819 688 l 358 688 q 380 578 380 642 q 375 516 380 550 q 300 369 358 429 q 167 280 243 309 l 326 40 q 266 -1 307 28 q 205 -43 224 -30 l -54 356 l 59 441 l 95 385 q 250 590 250 441 q 215 688 250 646 l -42 688 l -17 809 l 1146 809 l 1122 688 l 967 688 m 630 224 q 734 252 686 224 l 771 432 q 677 460 731 460 q 568 428 611 460 q 512 330 524 396 q 510 306 510 321 q 543 244 510 264 q 630 224 576 224 z "},"ग":{"ha":819,"x_min":-42,"x_max":861,"o":"m 682 688 l 549 0 l 401 0 l 535 688 l 304 688 l 252 417 l 196 135 l 94 130 l -16 344 l -3 417 l 104 417 l 156 688 l -42 688 l -17 809 l 861 809 l 837 688 l 682 688 z "},"घ":{"ha":870,"x_min":-42,"x_max":911,"o":"m 733 688 l 599 0 l 451 0 l 481 151 q 285 106 384 106 q 102 156 170 106 q 35 295 35 207 q 40 344 35 318 q 106 451 54 411 q 47 583 47 510 q 52 627 47 602 q 75 688 61 665 l -42 688 l -17 809 l 911 809 l 887 688 l 733 688 m 233 688 q 193 582 193 630 q 233 512 193 536 q 361 538 286 528 l 382 411 q 233 371 288 401 q 177 299 177 340 q 209 256 177 271 q 288 241 241 241 q 512 313 401 241 l 585 688 l 233 688 z "},"ङ":{"ha":880,"x_min":-42,"x_max":922,"o":"m 898 688 l 627 688 l 587 477 l 569 465 q 526 472 542 469 q 473 479 517 474 q 361 484 429 484 q 264 471 295 484 q 227 429 233 458 q 242 398 222 406 q 306 389 262 389 q 363 391 342 389 q 531 356 472 396 q 590 238 590 316 q 587 196 590 210 q 488 49 568 104 q 286 -5 408 -5 q 102 36 179 -5 q -36 151 24 78 l 66 241 q 171 155 116 181 q 307 130 226 130 q 405 154 366 130 q 450 214 443 177 q 432 251 455 236 q 342 260 410 266 l 306 259 q 147 297 207 259 q 89 410 87 335 q 92 446 89 422 q 179 569 108 530 q 354 609 250 609 q 472 604 418 609 l 491 688 l -42 688 l -17 809 l 922 809 l 898 688 m 731 490 q 783 471 764 490 q 802 422 802 453 q 780 359 802 382 q 719 335 757 335 q 668 353 686 335 q 649 403 649 372 q 671 466 649 443 q 731 490 693 490 z "},"च":{"ha":878,"x_min":-42,"x_max":920,"o":"m 741 688 l 608 0 l 460 0 l 486 134 q 326 106 418 106 q 161 158 224 106 q 97 300 97 210 q 102 354 97 325 q 118 406 108 385 l -16 406 l 9 531 l 455 531 l 431 406 l 280 406 q 245 330 253 375 q 243 311 243 323 q 273 258 243 274 q 349 241 302 241 q 516 288 439 241 l 594 688 l -42 688 l -17 809 l 920 809 l 896 688 l 741 688 z "},"छ":{"ha":1010,"x_min":-42,"x_max":1052,"o":"m 785 585 q 850 517 826 563 q 873 410 873 472 q 865 333 873 380 q 764 138 844 219 q 572 16 684 57 q 340 -24 460 -24 q 109 38 201 -24 q 16 207 16 101 q 71 359 16 297 q 184 441 127 420 q 128 489 156 450 q 101 578 101 528 q 104 609 101 589 q 141 688 113 655 l -42 688 l -17 809 l 1052 809 l 1028 688 l 804 688 l 785 585 m 321 688 q 247 585 260 656 q 243 564 243 575 q 276 511 243 533 q 398 490 309 490 l 418 490 l 398 380 l 394 380 q 238 347 297 385 q 165 243 179 309 q 163 226 163 236 q 214 142 163 174 q 351 111 264 111 q 497 130 429 111 q 470 201 483 156 q 458 302 458 247 q 465 378 458 344 q 534 522 483 464 q 648 599 585 580 l 665 688 l 321 688 m 738 372 q 741 411 741 387 q 694 476 741 476 q 633 441 660 476 q 595 349 606 406 q 592 306 592 333 q 623 191 592 238 q 738 372 717 260 z "},"ज":{"ha":1009,"x_min":-42,"x_max":1050,"o":"m 872 688 l 738 0 l 590 0 l 667 387 l 510 387 q 528 307 528 351 q 523 259 528 283 q 427 103 503 160 q 250 47 351 47 q -24 396 19 47 l 106 436 q 160 243 127 300 q 257 186 193 186 q 354 226 314 186 q 394 328 394 266 q 347 387 394 373 q 304 392 328 392 l 321 507 l 689 507 l 724 688 l -42 688 l -17 809 l 1050 809 l 1026 688 l 872 688 z "},"झ":{"ha":1040,"x_min":-42,"x_max":1082,"o":"m 903 688 l 769 0 l 622 0 l 665 227 q 592 214 628 214 q 524 220 566 214 l 521 196 q 422 49 502 104 q 220 -5 342 -5 l 307 -128 l 174 -207 l 68 23 q -10 76 19 43 q -40 144 -40 108 q -38 161 -40 156 q 78 240 -23 240 l 144 130 q 208 122 168 122 q 332 148 288 122 q 384 214 377 175 q 306 259 396 259 l 276 257 l 241 255 q 86 293 142 255 q 31 408 30 332 q 35 446 31 432 q 122 569 50 530 q 297 609 193 609 q 411 604 356 609 l 429 688 l -42 688 l -17 809 l 1082 809 l 1057 688 l 903 688 m 566 688 l 526 477 l 509 465 q 464 472 481 469 q 304 484 375 484 q 207 471 238 484 q 170 429 175 458 q 198 391 165 399 q 304 387 231 384 q 436 368 387 391 q 503 349 451 363 q 580 335 556 335 q 691 356 641 335 l 755 688 l 566 688 z "},"ञ":{"ha":1026,"x_min":-42,"x_max":1068,"o":"m 889 688 l 755 0 l 608 0 l 656 245 q 611 240 630 240 q 543 248 578 240 q 437 128 507 174 q 283 83 366 83 q 92 168 161 83 q -9 438 23 252 l 123 479 q 187 284 151 340 q 297 227 222 227 q 383 259 349 227 q 425 342 417 290 q 427 361 427 349 q 409 404 427 389 q 358 418 391 418 q 296 406 328 418 q 262 396 264 394 q 241 467 260 394 q 226 519 227 517 q 375 557 297 557 q 517 508 464 557 q 573 370 571 458 q 618 365 594 365 q 681 377 644 365 l 741 688 l -42 688 l -17 809 l 1068 809 l 1043 688 l 889 688 z "},"ट":{"ha":714,"x_min":-42,"x_max":755,"o":"m 345 424 q 199 383 255 424 q 128 271 142 342 q 125 243 125 250 q 161 164 125 193 q 264 135 198 135 q 483 203 365 135 l 526 73 q 407 20 479 43 q 253 -3 335 -3 q 59 61 132 -3 q -14 234 -14 125 q -7 302 -14 269 q 106 490 16 420 q 340 559 196 559 l 411 559 l 439 688 l -42 688 l -17 809 l 755 809 l 731 688 l 575 688 l 523 420 l 509 408 l 462 413 q 345 424 385 424 z "},"ठ":{"ha":819,"x_min":-42,"x_max":861,"o":"m 543 524 q 649 311 649 429 q 644 259 649 285 q 584 134 632 193 q 454 37 536 75 q 262 0 372 0 q 63 66 137 0 q -10 240 -10 132 q -3 302 -10 260 q 113 486 19 417 q 347 556 207 556 l 415 556 l 441 688 l -42 688 l -17 809 l 861 809 l 837 688 l 575 688 l 543 524 m 507 311 q 439 431 507 385 l 347 431 q 190 379 252 431 q 128 247 128 328 q 164 162 128 194 q 267 130 200 130 q 443 179 378 130 q 507 311 507 227 z "},"ड":{"ha":778,"x_min":-42,"x_max":819,"o":"m 356 484 q 259 471 290 484 q 222 429 227 458 q 237 398 217 406 q 300 389 257 389 q 358 391 337 389 q 526 356 467 396 q 585 238 585 316 q 582 196 585 210 q 483 49 563 104 q 281 -5 403 -5 q 96 36 174 -5 q -42 151 19 78 l 61 241 q 166 155 111 181 q 302 130 220 130 q 399 154 361 130 q 444 214 438 177 q 427 251 450 236 q 337 260 405 266 l 300 259 q 141 297 201 259 q 83 410 82 335 q 87 446 83 422 q 174 569 102 530 q 349 609 245 609 q 467 604 411 609 l 486 688 l -40 688 l -16 809 l 819 809 l 795 688 l 622 688 l 582 477 l 564 465 q 521 472 536 469 q 468 479 512 474 q 356 484 424 484 z "},"ढ":{"ha":750,"x_min":-42,"x_max":792,"o":"m 330 434 q 197 388 253 434 q 127 267 141 342 q 123 236 123 247 q 146 163 123 194 q 212 120 168 132 q 210 151 210 128 q 215 205 210 174 q 283 316 229 276 q 403 356 337 356 q 515 319 474 356 q 556 220 556 281 q 552 186 556 210 q 446 38 531 85 q 255 -9 361 -9 q 60 60 134 -9 q -14 238 -14 128 q -7 302 -14 257 q 106 492 16 415 q 330 569 196 569 q 411 566 368 569 l 439 688 l -42 688 l -17 809 l 792 809 l 767 688 l 575 688 l 524 431 l 510 418 q 438 427 495 420 q 330 434 380 434 m 326 139 q 330 122 326 132 q 396 151 372 130 q 424 196 420 172 l 425 207 q 396 231 425 231 q 328 155 344 231 l 326 139 z "},"ण":{"ha":1024,"x_min":-42,"x_max":1066,"o":"m 887 688 l 753 0 l 606 0 l 740 688 l 590 688 l 533 389 q 435 201 509 266 q 250 135 361 135 q 93 184 146 135 q 40 323 40 233 q 49 399 40 352 l 104 688 l -42 688 l -17 809 l 1066 809 l 1042 688 l 887 688 m 259 688 l 212 446 q 196 337 196 365 q 210 293 196 307 q 259 280 224 280 q 346 321 319 280 q 391 457 373 363 l 436 688 l 259 688 z "},"त":{"ha":793,"x_min":-42,"x_max":835,"o":"m 656 688 l 523 0 l 375 0 l 451 394 l 323 394 q 189 372 231 394 q 137 295 148 349 q 135 267 135 286 q 151 171 135 220 q 201 28 167 122 l 71 -33 q 13 132 35 61 q -9 273 -9 203 q -3 333 -9 306 q 90 484 17 439 q 292 530 163 530 l 479 530 l 509 688 l -42 688 l -17 809 l 835 809 l 811 688 l 656 688 z "},"थ":{"ha":849,"x_min":-35,"x_max":891,"o":"m 712 688 l 578 0 l 431 0 l 467 189 q 378 148 429 167 q 269 128 326 128 q 130 159 193 128 q 25 234 68 189 q -35 321 -17 278 l -5 380 q 82 423 7 385 q 207 510 158 460 q 266 620 255 561 q 269 646 269 637 q 257 688 269 672 q 220 703 245 703 q 171 687 189 703 q 148 646 153 670 q 155 616 146 630 q 184 589 165 602 l 102 497 q 41 551 64 521 q 17 630 17 582 q 77 771 17 712 q 231 830 137 830 q 360 776 316 830 q 405 642 405 722 q 399 589 405 615 q 325 443 382 502 q 153 307 267 384 q 271 271 198 271 q 393 296 332 271 q 502 365 455 321 l 564 688 l 484 688 l 509 809 l 891 809 l 866 688 l 712 688 z "},"द":{"ha":771,"x_min":-42,"x_max":813,"o":"m 351 424 q 201 383 260 424 q 128 271 142 342 q 125 241 125 250 q 161 161 125 191 q 266 132 198 132 q 342 146 306 132 l 316 220 q 337 240 319 226 q 383 269 354 255 q 444 283 411 283 q 518 256 493 283 q 543 189 543 229 q 540 161 543 179 q 495 89 533 123 l 569 -71 q 493 -109 549 -82 q 436 -135 438 -137 q 382 19 432 -139 q 255 -3 314 -3 q 61 62 135 -3 q -14 236 -14 127 q -7 302 -14 273 q 109 489 16 418 q 345 559 201 559 l 417 559 l 444 688 l -42 688 l -17 809 l 813 809 l 788 688 l 580 688 l 528 420 l 514 408 l 467 413 q 351 424 391 424 z "},"ध":{"ha":851,"x_min":9,"x_max":892,"o":"m 714 688 l 580 0 l 432 0 l 457 123 q 262 87 366 87 q 77 137 146 87 q 9 274 9 188 q 14 318 9 295 q 95 427 28 384 q 16 602 16 503 q 21 653 16 627 q 98 786 36 729 q 253 844 160 844 q 365 806 328 844 q 403 710 403 767 q 378 628 403 667 q 311 549 354 589 l 226 634 q 260 667 248 651 q 276 701 273 682 l 276 705 q 250 724 276 724 q 194 699 215 724 q 163 632 172 674 q 160 604 160 611 q 248 481 160 528 q 361 495 283 488 l 372 368 q 210 335 266 356 q 155 273 155 314 q 266 224 155 224 q 488 285 389 224 l 566 688 l 457 688 l 481 809 l 892 809 l 868 688 l 714 688 z "},"न":{"ha":773,"x_min":-42,"x_max":814,"o":"m 635 688 l 502 0 l 354 0 l 418 333 l 196 333 l 163 170 l 61 165 l 2 396 l 33 469 l 446 469 l 488 688 l -42 688 l -17 809 l 814 809 l 790 688 l 635 688 z "},"ऩ":{"ha":773,"x_min":-42,"x_max":814,"o":"m 635 688 l 502 0 l 354 0 l 422 351 l 200 351 l 167 188 l 64 182 l 5 413 l 36 486 l 450 486 l 488 688 l -42 688 l -17 809 l 814 809 l 790 688 l 635 688 m 132 68 q 184 49 165 68 q 203 0 203 31 q 181 -63 203 -40 q 120 -87 158 -87 q 69 -69 87 -87 q 50 -19 50 -50 q 72 44 50 21 q 132 68 94 68 z "},"प":{"ha":806,"x_min":-42,"x_max":847,"o":"m 667 688 l 533 0 l 385 0 l 422 184 q 285 158 347 158 q 109 217 172 158 q 47 366 47 276 q 52 418 47 392 l 104 688 l -42 688 l -17 809 l 847 809 l 823 688 l 667 688 m 252 688 l 205 446 q 198 380 198 413 q 219 314 198 335 q 290 293 240 293 q 448 325 373 293 l 519 688 l 252 688 z "},"फ":{"ha":1153,"x_min":-42,"x_max":1194,"o":"m 639 568 q 780 599 705 599 q 933 549 875 599 q 991 406 991 498 q 984 342 991 372 q 804 92 958 203 l 717 198 q 757 229 722 203 q 816 292 792 255 q 847 368 840 328 q 851 396 851 389 q 829 445 851 427 q 764 464 807 464 q 606 405 705 464 l 528 0 l 385 0 l 422 188 q 285 161 347 161 q 109 218 172 161 q 45 363 45 274 q 50 411 45 385 l 104 688 l -42 688 l -17 809 l 1194 809 l 1170 688 l 661 688 l 639 568 m 252 688 l 205 446 q 198 382 198 413 q 220 315 198 337 q 290 293 241 293 q 448 325 373 293 l 519 688 l 252 688 z "},"ब":{"ha":780,"x_min":-42,"x_max":821,"o":"m 642 688 l 509 0 l 361 0 l 385 127 q 220 92 307 92 q 58 147 122 92 q -5 295 -5 201 q 0 354 -5 323 q 106 531 21 469 q 302 594 191 594 q 467 547 394 594 l 495 688 l -42 688 l -17 809 l 821 809 l 797 688 l 642 688 m 318 465 q 273 462 300 465 l 411 281 l 417 285 l 443 418 q 318 465 392 465 m 130 330 q 128 307 128 321 q 163 240 128 264 q 252 217 198 217 q 318 227 286 217 l 172 410 q 130 330 141 378 z "},"भ":{"ha":920,"x_min":-16,"x_max":962,"o":"m 783 688 l 649 0 l 502 0 l 547 227 l 313 227 l 283 76 l 184 71 l 59 285 l 73 358 l 188 358 l 222 543 q 231 580 224 550 q 238 639 238 609 q 191 700 238 700 q 135 674 160 700 q 109 615 109 649 q 174 536 109 575 l 94 439 q -16 611 -16 502 q 49 769 -16 707 q 212 832 113 832 q 384 646 384 832 q 372 533 384 592 l 339 358 l 571 358 l 635 688 l 495 688 l 519 809 l 962 809 l 938 688 l 783 688 z "},"म":{"ha":891,"x_min":-42,"x_max":932,"o":"m 753 688 l 620 0 l 472 0 l 519 240 l 252 240 l 224 94 l 120 89 l -5 302 l 7 375 l 130 375 l 191 688 l -42 688 l -17 809 l 932 809 l 908 688 l 753 688 m 339 688 l 278 375 l 545 375 l 606 688 l 339 688 z "},"य":{"ha":830,"x_min":-42,"x_max":872,"o":"m 693 688 l 559 0 l 411 0 l 444 167 q 295 132 365 132 q 97 191 181 132 q -10 326 14 250 l 19 380 q 122 447 80 410 q 181 545 165 484 q 186 583 186 563 q 155 688 186 635 l -42 688 l -17 809 l 872 809 l 847 688 l 693 688 m 299 688 q 330 564 330 622 q 325 519 330 540 q 281 416 314 458 q 174 313 248 373 q 295 271 222 271 q 387 285 340 271 q 476 325 434 299 l 545 688 l 299 688 z "},"र":{"ha":571,"x_min":-42,"x_max":613,"o":"m 399 688 q 418 587 418 646 q 411 516 418 550 q 334 365 394 425 q 196 278 274 306 l 337 52 q 266 9 314 38 q 194 -35 217 -21 l -26 356 l 95 441 l 130 385 q 276 594 276 443 q 247 688 276 649 l -42 688 l -17 809 l 613 809 l 589 688 l 399 688 z "},"ऱ":{"ha":571,"x_min":-99,"x_max":613,"o":"m 0 0 m 399 688 q 418 587 418 646 q 411 516 418 550 q 334 365 394 425 q 196 278 274 306 l 337 52 q 266 9 314 38 q 194 -35 217 -21 l -26 356 l 95 441 l 130 385 q 276 594 276 443 q 247 688 276 649 l -42 688 l -17 809 l 613 809 l 589 688 l 399 688 m -30 -45 q -81 -27 -62 -45 q -99 23 -99 -9 q -77 86 -99 63 q -17 109 -56 109 q 35 91 16 109 q 54 42 54 73 q 31 -22 54 2 q -30 -45 9 -45 z "},"ल":{"ha":970,"x_min":-42,"x_max":1012,"o":"m 833 688 l 700 0 l 554 0 l 632 396 q 590 401 611 401 q 500 366 538 401 q 450 269 462 332 q 439 182 439 207 q 373 198 439 184 q 304 215 302 212 l 316 306 q 333 370 326 351 q 273 399 311 399 q 141 281 163 399 q 137 253 137 264 q 172 128 137 194 q 241 17 207 61 l 99 -38 q 70 6 99 -42 q 18 118 42 54 q -5 250 -5 182 q 0 311 -5 280 q 95 478 21 417 q 266 540 168 540 q 418 484 359 540 q 595 536 490 536 q 656 528 632 536 l 688 688 l -42 688 l -17 809 l 1012 809 l 988 688 l 833 688 z "},"ळ":{"ha":1056,"x_min":-42,"x_max":1097,"o":"m 767 543 q 856 473 826 523 q 885 354 885 424 q 877 278 885 321 q 787 103 856 170 q 609 36 719 36 q 494 71 538 36 q 420 167 450 106 q 306 69 363 99 q 179 38 250 38 q 40 95 87 38 q -7 241 -7 151 q 0 316 -7 281 q 90 490 23 424 q 267 557 158 557 q 457 427 396 557 q 547 511 503 481 q 639 550 590 542 l 665 688 l -42 688 l -17 809 l 1097 809 l 1073 688 l 795 688 l 767 543 m 205 177 q 284 211 245 177 q 366 304 323 245 q 327 386 349 354 q 271 418 306 418 q 188 387 222 418 q 141 293 153 356 q 137 253 137 280 q 205 177 137 177 m 738 300 q 741 340 741 314 q 674 417 741 417 q 595 383 634 417 q 512 288 557 349 q 550 207 528 238 q 608 175 573 175 q 691 207 656 175 q 738 300 726 238 z "},"ऴ":{"ha":1056,"x_min":-42,"x_max":1097,"o":"m 0 0 m 767 543 q 856 473 826 523 q 885 354 885 424 q 877 278 885 321 q 787 103 856 170 q 609 36 719 36 q 494 71 538 36 q 420 167 450 106 q 306 69 363 99 q 179 38 250 38 q 40 95 87 38 q -7 241 -7 151 q 0 316 -7 281 q 90 490 23 424 q 267 557 158 557 q 457 427 396 557 q 547 511 503 481 q 639 550 590 542 l 665 688 l -42 688 l -17 809 l 1097 809 l 1073 688 l 795 688 l 767 543 m 205 177 q 284 211 245 177 q 366 304 323 245 q 327 386 349 354 q 271 418 306 418 q 188 387 222 418 q 141 293 153 356 q 137 253 137 280 q 205 177 137 177 m 738 300 q 741 340 741 314 q 674 417 741 417 q 595 383 634 417 q 512 288 557 349 q 550 207 528 238 q 608 175 573 175 q 691 207 656 175 q 738 300 726 238 m 385 -128 q 334 -110 352 -128 q 316 -61 316 -92 q 338 3 316 -21 q 398 26 359 26 q 450 8 431 26 q 469 -42 469 -10 q 446 -105 469 -82 q 385 -128 424 -128 z "},"व":{"ha":764,"x_min":-42,"x_max":806,"o":"m 627 688 l 493 0 l 345 0 l 368 118 q 222 90 297 90 q 58 144 122 90 q -5 295 -5 198 q 0 354 -5 323 q 108 533 23 470 q 304 595 193 595 q 455 557 391 595 l 479 688 l -42 688 l -17 809 l 806 809 l 781 688 l 627 688 m 255 224 q 398 271 330 224 l 429 427 q 319 460 391 460 q 201 427 252 460 q 137 330 149 394 q 135 306 135 321 q 168 244 135 264 q 255 224 201 224 z "},"श":{"ha":1002,"x_min":-17,"x_max":1042,"o":"m 323 832 q 463 780 410 832 q 516 639 516 729 q 509 575 516 604 q 418 390 490 469 q 245 243 347 311 l 389 59 q 326 10 370 43 q 264 -40 283 -23 l 106 203 q 14 240 45 210 q -17 316 -17 271 q -14 344 -17 323 q 23 404 -7 378 q 94 436 52 429 l 160 352 q 301 464 240 398 q 375 616 363 530 q 363 675 380 651 q 314 700 345 700 q 261 682 283 700 q 233 634 240 665 q 240 597 229 613 q 281 556 250 582 l 198 458 q 122 530 148 491 q 95 618 95 568 q 128 734 95 686 q 214 807 161 783 q 323 832 266 832 m 863 688 l 729 0 l 582 0 l 715 688 l 589 688 l 613 809 l 1042 809 l 1017 688 l 863 688 z "},"ष":{"ha":821,"x_min":-42,"x_max":863,"o":"m 684 688 l 550 0 l 403 0 l 441 194 q 285 161 359 161 q 109 218 172 161 q 45 363 45 274 q 50 411 45 385 l 104 688 l -42 688 l -17 809 l 863 809 l 839 688 l 684 688 m 311 688 l 484 413 l 538 688 l 311 688 m 205 446 q 198 382 198 413 q 220 315 198 337 q 290 293 241 293 q 413 313 347 293 l 226 604 l 227 582 q 222 538 227 563 l 205 446 z "},"स":{"ha":967,"x_min":-42,"x_max":1009,"o":"m 830 688 l 696 0 l 549 0 l 602 278 q 446 257 519 257 q 245 299 345 257 q 182 271 217 283 l 316 38 q 255 3 297 28 q 194 -35 214 -23 l -26 356 l 87 436 l 118 380 q 278 543 255 425 q 283 595 283 573 q 257 688 283 653 l -42 688 l -17 809 l 1009 809 l 984 688 l 830 688 m 403 688 q 418 592 418 651 q 411 516 418 552 q 361 398 399 448 q 474 387 398 387 q 628 410 550 387 l 684 688 l 403 688 z "},"ह":{"ha":757,"x_min":-42,"x_max":799,"o":"m 587 688 l 545 469 l 528 457 l 490 462 q 344 472 410 472 q 236 457 274 472 q 191 408 198 443 l 191 399 q 208 359 191 377 q 323 377 269 377 q 479 337 420 377 q 538 222 538 297 q 457 56 538 134 l 359 137 q 374 151 363 141 q 393 174 385 161 q 405 203 401 188 q 388 238 410 227 q 323 252 366 248 q 194 218 247 252 q 130 123 142 184 q 128 104 128 116 q 206 15 128 43 q 420 -14 283 -14 l 377 -139 q 98 -80 198 -139 q -2 94 -2 -21 q 3 151 -2 120 q 82 293 19 233 q 50 398 50 344 q 54 439 50 424 q 339 601 85 601 q 429 592 385 601 l 450 688 l -42 688 l -17 809 l 799 809 l 774 688 l 587 688 z "},"क़":{"ha":1075,"x_min":-42,"x_max":1116,"o":"m 0 0 m 97 -104 q 46 -86 64 -104 q 28 -36 28 -68 q 49 27 28 3 q 109 50 71 50 q 161 32 142 50 q 181 -17 181 14 q 158 -81 181 -57 q 97 -104 135 -104 m 601 575 q 700 590 642 590 q 853 540 795 590 q 911 398 911 490 q 905 333 911 363 q 724 83 878 194 l 637 189 q 677 220 642 194 q 736 283 712 247 q 767 359 760 319 q 771 387 771 380 q 749 437 771 418 q 684 455 727 455 q 569 420 639 455 l 488 0 l 345 0 l 370 122 q 227 95 306 95 q 66 150 128 95 q 3 299 3 205 q 9 354 3 326 q 113 528 30 465 q 306 590 196 590 q 453 554 391 590 l 479 688 l -42 688 l -17 809 l 1116 809 l 1092 688 l 622 688 l 601 575 m 259 224 q 398 267 328 224 l 429 429 q 323 460 389 460 q 204 427 255 460 q 141 330 153 394 q 139 306 139 321 q 172 244 139 264 q 259 224 205 224 z "},"ख़":{"ha":1120,"x_min":-99,"x_max":1163,"o":"m 984 688 l 851 0 l 703 0 l 724 108 q 615 92 670 92 q 449 146 514 92 q 384 297 384 200 q 389 354 384 323 q 495 536 411 472 q 689 599 578 599 q 814 566 757 599 l 837 688 l 375 688 q 398 578 398 642 q 392 516 398 550 q 319 371 375 429 q 189 283 264 313 l 356 49 q 289 3 335 35 q 222 -43 243 -28 l -36 356 l 76 441 l 115 385 q 267 590 267 444 q 233 688 267 646 l -42 688 l -17 809 l 1163 809 l 1139 688 l 984 688 m 648 224 q 752 252 703 224 l 788 432 q 694 460 748 460 q 585 428 628 460 q 530 330 542 396 q 528 306 528 321 q 561 244 528 264 q 648 224 594 224 m -17 132 q 35 114 16 132 q 54 64 54 95 q 31 1 54 24 q -30 -23 9 -23 q -81 -4 -62 -23 q -99 45 -99 14 q -77 109 -99 85 q -17 132 -56 132 z "},"ग़":{"ha":819,"x_min":-42,"x_max":861,"o":"m 682 688 l 549 0 l 401 0 l 535 688 l 304 688 l 264 479 l 208 198 l 106 193 l -3 406 l 9 479 l 116 479 l 156 688 l -42 688 l -17 809 l 861 809 l 837 688 l 682 688 m 170 120 q 222 102 203 120 q 241 52 241 83 q 219 -11 241 12 q 158 -35 196 -35 q 107 -16 125 -35 q 89 33 89 2 q 110 96 89 73 q 170 120 132 120 z "},"ज़":{"ha":1009,"x_min":-42,"x_max":1050,"o":"m 872 688 l 738 0 l 590 0 l 674 424 l 517 424 q 535 347 535 389 q 528 295 535 326 q 434 142 509 198 q 259 87 359 87 q -12 434 28 87 l 113 472 q 168 280 132 339 q 267 222 203 222 q 363 262 325 222 q 401 363 401 302 q 381 411 401 394 q 311 429 361 429 l 328 543 l 696 543 l 724 688 l -42 688 l -17 809 l 1050 809 l 1026 688 l 872 688 m 125 26 q 177 8 158 26 q 196 -42 196 -10 q 174 -105 196 -82 q 113 -128 151 -128 q 62 -110 80 -128 q 43 -61 43 -92 q 65 3 43 -21 q 125 26 87 26 z "},"ड़":{"ha":778,"x_min":-42,"x_max":819,"o":"m 0 0 m 356 484 q 259 471 290 484 q 222 429 227 458 q 237 398 217 406 q 300 389 257 389 q 358 391 337 389 q 526 356 467 396 q 585 238 585 316 q 582 196 585 210 q 483 49 563 104 q 281 -5 403 -5 q 96 36 174 -5 q -42 151 19 78 l 61 241 q 166 155 111 181 q 302 130 220 130 q 399 154 361 130 q 444 214 438 177 q 427 251 450 236 q 337 260 405 266 l 300 259 q 141 297 201 259 q 83 410 82 335 q 87 446 83 422 q 174 569 102 530 q 349 609 245 609 q 467 604 411 609 l 486 688 l -40 688 l -16 809 l 819 809 l 795 688 l 622 688 l 582 477 l 564 465 q 521 472 536 469 q 468 479 512 474 q 356 484 424 484 m 241 -219 q 190 -201 208 -219 q 172 -151 172 -182 q 194 -88 172 -111 q 253 -64 215 -64 q 306 -82 286 -64 q 325 -132 325 -101 q 302 -195 325 -172 q 241 -219 280 -219 z "},"ढ़":{"ha":750,"x_min":-42,"x_max":792,"o":"m 0 0 m 330 434 q 197 388 253 434 q 127 267 141 342 q 123 236 123 247 q 146 163 123 194 q 212 120 168 132 q 210 151 210 128 q 215 205 210 174 q 283 316 229 276 q 403 356 337 356 q 515 319 474 356 q 556 220 556 281 q 552 186 556 210 q 446 38 531 85 q 255 -9 361 -9 q 60 60 134 -9 q -14 238 -14 128 q -7 302 -14 257 q 106 492 16 415 q 330 569 196 569 q 411 566 368 569 l 439 688 l -42 688 l -17 809 l 792 809 l 767 688 l 575 688 l 524 431 l 510 418 q 438 427 495 420 q 330 434 380 434 m 326 139 q 330 122 326 132 q 396 151 372 130 q 424 196 420 172 l 425 207 q 396 231 425 231 q 328 155 344 231 l 326 139 m 212 -222 q 161 -204 179 -222 q 142 -155 142 -186 q 164 -91 142 -115 q 224 -68 186 -68 q 276 -86 257 -68 q 295 -135 295 -104 q 273 -199 295 -175 q 212 -222 250 -222 z "},"फ़":{"ha":1158,"x_min":-42,"x_max":1200,"o":"m 642 563 q 785 594 712 594 q 939 543 882 594 q 997 399 997 493 q 990 337 997 382 q 809 87 962 200 l 722 193 q 810 273 778 238 q 852 363 842 307 q 854 387 854 372 q 767 458 854 458 q 611 399 701 458 l 533 0 l 385 0 l 427 214 q 290 188 352 188 q 114 244 177 188 q 50 389 50 300 q 56 438 50 411 l 104 688 l -42 688 l -17 809 l 1200 809 l 1175 688 l 667 688 l 642 563 m 252 688 l 210 472 q 203 408 203 439 q 225 341 203 363 q 295 319 247 319 q 453 351 378 319 l 519 688 l 252 688 m 149 137 q 201 119 182 137 q 220 69 220 101 q 198 6 220 30 q 137 -17 175 -17 q 86 1 104 -17 q 68 50 68 19 q 89 114 68 90 q 149 137 111 137 z "},"य़":{"ha":830,"x_min":10,"x_max":924,"o":"m 10 0 m 111 -61 q 60 -43 78 -61 q 42 7 42 -24 q 63 70 42 47 q 123 94 85 94 q 175 76 156 94 q 194 26 194 57 q 172 -37 194 -14 q 111 -61 149 -61 m 745 688 l 611 0 l 464 0 l 497 167 q 347 132 417 132 q 149 191 233 132 q 42 326 66 250 l 71 380 q 174 447 132 410 q 233 545 217 484 q 238 583 238 563 q 207 688 238 635 l 10 688 l 35 809 l 924 809 l 899 688 l 745 688 m 351 688 q 382 564 382 622 q 377 519 382 540 q 333 416 366 458 q 226 313 300 373 q 347 271 274 271 q 439 285 392 271 q 528 325 486 299 l 597 688 l 351 688 z "},"ॹ":{"ha":1009,"x_min":-42,"x_max":1050,"o":"m 872 688 l 738 0 l 590 0 l 667 387 l 510 387 q 528 307 528 351 q 523 259 528 283 q 427 103 503 160 q 250 47 351 47 q -24 396 19 47 l 106 436 q 160 243 127 300 q 257 186 193 186 q 354 226 314 186 q 394 328 394 266 q 347 387 394 373 q 304 392 328 392 l 321 507 l 689 507 l 724 688 l -42 688 l -17 809 l 1050 809 l 1026 688 l 872 688 m 321 -66 q 299 -122 321 -101 q 243 -144 278 -144 q 195 -126 214 -144 q 177 -78 177 -108 q 199 -23 177 -45 q 253 0 220 0 q 303 -18 285 0 q 321 -66 321 -36 m 462 0 q 511 -18 493 0 q 530 -66 530 -36 q 508 -122 530 -101 q 451 -144 486 -144 q 404 -126 422 -144 q 385 -78 385 -108 q 407 -23 385 -45 q 462 0 429 0 m 342 -156 q 390 -174 372 -156 q 408 -220 408 -191 q 386 -278 408 -255 q 330 -300 365 -300 q 284 -282 302 -300 q 266 -236 266 -264 q 287 -179 266 -201 q 342 -156 309 -156 z "},"ॻ":{"ha":839,"x_min":-42,"x_max":880,"o":"m 568 0 l 545 -120 l -42 -120 l -19 0 l 420 0 l 554 688 l 323 688 l 271 417 l 215 135 l 113 130 l 3 344 l 16 417 l 123 417 l 175 688 l -23 688 l 2 809 l 880 809 l 856 688 l 701 688 l 568 0 z "},"ॼ":{"ha":1009,"x_min":-62,"x_max":1050,"o":"m 738 0 l 715 -120 l -62 -120 l -40 0 l 590 0 l 672 417 l 516 417 q 533 337 533 380 q 528 288 533 313 q 433 133 509 189 q 257 76 358 76 q -17 425 23 76 l 111 465 q 165 273 132 330 q 262 215 198 215 q 350 247 313 215 q 398 326 387 278 q 401 354 401 344 q 309 422 401 422 l 326 536 l 694 536 l 724 688 l -42 688 l -17 809 l 1050 809 l 1026 688 l 872 688 l 738 0 z "},"ॾ":{"ha":780,"x_min":-42,"x_max":821,"o":"m 358 484 q 260 471 292 484 q 224 429 229 458 q 239 398 219 406 q 302 389 259 389 q 359 391 339 389 q 528 356 469 396 q 587 238 587 316 q 583 196 587 210 q 484 49 564 104 q 283 -5 405 -5 q 98 36 175 -5 q -40 151 21 78 l 63 241 q 168 155 113 181 q 304 130 222 130 q 401 154 363 130 q 446 214 439 177 q 429 251 451 236 q 339 260 406 266 l 302 259 q 143 297 203 259 q 85 410 83 335 q 89 446 85 422 q 175 569 104 530 q 351 609 247 609 q 469 604 415 609 l 488 688 l -38 688 l -14 809 l 821 809 l 797 688 l 623 688 l 583 477 l 566 465 q 523 472 538 469 q 470 479 514 474 q 358 484 425 484 m 498 -69 l 476 -189 l -42 -189 l -19 -69 l 498 -69 z "},"ॿ":{"ha":780,"x_min":-66,"x_max":821,"o":"m 509 0 l 486 -120 l -66 -120 l -43 0 l 361 0 l 385 128 q 222 94 309 94 q 58 148 122 94 q -5 299 -5 203 q 0 356 -5 325 q 107 533 23 470 q 302 595 191 595 q 396 582 358 595 q 469 549 434 569 l 495 688 l -42 688 l -17 809 l 821 809 l 797 688 l 642 688 l 509 0 m 318 467 q 273 464 300 467 l 411 283 l 417 286 l 443 422 q 318 467 391 467 m 130 332 q 128 311 128 325 q 163 242 128 266 q 253 219 198 219 q 318 229 288 219 l 172 411 q 130 332 141 380 z "},"ॸ":{"ha":776,"x_min":-42,"x_max":818,"o":"m 293 460 l 398 460 q 630 295 630 460 q 625 238 630 269 q 580 114 613 177 q 488 -35 547 50 l 365 50 q 436 160 410 116 q 469 241 462 203 q 472 273 472 266 q 444 317 472 309 q 333 325 417 325 l 269 325 l 240 179 l 137 174 l 10 387 l 24 460 l 146 460 l 191 688 l -42 688 l -17 809 l 818 809 l 793 688 l 339 688 l 293 460 z "},"०":{"ha":635,"x_min":35,"x_max":601,"o":"m 594 373 q 478 173 568 250 q 271 95 389 95 q 98 155 161 95 q 35 323 35 215 q 42 398 35 363 q 155 596 64 517 q 366 675 247 675 q 538 615 476 675 q 601 450 601 556 q 594 373 601 410 m 464 396 q 467 439 467 411 q 439 516 467 490 q 356 543 411 543 q 238 497 286 543 q 174 372 189 451 q 168 326 168 349 q 196 249 168 276 q 276 222 224 222 q 398 269 347 222 q 464 396 448 316 z "},"१":{"ha":580,"x_min":61,"x_max":545,"o":"m 545 628 q 468 422 545 509 q 210 229 391 335 l 399 35 l 304 -52 l 61 205 l 101 306 q 240 384 186 349 q 155 475 182 429 q 127 587 127 521 q 152 688 127 635 q 227 774 177 740 q 351 809 278 809 q 496 761 446 809 q 545 628 545 714 m 342 460 q 418 611 418 531 q 344 686 418 686 q 278 657 302 686 q 253 582 253 628 q 342 460 253 519 z "},"२":{"ha":639,"x_min":42,"x_max":587,"o":"m 587 601 q 518 397 587 491 q 321 236 450 302 l 481 52 l 382 -28 l 198 203 q 84 237 127 201 q 42 321 42 273 q 72 390 42 361 q 158 425 102 418 l 236 335 q 397 441 335 370 q 458 592 458 512 q 430 662 458 639 q 335 686 401 686 q 245 665 288 686 q 149 606 201 644 l 92 714 q 217 783 155 757 q 352 809 280 809 q 523 755 458 809 q 587 601 587 701 z "},"३":{"ha":641,"x_min":42,"x_max":589,"o":"m 410 455 q 513 403 476 444 q 550 300 550 361 q 488 170 550 227 q 319 99 425 113 l 408 3 l 300 -68 l 191 101 q 83 148 125 115 q 42 231 42 182 q 43 250 42 243 q 146 313 57 313 l 220 205 q 257 203 233 203 q 378 238 342 203 q 415 316 415 273 q 259 394 415 394 l 219 394 l 243 517 l 273 517 q 412 549 368 517 q 457 632 457 580 q 378 688 457 688 q 280 667 325 688 q 179 611 234 646 l 122 719 q 250 786 188 762 q 391 809 313 809 q 536 770 484 809 q 589 655 589 731 q 542 530 589 583 q 410 455 495 477 z "},"४":{"ha":698,"x_min":35,"x_max":663,"o":"m 663 668 q 609 524 663 589 q 417 370 556 460 q 491 295 465 332 q 517 212 517 259 q 451 63 517 125 q 248 0 384 0 q 90 45 146 0 q 35 167 35 90 q 73 282 35 240 q 208 380 111 325 q 103 482 139 434 q 68 595 68 530 q 87 707 68 656 q 151 806 106 757 l 260 729 q 210 658 222 686 q 198 595 198 630 q 223 528 198 559 q 319 443 248 497 q 485 566 441 514 q 530 668 530 618 q 520 715 530 696 q 509 740 510 734 l 627 792 q 655 728 646 753 q 663 668 663 703 m 255 125 q 345 150 309 125 q 382 210 382 175 q 362 258 382 234 q 306 307 342 281 q 203 245 236 271 q 170 189 170 219 q 193 144 170 163 q 255 125 215 125 z "},"५":{"ha":559,"x_min":43,"x_max":549,"o":"m 549 358 q 488 240 549 288 l 528 5 l 405 -30 l 380 191 q 267 174 318 174 q 99 227 155 174 q 43 373 43 281 q 50 444 43 411 q 114 610 68 531 q 247 806 160 689 l 363 738 q 238 560 276 622 q 186 425 200 498 q 182 392 182 405 q 205 330 182 354 q 274 306 227 306 q 370 319 323 306 l 358 415 q 457 448 406 448 q 525 423 502 448 q 549 358 549 398 z "},"६":{"ha":637,"x_min":42,"x_max":615,"o":"m 356 304 q 443 321 403 321 q 514 299 488 321 q 540 241 540 276 q 477 142 540 179 l 512 -7 l 399 -43 l 380 109 q 260 97 319 97 q 102 148 161 97 q 42 271 42 198 q 94 399 42 342 q 248 464 146 457 q 161 517 194 477 q 127 613 127 557 q 190 752 127 694 q 387 809 253 809 q 615 736 517 809 l 540 635 q 468 669 503 656 q 382 682 432 682 q 288 661 319 682 q 257 599 257 639 q 399 523 257 523 l 439 523 l 415 399 l 385 399 q 227 370 274 399 q 179 285 179 340 q 204 228 179 250 q 280 207 229 207 q 366 217 318 207 l 356 304 z "},"७":{"ha":821,"x_min":35,"x_max":786,"o":"m 582 720 q 732 656 677 720 q 786 477 786 592 q 774 368 786 424 q 702 194 757 276 q 556 58 648 111 q 347 5 465 5 q 115 91 196 5 q 35 323 35 177 q 47 438 35 382 q 219 793 87 632 l 332 727 q 238 587 278 658 q 179 415 198 516 q 170 333 170 366 q 219 189 170 241 q 352 137 267 137 q 515 183 443 137 q 622 309 587 229 q 542 293 582 293 q 391 343 444 293 q 339 472 339 392 q 407 649 339 578 q 582 720 476 720 m 472 483 q 491 438 472 455 q 547 420 510 420 q 655 443 606 420 q 656 476 656 455 q 635 558 656 530 q 578 587 615 587 q 497 556 521 587 q 472 483 472 524 z "},"८":{"ha":623,"x_min":35,"x_max":627,"o":"m 531 66 q 404 19 467 38 q 271 0 340 0 q 95 54 156 0 q 35 203 35 108 q 42 273 35 240 q 197 530 69 410 q 503 773 325 651 l 549 806 l 627 707 l 578 672 q 391 532 465 592 q 253 398 316 472 q 175 250 189 325 q 172 217 172 226 q 281 130 172 130 q 486 189 368 130 l 531 66 z "},"९":{"ha":516,"x_min":36,"x_max":455,"o":"m 455 644 q 422 509 455 564 q 307 382 389 453 q 377 222 377 290 q 357 123 377 163 q 286 43 337 83 q 132 -54 234 3 l 64 56 q 180 122 144 99 q 232 166 215 144 q 248 217 248 188 q 228 285 248 253 q 168 359 208 316 q 134 401 158 373 q 63 503 89 455 q 36 602 36 552 q 87 749 36 689 q 269 809 137 809 q 404 761 352 809 q 455 644 455 714 m 248 686 q 189 661 208 686 q 170 597 170 637 q 184 538 170 563 q 229 477 198 514 q 299 541 276 510 q 321 608 321 571 q 302 666 321 646 q 248 686 283 686 z "},"ॽ":{"ha":839,"x_min":156,"x_max":700,"o":"m 700 582 q 625 747 700 689 q 439 806 550 806 q 305 789 368 806 q 156 736 241 773 l 175 602 q 295 646 248 632 q 391 660 342 660 q 499 633 465 660 q 533 561 533 606 q 469 436 533 486 q 241 352 405 385 l 186 94 l 167 0 l 325 0 l 377 257 q 618 380 536 307 q 700 582 700 453 z "},"।":{"ha":658,"x_min":243,"x_max":571,"o":"m 391 -87 l 243 -87 l 424 839 l 571 839 l 391 -87 z "},"॥":{"ha":962,"x_min":243,"x_max":875,"o":"m 243 0 m 391 -87 l 243 -87 l 424 839 l 571 839 l 391 -87 m 694 -87 l 547 -87 l 727 839 l 875 839 l 694 -87 z "},"॰":{"ha":533,"x_min":9,"x_max":464,"o":"m 189 128 q 61 183 113 128 q 9 319 9 238 q 46 446 9 387 q 148 542 83 505 q 285 578 212 578 q 412 523 361 578 q 464 389 464 469 q 426 260 464 321 q 326 164 389 200 q 189 128 262 128 m 210 259 q 293 290 259 259 q 335 368 326 321 q 337 385 337 373 q 318 432 337 413 q 264 451 299 451 q 181 421 215 451 q 137 344 146 391 q 135 326 135 339 q 155 278 135 297 q 210 259 175 259 z "},"ॱ":{"ha":472,"x_min":139,"x_max":333,"o":"m 226 653 q 163 678 188 653 q 139 743 139 703 q 141 762 139 755 q 179 822 149 797 q 247 847 208 847 q 309 822 285 847 q 333 757 333 797 q 332 738 333 745 q 293 678 323 703 q 226 653 264 653 z "},"ॐ":{"ha":1207,"x_min":17,"x_max":1189,"o":"m 931 819 q 886 835 903 819 q 870 877 870 851 q 889 927 870 908 q 938 946 908 946 q 980 931 964 946 q 997 889 997 915 q 995 870 997 877 q 974 832 991 845 q 931 819 957 819 m 915 660 q 776 705 825 660 q 717 821 727 750 l 813 852 q 847 780 823 802 q 917 757 872 757 q 1071 863 1009 757 l 1158 811 q 915 660 1071 660 m 1038 609 q 1151 555 1113 609 q 1189 410 1189 500 q 1181 318 1189 373 q 1095 148 1160 215 q 936 82 1030 82 q 808 130 852 82 q 750 269 764 179 q 655 253 703 253 q 601 259 625 253 q 508 81 582 141 q 311 21 434 21 q 171 55 224 21 q 88 144 118 89 q 17 306 57 200 l 137 363 q 189 240 168 280 q 241 175 210 200 q 325 151 273 151 q 426 181 389 151 q 474 267 464 212 q 476 286 476 274 q 444 352 476 326 q 351 375 411 377 l 333 375 l 295 375 l 319 498 l 354 498 q 490 532 453 498 q 536 615 526 566 q 538 632 538 622 q 464 686 538 686 q 390 667 427 686 q 311 616 352 648 l 248 726 q 365 787 309 766 q 486 809 422 809 q 621 764 571 809 q 670 646 670 719 q 625 513 670 573 q 507 431 580 453 q 592 381 563 392 q 660 370 622 370 q 761 400 720 370 q 851 490 802 431 q 938 579 898 549 q 1038 609 977 609 m 939 200 q 1016 239 979 200 q 1064 342 1052 278 q 1073 415 1073 389 q 1026 477 1073 477 q 985 463 1003 477 q 934 410 967 448 q 903 374 925 399 q 856 326 880 349 q 880 234 861 267 q 939 200 899 200 z "},"*":{"ha":845,"x_min":104,"x_max":741,"o":"m 385 753 l 250 891 l 134 738 l 321 665 l 104 589 l 158 439 l 351 575 l 276 363 l 448 363 l 458 575 l 592 438 l 712 587 l 526 660 l 741 738 l 684 891 l 495 753 l 564 967 l 392 967 l 385 753 z "},"\\":{"ha":333,"x_min":56,"x_max":325,"o":"m 198 -95 l 325 -95 l 181 990 l 56 990 l 198 -95 z "},"•":{"ha":941,"x_min":234,"x_max":707,"o":"m 417 234 q 569 277 503 234 q 671 387 635 319 q 707 528 707 455 q 655 647 707 599 q 524 694 604 694 q 370 652 436 694 q 269 543 304 609 q 234 408 234 476 q 286 284 234 333 q 417 234 337 234 z "},":":{"ha":484,"x_min":111,"x_max":373,"o":"m 269 377 q 211 401 234 377 q 188 464 188 425 q 215 536 188 509 q 290 564 243 564 q 350 539 326 564 q 373 477 373 514 q 346 405 373 432 q 269 377 319 377 m 193 -19 q 135 5 158 -19 q 111 68 111 30 q 139 141 111 113 q 214 168 167 168 q 273 143 250 168 q 297 82 297 118 q 270 9 297 36 q 193 -19 243 -19 z "},",":{"ha":415,"x_min":52,"x_max":300,"o":"m 165 -14 q 122 18 139 -5 q 106 73 106 42 q 139 148 106 118 q 215 179 172 179 q 278 153 255 179 q 300 80 300 127 q 297 40 300 68 q 236 -76 285 -21 q 106 -201 188 -130 l 52 -161 l 165 -14 z "},"…":{"ha":889,"x_min":61,"x_max":828,"o":"m 142 -19 q 84 5 108 -19 q 61 68 61 30 q 89 141 61 113 q 163 168 116 168 q 223 143 200 168 q 247 82 247 118 q 220 9 247 36 q 142 -19 193 -19 m 432 -19 q 374 5 398 -19 q 351 68 351 30 q 378 141 351 113 q 453 168 406 168 q 513 143 490 168 q 536 82 536 118 q 510 9 536 36 q 432 -19 483 -19 m 724 -19 q 666 5 689 -19 q 642 68 642 30 q 670 141 642 113 q 745 168 698 168 q 805 143 781 168 q 828 82 828 118 q 801 9 828 36 q 724 -19 774 -19 z "},"!":{"ha":516,"x_min":139,"x_max":464,"o":"m 313 156 l 191 156 l 313 856 l 464 856 l 313 156 m 215 -99 q 161 -78 182 -99 q 139 -23 139 -57 q 166 44 139 17 q 231 71 193 71 q 286 50 264 71 q 307 -3 307 30 q 306 -26 307 -19 q 274 -78 300 -57 q 215 -99 248 -99 z "},"¡":{"ha":516,"x_min":52,"x_max":377,"o":"m 300 839 q 356 818 335 839 q 377 762 377 797 q 350 695 377 722 q 285 668 323 668 q 230 690 252 668 q 208 745 208 712 q 235 812 208 785 q 300 839 262 839 m 316 583 l 203 -116 l 52 -116 l 201 583 l 316 583 z "},"#":{"ha":995,"x_min":45,"x_max":950,"o":"m 127 620 l 102 495 l 300 495 l 266 311 l 69 311 l 45 186 l 241 186 l 193 -64 l 323 -64 l 372 186 l 526 186 l 477 -64 l 609 -64 l 658 186 l 866 186 l 891 311 l 682 311 l 717 495 l 925 495 l 950 620 l 741 620 l 788 858 l 656 858 l 609 620 l 455 620 l 502 858 l 372 858 l 325 620 l 127 620 m 585 495 l 550 311 l 396 311 l 431 495 l 585 495 z "},".":{"ha":319,"x_min":61,"x_max":259,"o":"m 149 -19 q 86 7 111 -19 q 61 73 61 33 q 91 149 61 120 q 170 179 122 179 q 234 153 208 179 q 259 87 259 127 q 229 10 259 40 q 149 -19 200 -19 z "},"·":{"ha":398,"x_min":95,"x_max":302,"o":"m 188 391 q 122 418 148 391 q 95 484 95 444 q 130 563 95 530 q 210 597 165 597 q 276 571 250 597 q 302 507 302 545 q 299 483 302 500 q 260 418 292 444 q 188 391 227 391 z "},"?":{"ha":731,"x_min":122,"x_max":679,"o":"m 679 639 q 601 816 679 760 q 405 872 523 872 q 273 858 332 872 q 132 809 215 844 l 153 668 q 370 726 271 726 q 477 698 443 726 q 514 627 512 670 q 398 472 512 557 q 293 389 330 422 q 218 297 255 356 q 165 155 181 238 l 160 132 l 319 132 l 326 165 q 373 275 340 236 q 469 359 406 314 q 505 387 481 370 q 598 464 568 436 q 654 538 628 493 q 679 639 679 583 m 207 -135 q 145 -111 168 -135 q 122 -50 122 -87 q 152 24 122 -7 q 226 56 182 56 q 287 31 264 56 q 311 -30 311 7 q 280 -104 311 -73 q 207 -135 250 -135 z "},"¿":{"ha":731,"x_min":52,"x_max":609,"o":"m 524 837 q 586 813 563 837 q 609 752 609 788 q 579 677 609 708 q 505 646 549 646 q 444 670 467 646 q 420 731 420 694 q 451 806 420 774 q 524 837 481 837 m 52 63 q 130 -115 52 -59 q 326 -170 208 -170 q 457 -156 399 -170 q 599 -108 516 -142 l 578 33 q 361 -24 460 -24 q 253 3 288 -24 q 217 75 219 31 q 333 229 219 144 q 438 313 401 280 q 513 405 476 345 q 566 547 550 464 l 571 569 l 411 569 l 405 536 q 358 426 391 465 q 262 342 325 387 q 226 314 250 332 q 133 237 163 266 q 77 163 102 208 q 52 63 52 118 z "},"\"":{"ha":514,"x_min":69,"x_max":444,"o":"m 69 651 m 89 898 q 109 957 90 932 q 168 981 128 981 q 220 963 203 981 q 236 915 236 944 q 233 887 236 896 l 156 651 l 69 651 l 89 898 m 297 898 q 318 957 299 932 q 377 981 337 981 q 428 963 411 981 q 444 915 444 944 q 441 887 444 896 l 365 651 l 278 651 l 297 898 z "},"'":{"ha":306,"x_min":69,"x_max":236,"o":"m 89 898 q 109 957 90 932 q 168 981 128 981 q 220 963 203 981 q 236 915 236 944 q 233 887 236 896 l 156 651 l 69 651 l 89 898 z "},";":{"ha":531,"x_min":99,"x_max":420,"o":"m 316 377 q 258 401 281 377 q 234 464 234 425 q 262 536 234 509 q 337 564 290 564 q 397 539 373 564 q 420 477 420 514 q 393 405 420 432 q 316 377 366 377 m 212 -14 q 173 15 188 -5 q 158 64 158 35 q 187 141 158 113 q 260 168 215 168 q 322 146 300 168 q 344 82 344 123 q 292 -57 344 9 q 151 -201 240 -123 l 99 -161 l 212 -14 z "},"/":{"ha":774,"x_min":9,"x_max":722,"o":"m 153 -95 l 722 990 l 578 990 l 9 -95 l 153 -95 z "},"_":{"ha":804,"x_min":104,"x_max":700,"o":"m 681 -144 l 700 -43 l 123 -43 l 104 -144 l 681 -144 z "},"{":{"ha":660,"x_min":43,"x_max":634,"o":"m 61 443 q 194 496 141 453 q 260 608 248 538 l 286 741 q 405 956 314 884 q 616 1043 497 1028 l 634 905 q 527 872 566 889 q 457 813 488 856 q 411 691 427 771 l 391 576 q 224 365 366 453 q 286 296 260 339 q 313 198 313 253 q 309 156 313 170 l 286 42 q 278 -38 278 3 q 294 -108 278 -83 q 338 -142 311 -132 q 418 -165 365 -153 l 365 -300 q 205 -224 269 -288 q 141 -49 141 -160 q 148 28 141 -9 l 170 146 q 174 182 174 174 q 43 300 174 281 l 61 443 z "},"}":{"ha":660,"x_min":26,"x_max":616,"o":"m 599 299 q 465 246 519 288 q 399 134 411 203 l 373 0 q 254 -214 345 -142 q 43 -302 163 -286 l 26 -163 q 133 -131 94 -148 q 202 -72 172 -115 q 248 50 233 -30 l 269 165 q 436 377 293 288 q 373 445 399 403 q 347 543 347 488 q 351 585 347 571 l 373 700 q 382 780 382 740 q 365 849 382 825 q 322 884 349 873 q 241 906 295 894 l 295 1042 q 455 965 391 1030 q 519 790 519 901 q 512 714 519 750 l 490 595 q 486 559 486 568 q 616 441 486 460 l 599 299 z "},"[":{"ha":769,"x_min":92,"x_max":677,"o":"m 351 1061 l 677 1061 l 651 931 l 465 931 l 259 -137 l 444 -137 l 418 -267 l 92 -267 l 351 1061 z "},"]":{"ha":769,"x_min":92,"x_max":677,"o":"m 304 -137 l 510 931 l 325 931 l 351 1061 l 677 1061 l 418 -267 l 92 -267 l 118 -137 l 304 -137 z "},"(":{"ha":587,"x_min":92,"x_max":535,"o":"m 233 247 q 299 -220 233 24 l 198 -262 q 122 -17 153 -156 q 92 255 92 122 q 181 648 92 462 q 446 1052 269 833 l 535 990 q 310 614 387 797 q 233 247 233 431 z "},")":{"ha":587,"x_min":52,"x_max":495,"o":"m 354 530 q 288 997 354 752 l 389 1038 q 464 793 434 932 q 495 521 495 655 q 406 128 495 314 q 141 -276 318 -57 l 52 -214 q 277 162 200 -21 q 354 530 354 345 z "},"—":{"ha":1109,"x_min":52,"x_max":1023,"o":"m 1000 313 l 52 313 l 75 429 l 1023 429 l 1000 313 z "},"–":{"ha":745,"x_min":52,"x_max":658,"o":"m 635 313 l 52 313 l 75 429 l 658 429 l 635 313 z "},"-":{"ha":589,"x_min":52,"x_max":502,"o":"m 479 313 l 52 313 l 75 429 l 502 429 l 479 313 z "},"­":{"ha":554,"x_min":52,"x_max":502,"o":"m 52 313 m 479 313 l 52 313 l 75 429 l 502 429 l 479 313 z "},"«":{"ha":738,"x_min":50,"x_max":703,"o":"m 50 139 m 191 139 l 328 139 l 191 408 l 444 701 l 304 701 l 50 418 l 191 139 m 450 139 l 587 139 l 450 408 l 703 701 l 563 701 l 309 418 l 450 139 z "},"»":{"ha":738,"x_min":35,"x_max":688,"o":"m 35 141 m 288 703 l 151 703 l 288 434 l 35 141 l 175 141 l 429 424 l 288 703 m 547 703 l 410 703 l 547 434 l 293 141 l 434 141 l 688 424 l 547 703 z "},"‹":{"ha":479,"x_min":50,"x_max":444,"o":"m 191 139 l 328 139 l 191 408 l 444 701 l 304 701 l 50 418 l 191 139 z "},"›":{"ha":479,"x_min":35,"x_max":429,"o":"m 288 703 l 151 703 l 288 434 l 35 141 l 175 141 l 429 424 l 288 703 z "},"„":{"ha":632,"x_min":104,"x_max":580,"o":"m 104 0 m 262 179 q 324 156 302 179 q 345 95 345 134 q 342 66 345 87 q 280 -33 332 17 q 155 -141 229 -83 l 104 -99 q 200 9 175 -28 q 169 39 181 19 q 158 83 158 59 q 160 101 158 95 q 194 158 168 137 q 262 179 220 179 m 497 179 q 558 156 536 179 q 580 95 580 134 q 576 66 580 87 q 515 -33 566 17 q 389 -141 464 -83 l 339 -99 q 434 9 410 -28 q 404 39 415 19 q 392 83 392 59 q 394 101 392 95 q 429 158 403 137 q 497 179 455 179 z "},"“":{"ha":632,"x_min":52,"x_max":528,"o":"m 52 649 m 196 819 q 227 789 215 809 q 238 745 238 769 q 209 676 238 703 q 134 649 181 649 q 73 672 94 649 q 52 733 52 694 q 56 762 52 741 q 114 859 64 811 q 241 969 163 908 l 293 927 q 196 819 222 856 m 431 819 q 461 789 450 809 q 472 745 472 769 q 444 676 472 703 q 368 649 415 649 q 307 672 328 649 q 286 733 286 694 q 290 762 286 741 q 348 859 299 811 q 476 969 398 908 l 528 927 q 431 819 457 856 z "},"”":{"ha":632,"x_min":104,"x_max":580,"o":"m 104 646 m 262 965 q 324 943 302 965 q 345 882 345 920 q 342 852 345 873 q 280 753 332 804 q 155 646 229 703 l 104 688 q 200 795 175 759 q 169 826 181 806 q 158 870 158 845 q 160 887 158 882 q 194 944 168 924 q 262 965 220 965 m 497 965 q 558 943 536 965 q 580 882 580 920 q 576 852 580 873 q 515 753 566 804 q 389 646 464 703 l 339 688 q 434 795 410 759 q 404 826 415 806 q 392 870 392 845 q 394 887 392 882 q 429 944 403 924 q 497 965 455 965 z "},"‘":{"ha":398,"x_min":52,"x_max":293,"o":"m 196 819 q 227 789 215 809 q 238 745 238 769 q 209 676 238 703 q 134 649 181 649 q 73 672 94 649 q 52 733 52 694 q 56 762 52 741 q 114 859 64 811 q 241 969 163 908 l 293 927 q 196 819 222 856 z "},"’":{"ha":398,"x_min":104,"x_max":345,"o":"m 262 965 q 324 943 302 965 q 345 882 345 920 q 342 852 345 873 q 280 753 332 804 q 155 646 229 703 l 104 688 q 200 795 175 759 q 169 826 181 806 q 158 870 158 845 q 160 887 158 882 q 194 944 168 924 q 262 965 220 965 z "},"‚":{"ha":405,"x_min":104,"x_max":352,"o":"m 104 0 m 217 -14 q 174 18 191 -5 q 158 73 158 42 q 191 148 158 118 q 267 179 224 179 q 330 153 307 179 q 352 80 352 127 q 349 40 352 68 q 288 -76 337 -21 q 158 -201 240 -130 l 104 -161 l 217 -14 z "},"π":{"ha":793,"x_min":17,"x_max":793,"o":"m 597 229 q 592 186 592 207 q 660 118 592 118 q 703 123 681 118 l 710 23 q 681 10 703 19 q 631 -6 660 0 q 566 -12 602 -12 q 452 24 488 -12 q 417 122 417 61 q 422 170 417 148 l 491 526 l 306 526 l 203 0 l 36 0 l 139 526 l 17 526 l 45 667 l 793 667 l 766 526 l 655 526 l 597 229 z "},"¢":{"ha":731,"x_min":50,"x_max":694,"o":"m 448 634 q 276 556 333 634 q 219 380 219 479 q 261 262 219 306 q 385 219 304 219 q 470 228 431 219 q 569 257 509 238 l 592 132 q 391 89 484 97 l 358 -82 l 219 -82 l 253 97 q 103 199 156 123 q 50 375 50 274 q 87 536 50 455 q 198 679 123 618 q 382 757 273 740 l 413 920 l 552 920 l 521 760 q 610 740 575 755 q 694 698 646 726 l 623 592 q 530 624 564 615 q 448 634 497 634 z "},"¤":{"ha":851,"x_min":57,"x_max":793,"o":"m 160 -3 l 285 113 q 385 89 330 89 q 523 120 460 89 l 630 0 l 745 109 l 635 227 q 684 356 679 299 l 686 382 q 668 484 686 439 l 793 597 l 691 715 l 566 599 q 510 619 538 613 q 444 623 483 625 q 328 592 394 620 l 220 710 l 108 601 l 217 484 q 167 354 172 413 l 165 328 q 182 227 165 273 l 57 113 l 160 -3 m 425 472 q 441 474 441 474 q 508 447 481 474 q 535 377 535 420 q 533 358 535 365 q 498 290 528 319 q 431 255 469 260 q 415 253 425 253 q 348 280 375 253 q 321 349 321 307 q 323 370 321 363 q 338 404 325 387 q 371 439 351 420 q 391 464 391 458 q 391 465 391 464 q 425 472 391 467 z "},"$":{"ha":731,"x_min":35,"x_max":663,"o":"m 288 594 q 318 547 288 568 q 408 498 347 526 q 554 412 502 455 q 606 299 606 370 q 562 170 606 231 q 392 94 517 109 l 358 -82 l 219 -82 l 253 92 q 142 113 193 97 q 35 155 92 128 l 99 276 q 292 226 227 226 q 448 290 448 226 q 422 330 448 313 q 337 373 396 347 q 228 429 269 405 q 157 493 188 453 q 127 587 127 533 q 180 716 127 661 q 394 780 233 771 l 422 920 l 561 920 l 531 773 q 663 733 613 757 l 592 613 q 503 637 540 628 q 418 646 465 646 q 313 633 337 646 q 288 594 288 620 z "},"€":{"ha":955,"x_min":17,"x_max":899,"o":"m 609 691 q 387 589 464 691 l 707 589 l 682 458 l 328 458 q 314 382 321 434 l 667 382 l 641 252 l 325 252 q 403 162 347 193 q 543 132 458 132 q 641 140 599 132 q 760 177 684 148 l 778 49 q 635 0 703 16 q 484 -16 566 -16 q 269 62 354 -16 q 158 252 184 139 l 17 252 l 43 382 l 151 382 q 161 458 153 418 l 59 458 l 83 589 l 205 589 q 365 766 259 700 q 634 832 472 832 q 899 757 766 832 l 832 642 q 609 691 731 691 z "},"ƒ":{"ha":602,"x_min":-243,"x_max":689,"o":"m 641 670 q 596 683 630 674 q 523 693 563 693 q 359 582 382 693 l 349 530 l 566 530 l 542 399 l 328 399 l 234 -80 q 144 -253 214 -193 q -66 -312 75 -312 q -243 -286 -144 -312 l -207 -174 q -101 -187 -141 -187 q 26 -155 -10 -187 q 78 -40 63 -122 l 163 399 l 35 399 l 59 530 l 188 530 l 200 587 q 281 749 217 674 q 491 825 345 825 q 585 819 542 825 q 689 790 628 813 l 641 670 z "},"₹":{"ha":747,"x_min":35,"x_max":694,"o":"m 462 698 q 490 611 483 660 l 656 611 l 634 497 l 479 497 q 389 352 457 413 q 241 264 321 292 l 378 28 q 319 -8 359 17 q 259 -45 278 -33 l 35 344 l 151 418 l 179 370 q 335 497 297 410 l 73 497 l 95 611 l 354 611 q 309 698 347 663 l 111 698 l 134 809 l 694 809 l 672 698 l 462 698 z "},"£":{"ha":868,"x_min":35,"x_max":799,"o":"m 635 0 l 661 130 l 344 130 l 382 328 l 661 328 l 688 460 l 408 460 q 449 602 429 554 q 503 669 469 649 q 597 689 536 689 q 733 670 644 689 l 799 795 q 622 828 707 828 q 442 790 512 828 q 328 673 372 752 q 259 460 285 594 l 141 460 l 115 328 l 233 328 l 194 130 l 61 130 l 35 0 l 635 0 z "},"¥":{"ha":852,"x_min":69,"x_max":783,"o":"m 285 439 l 130 439 l 108 318 l 292 318 l 278 247 l 94 247 l 69 125 l 257 125 l 236 0 l 372 0 l 396 125 l 592 125 l 616 247 l 420 247 l 434 318 l 630 318 l 653 439 l 488 439 l 783 809 l 622 809 l 396 516 l 286 809 l 134 809 l 285 439 z "},"Ω":{"ha":1007,"x_min":52,"x_max":955,"o":"m 587 684 q 730 632 679 684 q 781 490 781 580 q 728 288 781 384 q 554 106 675 193 l 530 0 l 873 0 l 899 127 l 736 127 q 905 338 856 238 q 955 543 955 438 q 911 697 955 628 q 787 805 866 766 q 606 844 708 844 q 342 778 444 844 q 194 615 240 712 q 149 425 149 519 q 173 280 149 337 q 247 155 196 224 l 266 127 l 78 127 l 52 0 l 394 0 l 420 113 q 311 368 311 222 q 341 517 311 444 q 434 637 372 590 q 587 684 497 684 z "},"≈":{"ha":882,"x_min":95,"x_max":786,"o":"m 444 448 q 597 410 547 410 q 693 431 642 410 q 786 486 743 453 l 708 608 q 652 570 675 583 q 597 557 628 557 q 536 566 564 557 q 484 586 509 575 q 446 602 458 597 q 293 641 365 641 q 194 616 248 641 q 95 559 141 592 l 175 439 q 234 479 207 464 q 293 495 262 495 q 347 487 323 495 q 410 464 372 479 l 444 448 m 444 170 q 597 132 547 132 q 693 154 642 132 q 786 208 743 175 l 708 330 q 652 293 675 306 q 597 280 628 280 q 536 288 564 280 q 484 308 509 297 q 446 325 458 319 q 293 363 365 363 q 194 339 248 363 q 95 281 141 314 l 175 161 q 234 201 207 186 q 293 217 262 217 q 347 209 323 217 q 410 186 372 201 l 444 170 z "},"~":{"ha":740,"x_min":69,"x_max":670,"o":"m 69 759 m 278 941 q 156 908 208 941 q 69 793 104 875 l 196 762 q 229 811 215 797 q 269 825 243 825 q 296 818 281 825 q 326 802 311 811 q 391 770 363 781 q 455 759 418 759 q 587 802 528 759 q 670 917 646 845 l 543 944 q 528 919 540 939 q 501 887 516 899 q 467 875 486 875 q 394 903 443 875 q 330 931 354 922 q 278 941 306 941 z "},"∙":{"ha":569,"x_min":139,"x_max":431,"o":"m 266 247 q 175 283 212 247 q 139 375 139 319 q 183 491 139 444 q 304 538 227 538 q 394 502 358 538 q 431 410 431 465 q 386 293 431 340 q 266 247 342 247 z "},"÷":{"ha":840,"x_min":87,"x_max":753,"o":"m 424 547 q 356 575 384 547 q 328 642 328 602 q 356 709 328 682 q 424 736 384 736 q 490 709 464 736 q 517 642 517 682 q 490 575 517 602 q 424 547 464 547 m 753 325 l 753 464 l 87 464 l 87 325 l 753 325 m 424 52 q 356 80 384 52 q 328 148 328 108 q 356 214 328 188 q 424 241 384 241 q 490 214 464 241 q 517 148 517 188 q 490 80 517 108 q 424 52 464 52 z "},"∕":{"ha":625,"x_min":-113,"x_max":738,"o":"m 50 -17 l 738 809 l 575 809 l -113 -17 l 50 -17 z "},"=":{"ha":927,"x_min":122,"x_max":806,"o":"m 806 460 l 806 594 l 122 594 l 122 460 l 806 460 m 806 186 l 806 319 l 122 319 l 122 186 l 806 186 z "},">":{"ha":743,"x_min":83,"x_max":674,"o":"m 83 616 l 514 417 l 83 219 l 83 73 l 674 361 l 674 472 l 83 762 l 83 616 z "},"≥":{"ha":759,"x_min":83,"x_max":689,"o":"m 83 663 l 83 540 l 517 420 l 83 302 l 83 177 l 688 365 l 688 476 l 83 663 m 83 0 l 689 0 l 689 111 l 83 111 l 83 0 z "},"∆":{"ha":806,"x_min":56,"x_max":750,"o":"m 491 809 l 318 809 l 56 87 l 56 0 l 750 0 l 750 87 l 491 809 m 219 122 l 403 651 l 583 122 l 219 122 z "},"∞":{"ha":1115,"x_min":35,"x_max":1080,"o":"m 753 83 q 990 174 901 83 q 1080 415 1080 266 q 1023 589 1080 521 q 859 656 967 656 q 684 610 757 656 q 528 467 611 564 q 425 563 477 531 q 302 595 373 595 q 145 554 205 595 q 60 453 85 512 q 35 339 35 394 q 91 187 35 250 q 238 123 148 123 q 372 160 313 123 q 497 260 432 196 q 611 128 554 172 q 753 83 668 83 m 804 517 q 897 484 870 517 q 924 394 924 451 q 884 271 924 323 q 764 219 844 219 q 674 258 712 219 q 590 373 637 297 q 701 484 655 451 q 804 517 747 517 m 266 260 q 202 285 224 260 q 181 345 181 309 q 207 424 181 389 q 288 458 233 458 q 374 428 333 458 q 441 352 415 398 q 357 286 405 311 q 266 260 309 260 z "},"∫":{"ha":689,"x_min":52,"x_max":637,"o":"m 285 241 q 307 63 307 118 q 286 -30 307 7 q 210 -66 266 -66 q 169 -60 189 -66 q 132 -47 149 -54 l 52 -177 q 122 -206 78 -193 q 217 -219 165 -219 q 398 -143 332 -219 q 464 59 464 -68 q 424 366 464 139 q 410 455 413 434 q 390 588 398 526 q 382 689 382 649 q 401 786 382 748 q 476 825 420 825 q 516 819 497 825 q 554 806 536 813 l 637 938 q 607 953 632 941 q 552 972 582 965 q 490 979 523 979 q 293 908 363 979 q 224 712 224 837 q 237 559 224 656 q 278 286 250 462 l 285 241 z "},"<":{"ha":743,"x_min":69,"x_max":660,"o":"m 660 73 l 660 219 l 229 417 l 660 616 l 660 762 l 69 472 l 69 361 l 660 73 z "},"≤":{"ha":759,"x_min":69,"x_max":675,"o":"m 675 302 l 241 420 l 675 540 l 675 663 l 71 476 l 71 365 l 675 177 l 675 302 m 675 0 l 675 111 l 69 111 l 69 0 l 675 0 z "},"¬":{"ha":842,"x_min":78,"x_max":764,"o":"m 618 97 l 618 293 l 78 293 l 78 431 l 764 431 l 764 97 l 618 97 z "},"µ":{"ha":955,"x_min":94,"x_max":870,"o":"m 627 -2 l 616 43 q 422 -16 505 -16 q 311 17 363 -16 l 245 -302 l 94 -302 l 283 667 l 439 667 l 370 311 q 358 217 358 250 q 378 151 358 174 q 446 128 398 128 q 613 175 521 128 l 712 667 l 870 667 l 740 -2 l 627 -2 z "},"−":{"ha":840,"x_min":87,"x_max":753,"o":"m 753 325 l 753 464 l 87 464 l 87 325 l 753 325 z "},"×":{"ha":774,"x_min":122,"x_max":653,"o":"m 387 278 l 220 111 l 122 210 l 288 377 l 123 543 l 220 642 l 387 476 l 554 642 l 651 543 l 486 377 l 653 210 l 554 111 l 387 278 z "},"≠":{"ha":927,"x_min":122,"x_max":806,"o":"m 519 319 l 806 319 l 806 186 l 476 186 l 415 0 l 273 0 l 333 186 l 122 186 l 122 319 l 377 319 l 424 460 l 122 460 l 122 594 l 467 594 l 531 792 l 674 792 l 609 594 l 806 594 l 806 460 l 566 460 l 519 319 z "},"∂":{"ha":767,"x_min":61,"x_max":715,"o":"m 446 825 q 649 722 583 825 q 715 474 715 620 q 676 250 715 363 q 546 60 637 137 q 309 -17 455 -17 q 176 16 233 -17 q 90 104 120 50 q 61 217 61 158 q 98 372 61 300 q 214 489 135 444 q 410 533 292 533 q 556 509 488 533 q 408 694 543 694 q 309 675 372 694 q 201 634 247 656 l 168 759 q 319 808 257 792 q 446 825 380 825 m 340 127 q 477 194 429 127 q 545 361 526 260 q 385 389 464 389 q 255 350 292 389 q 219 234 219 311 q 251 155 219 182 q 340 127 283 127 z "},"%":{"ha":892,"x_min":17,"x_max":875,"o":"m 875 809 l 727 809 l 17 0 l 163 0 l 875 809 m 422 655 q 382 763 422 717 q 276 809 342 809 q 110 736 165 809 q 56 566 56 663 q 95 457 56 502 q 203 411 134 411 q 366 484 311 411 q 422 655 422 557 m 253 696 q 293 680 280 696 q 306 634 306 663 q 285 563 306 601 q 224 526 264 526 q 187 541 201 526 q 172 583 172 556 q 193 659 172 622 q 253 696 214 696 m 832 243 q 792 352 832 306 q 688 398 752 398 q 521 325 576 398 q 465 155 465 252 q 505 45 465 90 q 615 0 545 0 q 777 73 722 0 q 832 243 832 146 m 665 285 q 704 268 691 285 q 717 222 717 252 q 696 152 717 189 q 635 115 675 115 q 598 129 613 115 q 583 172 583 144 q 604 247 583 210 q 665 285 625 285 z "},"‰":{"ha":1266,"x_min":17,"x_max":1248,"o":"m 875 809 l 727 809 l 17 0 l 163 0 l 875 809 m 422 655 q 382 763 422 717 q 276 809 342 809 q 110 736 165 809 q 56 566 56 663 q 95 457 56 502 q 203 411 134 411 q 366 484 311 411 q 422 655 422 557 m 253 696 q 293 680 280 696 q 306 634 306 663 q 285 563 306 601 q 224 526 264 526 q 187 541 201 526 q 172 583 172 556 q 193 659 172 622 q 253 696 214 696 m 832 243 q 792 352 832 306 q 688 398 752 398 q 521 325 576 398 q 465 155 465 252 q 505 45 465 90 q 615 0 545 0 q 777 73 722 0 q 832 243 832 146 m 1248 243 q 1208 352 1248 306 q 1104 398 1168 398 q 938 325 993 398 q 882 155 882 252 q 922 45 882 90 q 1031 0 962 0 q 1194 73 1139 0 q 1248 243 1248 146 m 665 285 q 704 268 691 285 q 717 222 717 252 q 696 152 717 189 q 635 115 675 115 q 598 129 613 115 q 583 172 583 144 q 604 247 583 210 q 665 285 625 285 m 1082 285 q 1121 268 1108 285 q 1134 222 1134 252 q 1113 152 1134 189 q 1052 115 1092 115 q 1015 129 1030 115 q 1000 172 1000 144 q 1021 247 1000 210 q 1082 285 1042 285 z "},"+":{"ha":806,"x_min":87,"x_max":719,"o":"m 332 715 l 332 467 l 87 467 l 87 321 l 332 321 l 332 71 l 474 71 l 474 321 l 719 321 l 719 467 l 474 467 l 474 715 l 332 715 z "},"±":{"ha":771,"x_min":87,"x_max":684,"o":"m 314 773 l 314 547 l 87 547 l 87 411 l 314 411 l 314 193 l 457 193 l 457 411 l 684 411 l 684 547 l 457 547 l 457 773 l 314 773 m 684 0 l 684 132 l 87 132 l 87 0 l 684 0 z "},"∏":{"ha":1134,"x_min":104,"x_max":1030,"o":"m 104 -111 l 259 -111 l 427 757 l 849 757 l 681 -111 l 833 -111 l 1030 898 l 300 898 l 104 -111 z "},"√":{"ha":905,"x_min":43,"x_max":877,"o":"m 309 439 l 43 333 l 75 215 l 208 267 l 292 -61 l 464 -61 l 877 929 l 747 953 l 385 92 l 309 439 z "},"∑":{"ha":1002,"x_min":87,"x_max":936,"o":"m 259 870 l 238 771 l 519 377 l 87 -30 l 101 -128 l 743 -128 l 769 7 l 333 7 l 684 337 l 679 406 l 446 731 l 910 731 l 936 870 l 259 870 z "},"◌":{"ha":858,"x_min":35,"x_max":823,"o":"m 429 708 q 400 720 411 708 q 389 748 389 731 q 400 777 389 766 q 429 788 411 788 q 457 777 446 788 q 469 748 469 766 q 457 720 469 731 q 429 708 446 708 m 290 682 q 261 694 273 682 q 250 722 250 705 q 261 751 250 740 q 290 762 273 762 q 318 751 306 762 q 330 722 330 740 q 318 694 330 705 q 290 682 306 682 m 569 682 q 541 694 552 682 q 530 722 530 705 q 541 751 530 740 q 569 762 552 762 q 598 751 587 762 q 609 722 609 740 q 598 694 609 705 q 569 682 587 682 m 177 606 q 148 617 160 606 q 137 646 137 628 q 148 674 137 663 q 177 686 160 686 q 206 674 194 686 q 217 646 217 663 q 206 617 217 628 q 177 606 194 606 m 682 606 q 654 617 665 606 q 642 646 642 628 q 654 674 642 663 q 682 686 665 686 q 711 674 700 686 q 722 646 722 663 q 711 617 722 628 q 682 606 700 606 m 99 490 q 70 501 82 490 q 59 530 59 512 q 70 558 59 547 q 99 569 82 569 q 128 558 116 569 q 139 530 139 547 q 128 501 139 512 q 99 490 116 490 m 760 490 q 732 501 743 490 q 720 530 720 512 q 732 558 720 547 q 760 569 743 569 q 789 558 778 569 q 800 530 800 547 q 789 501 800 512 q 760 490 778 490 m 75 354 q 46 365 57 354 q 35 394 35 377 q 46 423 35 411 q 75 434 57 434 q 103 423 92 434 q 115 394 115 411 q 103 365 115 377 q 75 354 92 354 m 783 354 q 754 365 766 354 q 743 394 743 377 q 754 423 743 411 q 783 434 766 434 q 812 423 800 434 q 823 394 823 411 q 812 365 823 377 q 783 354 800 354 m 99 299 q 128 287 116 299 q 139 260 139 276 q 128 231 139 243 q 99 219 116 219 q 70 231 82 219 q 59 260 59 243 q 70 287 59 276 q 99 299 82 299 m 760 299 q 789 287 778 299 q 800 260 800 276 q 789 231 800 243 q 760 219 778 219 q 732 231 743 219 q 720 260 720 243 q 732 287 720 276 q 760 299 743 299 m 177 184 q 206 172 194 184 q 217 142 217 160 q 206 115 217 127 q 177 104 194 104 q 148 115 160 104 q 137 142 137 127 q 148 172 137 160 q 177 184 160 184 m 682 184 q 711 172 700 184 q 722 142 722 160 q 711 115 722 127 q 682 104 700 104 q 654 115 665 104 q 642 142 642 127 q 654 172 642 160 q 682 184 665 184 m 290 108 q 318 95 306 108 q 330 66 330 83 q 318 38 330 50 q 290 26 306 26 q 261 38 273 26 q 250 66 250 50 q 261 95 250 83 q 290 108 273 108 m 569 108 q 598 95 587 108 q 609 66 609 83 q 598 38 609 50 q 569 26 587 26 q 541 38 552 26 q 530 66 530 50 q 541 95 530 83 q 569 108 552 108 m 429 80 q 457 69 446 80 q 469 42 469 57 q 457 12 469 24 q 429 0 446 0 q 400 12 411 0 q 389 42 389 24 q 400 69 389 57 q 429 80 411 80 z "},"◊":{"ha":724,"x_min":43,"x_max":681,"o":"m 361 726 l 43 361 l 252 0 l 359 0 l 681 361 l 469 726 l 361 726 m 205 361 l 399 578 l 519 361 l 321 146 l 205 361 z "},"&":{"ha":997,"x_min":87,"x_max":936,"o":"m 903 0 l 727 0 l 637 132 q 564 71 625 122 q 442 -5 503 21 q 319 -31 380 -31 q 151 23 215 -31 q 87 167 87 78 q 109 293 87 236 q 188 409 132 349 q 347 543 245 469 q 282 656 302 615 q 262 755 262 698 q 332 918 262 851 q 538 986 403 986 q 684 941 625 986 q 743 819 743 896 q 700 685 743 747 q 536 533 656 623 l 670 337 l 854 500 l 936 401 l 745 229 l 903 0 m 422 785 q 418 750 418 760 q 430 694 418 722 q 467 627 441 667 q 582 780 582 708 q 563 825 582 807 q 510 842 545 842 q 451 826 474 842 q 422 785 427 811 m 408 601 m 340 115 q 411 128 378 115 q 470 162 443 142 q 564 240 497 182 l 420 451 q 313 360 347 392 q 258 290 278 328 q 238 203 238 252 q 265 137 238 160 q 340 115 292 115 z "},"^":{"ha":753,"x_min":69,"x_max":684,"o":"m 155 628 l 408 842 l 576 625 l 684 712 l 432 1038 l 69 731 l 155 628 z "},"@":{"ha":1406,"x_min":69,"x_max":1339,"o":"m 941 622 q 856 651 896 641 q 767 661 816 661 q 543 599 634 661 q 409 440 453 536 q 365 245 365 344 q 436 55 365 127 q 620 -17 507 -17 q 840 73 738 -17 q 984 -17 870 -17 q 1251 138 1172 -17 q 1337 500 1330 293 q 1278 735 1339 635 q 1098 889 1217 835 q 813 943 979 943 q 408 832 576 943 q 155 550 240 720 q 69 210 69 380 q 135 -45 69 66 q 309 -218 200 -156 q 545 -280 418 -280 q 662 -271 606 -280 q 788 -241 719 -262 l 825 -109 q 606 -142 724 -142 q 335 -47 438 -142 q 233 220 233 49 q 299 490 233 354 q 497 714 366 625 q 809 804 627 804 q 1085 720 990 804 q 1182 474 1181 637 q 1164 319 1182 406 q 1109 168 1146 233 q 1019 104 1073 104 q 957 184 957 104 q 962 234 957 207 l 1043 655 l 955 655 l 941 622 m 743 542 q 872 514 816 542 l 813 181 q 656 115 748 115 q 557 155 592 115 q 523 267 523 194 q 546 394 523 332 q 619 499 569 457 q 743 542 668 542 z "},"|":{"ha":521,"x_min":191,"x_max":330,"o":"m 330 -328 l 191 -328 l 191 1097 l 330 1097 l 330 -328 z "},"¦":{"ha":521,"x_min":191,"x_max":330,"o":"m 330 477 l 330 1097 l 191 1097 l 191 477 l 330 477 m 330 -326 l 330 293 l 191 293 l 191 -326 l 330 -326 z "},"©":{"ha":1179,"x_min":95,"x_max":1083,"o":"m 95 406 q 158 152 95 264 q 333 -23 220 40 q 590 -85 446 -85 q 845 -22 733 -85 q 1020 153 957 42 q 1083 406 1083 264 q 1020 663 1083 550 q 845 839 957 776 q 590 901 733 901 q 333 839 446 901 q 158 663 220 776 q 95 406 95 550 m 214 411 q 261 608 214 523 q 394 740 309 693 q 590 788 479 788 q 786 740 700 788 q 921 608 873 693 q 969 411 969 523 q 868 136 969 240 q 590 33 767 33 q 394 80 479 33 q 261 213 309 127 q 214 411 214 299 m 460 410 q 499 534 460 490 q 615 578 538 578 q 671 571 644 578 q 721 556 698 564 q 755 545 745 549 l 793 630 q 701 666 747 653 q 590 679 656 679 q 400 608 470 679 q 330 410 330 536 q 400 213 330 285 q 590 141 470 141 q 706 154 658 141 q 793 191 753 167 l 755 278 q 681 253 712 262 q 615 245 651 245 q 500 289 540 245 q 460 410 460 333 z "},"†":{"ha":635,"x_min":78,"x_max":557,"o":"m 365 736 l 531 724 l 557 859 l 385 845 l 438 1035 l 290 1035 l 269 845 l 104 859 l 78 729 l 248 741 l 104 83 l 252 83 l 365 736 z "},"‡":{"ha":786,"x_min":78,"x_max":708,"o":"m 318 392 q 267 68 285 222 l 106 85 l 78 -50 l 248 -36 l 196 -226 l 344 -226 l 365 -36 l 531 -50 l 559 76 l 387 69 q 467 417 429 220 q 516 741 490 533 l 682 724 l 708 859 l 536 845 l 589 1035 l 441 1035 l 420 845 l 255 859 l 231 736 l 398 743 q 318 392 358 592 z "},"°":{"ha":460,"x_min":17,"x_max":443,"o":"m 193 465 q 65 510 113 465 q 17 634 17 556 q 51 763 17 707 q 141 851 85 819 q 262 882 198 882 q 392 835 342 882 q 443 708 443 788 q 407 580 443 635 q 314 495 372 524 q 193 465 257 465 m 135 656 q 154 599 135 618 q 207 580 172 580 q 297 616 267 580 q 326 696 326 653 q 305 748 326 727 q 250 769 283 769 q 168 735 200 769 q 135 656 135 701 z "},"℮":{"ha":806,"x_min":69,"x_max":736,"o":"m 69 453 q 168 215 69 306 q 273 149 214 172 q 401 127 333 127 q 684 217 559 127 l 660 253 q 401 172 542 172 q 267 208 328 172 q 181 280 222 234 l 181 444 l 727 444 l 736 453 q 639 736 736 635 q 532 806 594 783 q 401 830 470 830 q 165 736 253 830 q 69 453 69 635 m 181 661 q 401 788 248 788 q 622 661 554 788 l 623 486 l 181 486 l 181 661 z "},"ℓ":{"ha":677,"x_min":9,"x_max":642,"o":"m 311 231 q 307 194 307 203 q 324 146 307 161 q 380 130 340 130 q 488 163 427 130 l 509 56 q 396 3 448 21 q 285 -16 344 -16 q 188 28 219 -16 q 156 135 156 71 q 160 175 156 148 l 69 97 l 9 179 l 193 345 l 252 653 q 337 880 283 814 q 486 946 391 946 q 601 914 559 946 q 642 821 642 882 q 639 785 642 813 q 543 577 618 682 q 356 345 469 472 l 326 313 l 311 231 m 429 774 q 387 627 406 720 l 365 509 q 462 650 432 601 q 498 736 491 700 q 500 762 500 745 q 470 804 500 804 q 448 799 457 804 q 429 774 439 793 z "},"¶":{"ha":967,"x_min":42,"x_max":858,"o":"m 472 1017 q 194 944 307 1017 q 47 701 80 870 q 42 644 42 674 q 114 489 42 547 q 307 427 186 431 l 231 0 l 392 0 l 559 882 l 668 882 l 502 0 l 660 0 l 858 1017 l 472 1017 z "},"®":{"ha":1042,"x_min":35,"x_max":783,"o":"m 783 703 q 753 851 783 780 q 674 970 722 922 q 555 1042 625 1016 q 410 1068 484 1068 q 261 1041 333 1068 q 142 969 189 1014 q 64 850 94 920 q 35 703 35 780 q 64 555 35 625 q 142 438 94 484 q 261 364 189 391 q 410 337 333 337 q 556 364 484 337 q 675 438 627 391 q 753 555 724 484 q 783 703 783 625 m 689 703 q 613 499 689 573 q 410 425 536 425 q 207 499 283 425 q 130 703 130 573 q 208 906 130 828 q 410 977 283 977 q 611 906 536 977 q 689 703 689 828 m 559 778 q 524 865 559 833 q 431 896 490 896 l 266 896 l 266 521 l 345 521 l 345 649 l 410 649 l 474 521 l 563 521 l 484 665 q 542 710 524 684 q 559 778 559 736 m 484 776 q 461 732 484 743 q 401 720 438 720 l 345 720 l 345 825 l 418 825 q 484 776 484 825 z "},"§":{"ha":865,"x_min":87,"x_max":778,"o":"m 403 767 q 432 720 403 741 q 523 672 462 700 q 668 586 616 628 q 720 472 720 543 q 694 383 720 427 q 602 311 667 339 q 658 194 658 260 q 597 49 658 115 q 366 -16 536 -16 q 220 2 285 -16 q 87 50 155 19 l 151 172 q 344 122 280 122 q 500 186 500 122 q 474 226 500 208 q 389 269 448 243 q 280 325 321 300 q 209 389 240 349 q 179 483 179 429 q 205 570 179 533 q 309 628 231 608 q 241 760 241 684 q 304 898 241 840 q 557 955 366 955 q 675 939 611 955 q 778 906 740 924 l 707 786 q 617 811 655 802 q 533 819 580 819 q 427 806 451 819 q 403 767 403 793 m 340 490 q 371 442 340 462 q 469 391 401 422 q 544 420 526 403 q 563 464 563 438 q 534 504 563 486 q 446 549 505 523 q 370 525 399 542 q 340 490 340 509 z "},"™":{"ha":924,"x_min":17,"x_max":872,"o":"m 253 861 l 385 861 l 385 955 l 17 955 l 17 861 l 146 861 l 146 569 l 253 569 l 253 861 m 682 672 l 774 825 l 774 569 l 872 569 l 872 955 l 753 955 l 658 799 l 563 955 l 446 955 l 446 569 l 543 569 l 543 825 l 635 672 l 682 672 z "}," ":{"ha":382,"x_min":0,"x_max":0,"o":""},"‍":{"ha":0,"x_min":0,"x_max":0,"o":""}}}
